Nobile-Light.ufo
<glyph name="exclam" format="1">
  <advance width="500"/>
  <unicode hex="0021"/>
  <outline>
    <contour>
      <point x="254" y="0" type="curve" smooth="yes"/>
      <point x="308" y="0"/>
      <point x="339" y="42"/>
      <point x="339" y="88" type="curve" smooth="yes"/>
      <point x="339" y="134"/>
      <point x="308" y="177"/>
      <point x="254" y="177" type="curve" smooth="yes"/>
      <point x="200" y="177"/>
      <point x="167" y="135"/>
      <point x="167" y="88" type="curve" smooth="yes"/>
      <point x="167" y="42"/>
      <point x="200" y="0"/>
    </contour>
    <contour>
      <point x="220" y="356" type="line"/>
      <point x="280" y="356" type="line"/>
      <point x="318" y="1603" type="line"/>
      <point x="183" y="1603" type="line"/>
    </contour>
  </outline>
</glyph>
<glyph name="quotedbl" format="1">
  <advance width="498"/>
  <unicode hex="0022"/>
  <outline>
    <contour>
      <point x="91" y="1126" type="line"/>
      <point x="160" y="1126" type="line"/>
      <point x="185" y="1523" type="line" smooth="yes"/>
      <point x="185" y="1531"/>
      <point x="185" y="1595"/>
      <point x="185" y="1604" type="curve"/>
      <point x="58" y="1604" type="line"/>
      <point x="58" y="1595"/>
      <point x="58" y="1530"/>
      <point x="58" y="1521" type="curve" smooth="yes"/>
    </contour>
    <contour>
      <point x="351" y="1126" type="line"/>
      <point x="420" y="1126" type="line"/>
      <point x="449" y="1523" type="line" smooth="yes"/>
      <point x="450" y="1531"/>
      <point x="449" y="1595"/>
      <point x="449" y="1604" type="curve"/>
      <point x="326" y="1604" type="line"/>
      <point x="326" y="1595"/>
      <point x="326" y="1530"/>
      <point x="326" y="1521" type="curve" smooth="yes"/>
    </contour>
  </outline>
</glyph>
<glyph name="numbersign" format="1">
  <advance width="1377"/>
  <unicode hex="0023"/>
  <outline>
    <contour>
      <point x="214" y="0" type="line"/>
      <point x="302" y="0" type="line"/>
      <point x="618" y="1603" type="line"/>
      <point x="518" y="1603" type="line"/>
    </contour>
    <contour>
      <point x="123" y="546" type="line"/>
      <point x="1233" y="546" type="line"/>
      <point x="1233" y="611" type="line"/>
      <point x="123" y="611" type="line"/>
    </contour>
    <contour>
      <point x="153" y="946" type="line"/>
      <point x="1263" y="946" type="line"/>
      <point x="1263" y="1011" type="line"/>
      <point x="153" y="1011" type="line"/>
    </contour>
    <contour>
      <point x="748" y="0" type="line"/>
      <point x="836" y="0" type="line"/>
      <point x="1152" y="1603" type="line"/>
      <point x="1052" y="1603" type="line"/>
    </contour>
  </outline>
</glyph>
<glyph name="dollar" format="1">
  <advance width="972"/>
  <unicode hex="0024"/>
  <outline>
    <contour>
      <point x="392" y="-187" type="line"/>
      <point x="465" y="-187" type="line"/>
      <point x="605" y="1628" type="line"/>
      <point x="532" y="1628" type="line"/>
    </contour>
    <component base="s" yOffset="110"/>
  </outline>
</glyph>
<glyph name="percent" format="1">
  <advance width="1876"/>
  <unicode hex="0025"/>
  <outline>
    <contour>
      <point x="455" y="899" type="curve" smooth="yes"/>
      <point x="332" y="899"/>
      <point x="254" y="1018"/>
      <point x="254" y="1208" type="curve" smooth="yes"/>
      <point x="254" y="1407"/>
      <point x="332" y="1532"/>
      <point x="455" y="1532" type="curve" smooth="yes"/>
      <point x="578" y="1532"/>
      <point x="656" y="1407"/>
      <point x="656" y="1208" type="curve" smooth="yes"/>
      <point x="656" y="1018"/>
      <point x="578" y="899"/>
    </contour>
    <contour>
      <point x="455" y="804" type="curve" smooth="yes"/>
      <point x="647" y="804"/>
      <point x="768" y="960"/>
      <point x="768" y="1208" type="curve" smooth="yes"/>
      <point x="768" y="1462"/>
      <point x="647" y="1621"/>
      <point x="455" y="1621" type="curve" smooth="yes"/>
      <point x="263" y="1621"/>
      <point x="142" y="1462"/>
      <point x="142" y="1208" type="curve" smooth="yes"/>
      <point x="142" y="960"/>
      <point x="263" y="804"/>
    </contour>
    <contour>
      <point x="513" y="-43" type="line"/>
      <point x="1492" y="1599" type="line"/>
      <point x="1405" y="1641" type="line"/>
      <point x="424" y="-5" type="line"/>
    </contour>
    <contour>
      <point x="1449" y="77" type="curve" smooth="yes"/>
      <point x="1326" y="77"/>
      <point x="1248" y="195"/>
      <point x="1248" y="385" type="curve" smooth="yes"/>
      <point x="1248" y="585"/>
      <point x="1326" y="710"/>
      <point x="1449" y="710" type="curve" smooth="yes"/>
      <point x="1572" y="710"/>
      <point x="1650" y="585"/>
      <point x="1650" y="385" type="curve" smooth="yes"/>
      <point x="1650" y="195"/>
      <point x="1572" y="77"/>
    </contour>
    <contour>
      <point x="1449" y="-18" type="curve" smooth="yes"/>
      <point x="1641" y="-18"/>
      <point x="1762" y="138"/>
      <point x="1762" y="386" type="curve" smooth="yes"/>
      <point x="1762" y="640"/>
      <point x="1641" y="799"/>
      <point x="1449" y="799" type="curve" smooth="yes"/>
      <point x="1257" y="799"/>
      <point x="1136" y="640"/>
      <point x="1136" y="386" type="curve" smooth="yes"/>
      <point x="1136" y="138"/>
      <point x="1257" y="-18"/>
    </contour>
  </outline>
</glyph>
<glyph name="ampersand" format="1">
  <advance width="1679"/>
  <unicode hex="0026"/>
  <outline>
    <contour>
      <point x="1623" y="44" type="line"/>
      <point x="1675" y="122" type="line"/>
      <point x="1410" y="331" type="line"/>
      <point x="1461" y="481"/>
      <point x="1468" y="658"/>
      <point x="1468" y="887" type="curve"/>
      <point x="1357" y="887" type="line"/>
      <point x="1357" y="675"/>
      <point x="1358" y="543"/>
      <point x="1320" y="394" type="curve"/>
      <point x="675" y="906" type="line"/>
      <point x="914" y="985"/>
      <point x="1114" y="1033"/>
      <point x="1124" y="1258" type="curve" smooth="yes"/>
      <point x="1139" y="1546"/>
      <point x="919" y="1621"/>
      <point x="682" y="1621" type="curve" smooth="yes"/>
      <point x="433" y="1621"/>
      <point x="254" y="1537"/>
      <point x="254" y="1276" type="curve" smooth="yes"/>
      <point x="254" y="1128"/>
      <point x="358" y="1031"/>
      <point x="491" y="936" type="curve"/>
      <point x="228" y="849"/>
      <point x="124" y="676"/>
      <point x="124" y="445" type="curve" smooth="yes"/>
      <point x="124" y="74"/>
      <point x="430" y="-18"/>
      <point x="729" y="-18" type="curve" smooth="yes"/>
      <point x="1066" y="-18"/>
      <point x="1267" y="31"/>
      <point x="1370" y="244" type="curve"/>
    </contour>
    <contour>
      <point x="726" y="88" type="curve" smooth="yes"/>
      <point x="530" y="88"/>
      <point x="256" y="136"/>
      <point x="256" y="452" type="curve" smooth="yes"/>
      <point x="256" y="660"/>
      <point x="348" y="801"/>
      <point x="567" y="871" type="curve"/>
      <point x="1282" y="300" type="line"/>
      <point x="1184" y="111"/>
      <point x="1037" y="88"/>
    </contour>
    <contour>
      <point x="601" y="978" type="curve"/>
      <point x="485" y="1057"/>
      <point x="379" y="1152"/>
      <point x="379" y="1281" type="curve" smooth="yes"/>
      <point x="379" y="1487"/>
      <point x="525" y="1524"/>
      <point x="683" y="1524" type="curve" smooth="yes"/>
      <point x="859" y="1524"/>
      <point x="1020" y="1471"/>
      <point x="1005" y="1260" type="curve" smooth="yes"/>
      <point x="996" y="1088"/>
      <point x="841" y="1060"/>
    </contour>
  </outline>
</glyph>
<glyph name="quotesingle" format="1">
  <advance width="384"/>
  <unicode hex="0027"/>
  <outline>
    <contour>
      <point x="159" y="1126" type="line"/>
      <point x="228" y="1126" type="line"/>
      <point x="257" y="1523" type="line" smooth="yes"/>
      <point x="258" y="1531"/>
      <point x="257" y="1595"/>
      <point x="257" y="1604" type="curve"/>
      <point x="126" y="1604" type="line"/>
      <point x="126" y="1595"/>
      <point x="126" y="1530"/>
      <point x="126" y="1521" type="curve" smooth="yes"/>
    </contour>
  </outline>
</glyph>
<glyph name="parenleft" format="1">
  <advance width="710"/>
  <unicode hex="0028"/>
  <outline>
    <contour>
      <point x="528" y="-162" type="curve"/>
      <point x="587" y="-93" type="line"/>
      <point x="412" y="78"/>
      <point x="324" y="428"/>
      <point x="324" y="785" type="curve" smooth="yes"/>
      <point x="324" y="1137"/>
      <point x="414" y="1495"/>
      <point x="593" y="1675" type="curve"/>
      <point x="523" y="1741" type="line"/>
      <point x="298" y="1552"/>
      <point x="184" y="1169"/>
      <point x="184" y="785" type="curve" smooth="yes"/>
      <point x="184" y="404"/>
      <point x="299" y="23"/>
    </contour>
  </outline>
</glyph>
<glyph name="parenright" format="1">
  <advance width="710"/>
  <unicode hex="0029"/>
  <outline>
    <contour>
      <point x="183" y="-162" type="line"/>
      <point x="412" y="23"/>
      <point x="526" y="404"/>
      <point x="526" y="785" type="curve" smooth="yes"/>
      <point x="526" y="1169"/>
      <point x="413" y="1552"/>
      <point x="187" y="1741" type="curve"/>
      <point x="117" y="1675" type="line"/>
      <point x="297" y="1495"/>
      <point x="386" y="1137"/>
      <point x="386" y="785" type="curve" smooth="yes"/>
      <point x="386" y="428"/>
      <point x="298" y="78"/>
      <point x="124" y="-93" type="curve"/>
    </contour>
  </outline>
</glyph>
<glyph name="asterisk" format="1">
  <advance width="981"/>
  <unicode hex="002A"/>
  <outline>
    <contour>
      <point x="320" y="823" type="line"/>
      <point x="483" y="1114" type="line"/>
      <point x="645" y="823" type="line"/>
      <point x="722" y="865" type="line"/>
      <point x="539" y="1148" type="line"/>
      <point x="856" y="1142" type="line"/>
      <point x="856" y="1221" type="line"/>
      <point x="539" y="1214" type="line"/>
      <point x="714" y="1498" type="line"/>
      <point x="639" y="1538" type="line"/>
      <point x="483" y="1242" type="line"/>
      <point x="326" y="1538" type="line"/>
      <point x="251" y="1498" type="line"/>
      <point x="425" y="1214" type="line"/>
      <point x="110" y="1221" type="line"/>
      <point x="110" y="1142" type="line"/>
      <point x="425" y="1148" type="line"/>
      <point x="243" y="865" type="line"/>
    </contour>
  </outline>
</glyph>
<glyph name="plus" format="1">
  <advance width="1010"/>
  <unicode hex="002B"/>
  <outline>
    <contour>
      <point x="455" y="199" type="line"/>
      <point x="548" y="199" type="line"/>
      <point x="548" y="540" type="line"/>
      <point x="874" y="540" type="line"/>
      <point x="874" y="634" type="line"/>
      <point x="548" y="634" type="line"/>
      <point x="548" y="975" type="line"/>
      <point x="455" y="975" type="line"/>
      <point x="455" y="634" type="line"/>
      <point x="130" y="634" type="line"/>
      <point x="130" y="540" type="line"/>
      <point x="455" y="540" type="line"/>
    </contour>
  </outline>
</glyph>
<glyph name="comma" format="1">
  <advance width="536"/>
  <unicode hex="002C"/>
  <outline>
    <contour>
      <point x="194" y="-250" type="line"/>
      <point x="333" y="-210"/>
      <point x="359" y="-91"/>
      <point x="359" y="35" type="curve" smooth="yes"/>
      <point x="359" y="248" type="line"/>
      <point x="187" y="248" type="line"/>
      <point x="187" y="18" type="line"/>
      <point x="271" y="18" type="line"/>
      <point x="271" y="-106"/>
      <point x="252" y="-165"/>
      <point x="168" y="-197" type="curve"/>
    </contour>
  </outline>
</glyph>
<glyph name="hyphen" format="1">
  <advance width="888"/>
  <unicode hex="002D"/>
  <outline>
    <contour>
      <point x="446" y="549" type="move" name="_mid"/>
    </contour>
    <contour>
      <point x="125" y="488" type="line"/>
      <point x="763" y="488" type="line"/>
      <point x="763" y="598" type="line"/>
      <point x="125" y="598" type="line"/>
    </contour>
  </outline>
</glyph>
<glyph name="period" format="1">
  <advance width="500"/>
  <unicode hex="002E"/>
  <outline>
    <contour>
      <point x="249" y="-22" type="curve" smooth="yes"/>
      <point x="300" y="-22"/>
      <point x="329" y="20"/>
      <point x="329" y="67" type="curve" smooth="yes"/>
      <point x="329" y="114"/>
      <point x="300" y="157"/>
      <point x="249" y="157" type="curve" smooth="yes"/>
      <point x="201" y="157"/>
      <point x="163" y="114"/>
      <point x="163" y="67" type="curve" smooth="yes"/>
      <point x="163" y="18"/>
      <point x="201" y="-22"/>
    </contour>
  </outline>
</glyph>
<glyph name="slash" format="1">
  <advance width="918"/>
  <unicode hex="002F"/>
  <outline>
    <contour>
      <point x="135" y="-174" type="line"/>
      <point x="850" y="1705" type="line"/>
      <point x="762" y="1741" type="line"/>
      <point x="47" y="-140" type="line"/>
    </contour>
  </outline>
</glyph>
<glyph name="zero" format="1">
  <advance width="1304"/>
  <unicode hex="0030"/>
  <outline>
    <contour>
      <point x="656" y="86" type="curve" smooth="yes"/>
      <point x="383" y="86"/>
      <point x="245" y="301"/>
      <point x="245" y="596" type="curve" smooth="yes"/>
      <point x="245" y="878"/>
      <point x="381" y="1086"/>
      <point x="656" y="1086" type="curve" smooth="yes"/>
      <point x="919" y="1086"/>
      <point x="1056" y="882"/>
      <point x="1056" y="602" type="curve" smooth="yes"/>
      <point x="1056" y="306"/>
      <point x="927" y="86"/>
    </contour>
    <contour>
      <point x="656" y="-18" type="curve" smooth="yes"/>
      <point x="995" y="-18"/>
      <point x="1196" y="232"/>
      <point x="1196" y="595" type="curve" smooth="yes"/>
      <point x="1196" y="944"/>
      <point x="996" y="1188"/>
      <point x="656" y="1188" type="curve" smooth="yes"/>
      <point x="308" y="1188"/>
      <point x="106" y="946"/>
      <point x="106" y="595" type="curve" smooth="yes"/>
      <point x="106" y="235"/>
      <point x="310" y="-18"/>
    </contour>
  </outline>
</glyph>
<glyph name="one" format="1">
  <advance width="1093"/>
  <unicode hex="0031"/>
  <outline>
    <contour>
      <point x="604" y="0" type="line"/>
      <point x="737" y="0" type="line"/>
      <point x="737" y="1170" type="line"/>
      <point x="594" y="1170" type="line"/>
      <point x="314" y="1028" type="line"/>
      <point x="354" y="938" type="line"/>
      <point x="604" y="1064" type="line"/>
    </contour>
  </outline>
</glyph>
<glyph name="two" format="1">
  <advance width="1184"/>
  <unicode hex="0032"/>
  <outline>
    <contour>
      <point x="204" y="0" type="line"/>
      <point x="975" y="0" type="line"/>
      <point x="975" y="97" type="line"/>
      <point x="359" y="97" type="line"/>
      <point x="673" y="374" type="line" smooth="yes"/>
      <point x="818" y="499"/>
      <point x="967" y="650"/>
      <point x="967" y="845" type="curve" smooth="yes"/>
      <point x="967" y="1083"/>
      <point x="796" y="1188"/>
      <point x="571" y="1188" type="curve" smooth="yes"/>
      <point x="424" y="1188"/>
      <point x="311" y="1139"/>
      <point x="224" y="1086" type="curve"/>
      <point x="263" y="993" type="line"/>
      <point x="346" y="1041"/>
      <point x="455" y="1087"/>
      <point x="573" y="1087" type="curve" smooth="yes"/>
      <point x="714" y="1087"/>
      <point x="845" y="1033"/>
      <point x="845" y="845" type="curve" smooth="yes"/>
      <point x="845" y="671"/>
      <point x="728" y="571"/>
      <point x="599" y="453" type="curve" smooth="yes"/>
      <point x="204" y="92" type="line"/>
    </contour>
  </outline>
</glyph>
<glyph name="three" format="1">
  <advance width="1232"/>
  <unicode hex="0033"/>
  <outline>
    <contour>
      <point x="596" y="-215" type="curve" smooth="yes"/>
      <point x="820" y="-215"/>
      <point x="1032" y="-109"/>
      <point x="1037" y="143" type="curve" smooth="yes"/>
      <point x="1041" y="369"/>
      <point x="907" y="497"/>
      <point x="688" y="534" type="curve"/>
      <point x="844" y="534"/>
      <point x="992" y="638"/>
      <point x="992" y="850" type="curve" smooth="yes"/>
      <point x="992" y="1090"/>
      <point x="808" y="1188"/>
      <point x="581" y="1188" type="curve" smooth="yes"/>
      <point x="437" y="1188"/>
      <point x="320" y="1139"/>
      <point x="231" y="1090" type="curve"/>
      <point x="269" y="992" type="line"/>
      <point x="353" y="1041"/>
      <point x="458" y="1085"/>
      <point x="579" y="1085" type="curve" smooth="yes"/>
      <point x="729" y="1085"/>
      <point x="870" y="1037"/>
      <point x="870" y="841" type="curve" smooth="yes"/>
      <point x="870" y="629"/>
      <point x="702" y="587"/>
      <point x="549" y="587" type="curve"/>
      <point x="549" y="482" type="line"/>
      <point x="773" y="450"/>
      <point x="915" y="376"/>
      <point x="909" y="152" type="curve" smooth="yes"/>
      <point x="905" y="-37"/>
      <point x="772" y="-113"/>
      <point x="596" y="-113" type="curve" smooth="yes"/>
      <point x="485" y="-113"/>
      <point x="361" y="-88"/>
      <point x="256" y="-37" type="curve"/>
      <point x="219" y="-133" type="line"/>
      <point x="338" y="-188"/>
      <point x="470" y="-215"/>
    </contour>
  </outline>
</glyph>
<glyph name="four" format="1">
  <advance width="1242"/>
  <unicode hex="0034"/>
  <outline>
    <contour>
      <point x="828" y="-274" type="line"/>
      <point x="954" y="-274" type="line"/>
      <point x="954" y="71" type="line"/>
      <point x="1149" y="71" type="line"/>
      <point x="1149" y="172" type="line"/>
      <point x="954" y="172" type="line"/>
      <point x="954" y="1175" type="line"/>
      <point x="828" y="1205" type="line"/>
      <point x="133" y="164" type="line"/>
      <point x="157" y="71" type="line"/>
      <point x="828" y="71" type="line"/>
    </contour>
    <contour>
      <point x="271" y="170" type="line"/>
      <point x="828" y="1018" type="line"/>
      <point x="828" y="170" type="line"/>
    </contour>
  </outline>
</glyph>
<glyph name="five" format="1">
  <advance width="1242"/>
  <unicode hex="0035"/>
  <outline>
    <contour>
      <point x="604" y="-213" type="curve" smooth="yes"/>
      <point x="876" y="-213"/>
      <point x="1075" y="-54"/>
      <point x="1075" y="235" type="curve" smooth="yes"/>
      <point x="1075" y="502"/>
      <point x="916" y="686"/>
      <point x="638" y="686" type="curve" smooth="yes"/>
      <point x="532" y="686"/>
      <point x="428" y="649"/>
      <point x="375" y="599" type="curve"/>
      <point x="375" y="1065" type="line"/>
      <point x="986" y="1065" type="line"/>
      <point x="986" y="1171" type="line"/>
      <point x="274" y="1171" type="line"/>
      <point x="274" y="535" type="line"/>
      <point x="331" y="478" type="line"/>
      <point x="401" y="529"/>
      <point x="502" y="582"/>
      <point x="631" y="582" type="curve" smooth="yes"/>
      <point x="856" y="582"/>
      <point x="947" y="439"/>
      <point x="947" y="233" type="curve" smooth="yes"/>
      <point x="947" y="11"/>
      <point x="823" y="-106"/>
      <point x="605" y="-106" type="curve" smooth="yes"/>
      <point x="469" y="-106"/>
      <point x="352" y="-60"/>
      <point x="266" y="-1" type="curve"/>
      <point x="228" y="-104" type="line"/>
      <point x="322" y="-157"/>
      <point x="442" y="-213"/>
    </contour>
  </outline>
</glyph>
<glyph name="six" format="1">
  <advance width="1285"/>
  <unicode hex="0036"/>
  <outline>
    <contour>
      <point x="682" y="-104" type="curve" smooth="yes"/>
      <point x="947" y="-104"/>
      <point x="1141" y="76"/>
      <point x="1141" y="389" type="curve" smooth="yes"/>
      <point x="1141" y="685"/>
      <point x="940" y="839"/>
      <point x="706" y="839" type="curve" smooth="yes"/>
      <point x="558" y="839"/>
      <point x="411" y="775"/>
      <point x="336" y="648" type="curve"/>
      <point x="371" y="955"/>
      <point x="582" y="1193"/>
      <point x="894" y="1275" type="curve"/>
      <point x="867" y="1377" type="line"/>
      <point x="449" y="1275"/>
      <point x="195" y="920"/>
      <point x="195" y="485" type="curve" smooth="yes"/>
      <point x="195" y="154"/>
      <point x="336" y="-104"/>
    </contour>
    <contour>
      <point x="682" y="1" type="curve" smooth="yes"/>
      <point x="391" y="1"/>
      <point x="324" y="261"/>
      <point x="324" y="463" type="curve" smooth="yes"/>
      <point x="324" y="494"/>
      <point x="325" y="518"/>
      <point x="328" y="545" type="curve"/>
      <point x="409" y="659"/>
      <point x="548" y="736"/>
      <point x="702" y="736" type="curve" smooth="yes"/>
      <point x="881" y="736"/>
      <point x="1013" y="609"/>
      <point x="1013" y="375" type="curve" smooth="yes"/>
      <point x="1013" y="162"/>
      <point x="884" y="1"/>
    </contour>
  </outline>
</glyph>
<glyph name="seven" format="1">
  <advance width="1223"/>
  <unicode hex="0037"/>
  <outline>
    <contour>
      <point x="477" y="-226" type="line"/>
      <point x="1040" y="1077" type="line"/>
      <point x="998" y="1170" type="line"/>
      <point x="180" y="1170" type="line"/>
      <point x="180" y="1059" type="line"/>
      <point x="895" y="1059" type="line"/>
      <point x="358" y="-177" type="line"/>
    </contour>
  </outline>
</glyph>
<glyph name="eight" format="1">
  <advance width="1276"/>
  <unicode hex="0038"/>
  <outline>
    <contour>
      <point x="642" y="-155" type="curve" smooth="yes"/>
      <point x="920" y="-155"/>
      <point x="1094" y="1"/>
      <point x="1094" y="248" type="curve" smooth="yes"/>
      <point x="1094" y="429"/>
      <point x="997" y="576"/>
      <point x="817" y="627" type="curve"/>
      <point x="977" y="677"/>
      <point x="1072" y="802"/>
      <point x="1072" y="972" type="curve" smooth="yes"/>
      <point x="1072" y="1197"/>
      <point x="907" y="1338"/>
      <point x="642" y="1338" type="curve" smooth="yes"/>
      <point x="369" y="1338"/>
      <point x="197" y="1197"/>
      <point x="197" y="972" type="curve" smooth="yes"/>
      <point x="197" y="803"/>
      <point x="293" y="677"/>
      <point x="452" y="630" type="curve"/>
      <point x="272" y="580"/>
      <point x="175" y="433"/>
      <point x="175" y="248" type="curve" smooth="yes"/>
      <point x="175" y="1"/>
      <point x="355" y="-155"/>
    </contour>
    <contour>
      <point x="642" y="-56" type="curve" smooth="yes"/>
      <point x="435" y="-56"/>
      <point x="305" y="62"/>
      <point x="305" y="248" type="curve" smooth="yes"/>
      <point x="305" y="451"/>
      <point x="437" y="585"/>
      <point x="642" y="585" type="curve" smooth="yes"/>
      <point x="841" y="585"/>
      <point x="964" y="448"/>
      <point x="964" y="248" type="curve" smooth="yes"/>
      <point x="964" y="62"/>
      <point x="840" y="-56"/>
    </contour>
    <contour>
      <point x="642" y="675" type="curve" smooth="yes"/>
      <point x="455" y="675"/>
      <point x="325" y="793"/>
      <point x="325" y="972" type="curve" smooth="yes"/>
      <point x="325" y="1137"/>
      <point x="448" y="1241"/>
      <point x="642" y="1241" type="curve" smooth="yes"/>
      <point x="827" y="1241"/>
      <point x="944" y="1137"/>
      <point x="944" y="972" type="curve" smooth="yes"/>
      <point x="944" y="793"/>
      <point x="822" y="675"/>
    </contour>
  </outline>
</glyph>
<glyph name="nine" format="1">
  <advance width="1285"/>
  <unicode hex="0039"/>
  <outline>
    <contour>
      <point x="442" y="-292" type="line"/>
      <point x="860" y="-191"/>
      <point x="1114" y="165"/>
      <point x="1114" y="600" type="curve" smooth="yes"/>
      <point x="1114" y="931"/>
      <point x="973" y="1188"/>
      <point x="628" y="1188" type="curve" smooth="yes"/>
      <point x="362" y="1188"/>
      <point x="168" y="1009"/>
      <point x="168" y="696" type="curve" smooth="yes"/>
      <point x="168" y="399"/>
      <point x="369" y="246"/>
      <point x="603" y="246" type="curve" smooth="yes"/>
      <point x="752" y="246"/>
      <point x="898" y="310"/>
      <point x="973" y="436" type="curve"/>
      <point x="938" y="130"/>
      <point x="718" y="-105"/>
      <point x="412" y="-189" type="curve"/>
    </contour>
    <contour>
      <point x="607" y="349" type="curve" smooth="yes"/>
      <point x="428" y="349"/>
      <point x="296" y="476"/>
      <point x="296" y="710" type="curve" smooth="yes"/>
      <point x="296" y="923"/>
      <point x="425" y="1084"/>
      <point x="627" y="1084" type="curve" smooth="yes"/>
      <point x="918" y="1084"/>
      <point x="985" y="824"/>
      <point x="985" y="622" type="curve" smooth="yes"/>
      <point x="985" y="591"/>
      <point x="985" y="561"/>
      <point x="982" y="534" type="curve"/>
      <point x="901" y="419"/>
      <point x="733" y="349"/>
    </contour>
  </outline>
</glyph>
<glyph name="colon" format="1">
  <advance width="530"/>
  <unicode hex="003A"/>
  <outline>
    <contour>
      <point x="199" y="0" type="line"/>
      <point x="352" y="0" type="line"/>
      <point x="352" y="232" type="line"/>
      <point x="199" y="232" type="line"/>
    </contour>
    <contour>
      <point x="199" y="534" type="line"/>
      <point x="352" y="534" type="line"/>
      <point x="352" y="767" type="line"/>
      <point x="199" y="767" type="line"/>
    </contour>
  </outline>
</glyph>
<glyph name="semicolon" format="1">
  <advance width="539"/>
  <unicode hex="003B"/>
  <outline>
    <contour>
      <point x="190" y="-236" type="line"/>
      <point x="300" y="-203"/>
      <point x="360" y="-118"/>
      <point x="360" y="21" type="curve" smooth="yes"/>
      <point x="360" y="254" type="line"/>
      <point x="202" y="254" type="line"/>
      <point x="202" y="0" type="line"/>
      <point x="276" y="0" type="line"/>
      <point x="277" y="-102"/>
      <point x="241" y="-156"/>
      <point x="163" y="-182" type="curve"/>
    </contour>
    <contour>
      <point x="204" y="534" type="line"/>
      <point x="360" y="534" type="line"/>
      <point x="360" y="767" type="line"/>
      <point x="204" y="767" type="line"/>
    </contour>
  </outline>
</glyph>
<glyph name="less" format="1">
  <advance width="1385"/>
  <unicode hex="003C"/>
  <outline>
    <contour>
      <point x="1120" y="178" type="line"/>
      <point x="1175" y="255" type="line"/>
      <point x="410" y="753" type="line"/>
      <point x="1175" y="1251" type="line"/>
      <point x="1120" y="1328" type="line"/>
      <point x="210" y="753" type="line"/>
    </contour>
  </outline>
</glyph>
<glyph name="equal" format="1">
  <advance width="837"/>
  <unicode hex="003D"/>
  <outline>
    <contour>
      <point x="105" y="355" type="line"/>
      <point x="731" y="355" type="line"/>
      <point x="731" y="447" type="line"/>
      <point x="105" y="447" type="line"/>
    </contour>
    <contour>
      <point x="105" y="646" type="line"/>
      <point x="731" y="646" type="line"/>
      <point x="731" y="738" type="line"/>
      <point x="105" y="738" type="line"/>
    </contour>
  </outline>
</glyph>
<glyph name="greater" format="1">
  <advance width="1454"/>
  <unicode hex="003E"/>
  <outline>
    <contour>
      <point x="296" y="178" type="line"/>
      <point x="1206" y="753" type="line"/>
      <point x="296" y="1328" type="line"/>
      <point x="240" y="1251" type="line"/>
      <point x="1006" y="753" type="line"/>
      <point x="240" y="255" type="line"/>
    </contour>
  </outline>
</glyph>
<glyph name="question" format="1">
  <advance width="1096"/>
  <unicode hex="003F"/>
  <outline>
    <contour>
      <point x="299" y="359" type="line"/>
      <point x="400" y="359" type="line"/>
      <point x="400" y="701" type="line"/>
      <point x="641" y="793"/>
      <point x="966" y="918"/>
      <point x="966" y="1248" type="curve" smooth="yes"/>
      <point x="966" y="1518"/>
      <point x="745" y="1619"/>
      <point x="504" y="1619" type="curve" smooth="yes"/>
      <point x="358" y="1619"/>
      <point x="203" y="1578"/>
      <point x="94" y="1518" type="curve"/>
      <point x="135" y="1421" type="line"/>
      <point x="239" y="1475"/>
      <point x="374" y="1511"/>
      <point x="496" y="1511" type="curve" smooth="yes"/>
      <point x="727" y="1511"/>
      <point x="833" y="1395"/>
      <point x="833" y="1232" type="curve" smooth="yes"/>
      <point x="833" y="954"/>
      <point x="525" y="859"/>
      <point x="299" y="766" type="curve"/>
    </contour>
    <contour>
      <point x="351" y="-18" type="curve" smooth="yes"/>
      <point x="404" y="-18"/>
      <point x="438" y="16"/>
      <point x="438" y="71" type="curve" smooth="yes"/>
      <point x="438" y="122"/>
      <point x="405" y="155"/>
      <point x="353" y="155" type="curve" smooth="yes"/>
      <point x="296" y="155"/>
      <point x="261" y="124"/>
      <point x="261" y="74" type="curve" smooth="yes"/>
      <point x="261" y="17"/>
      <point x="295" y="-18"/>
    </contour>
  </outline>
</glyph>
<glyph name="at" format="1">
  <advance width="1945"/>
  <unicode hex="0040"/>
  <outline>
    <contour>
      <point x="985" y="-102" type="curve" smooth="yes"/>
      <point x="1143" y="-102"/>
      <point x="1320" y="-73"/>
      <point x="1446" y="-26" type="curve"/>
      <point x="1413" y="72" type="line"/>
      <point x="1294" y="24"/>
      <point x="1129" y="-6"/>
      <point x="985" y="-6" type="curve" smooth="yes"/>
      <point x="524" y="-6"/>
      <point x="234" y="273"/>
      <point x="243" y="706" type="curve" smooth="yes"/>
      <point x="253" y="1220"/>
      <point x="571" y="1526"/>
      <point x="1058" y="1526" type="curve" smooth="yes"/>
      <point x="1493" y="1526"/>
      <point x="1754" y="1269"/>
      <point x="1754" y="863" type="curve" smooth="yes"/>
      <point x="1754" y="562"/>
      <point x="1658" y="376"/>
      <point x="1500" y="376" type="curve" smooth="yes"/>
      <point x="1449" y="376"/>
      <point x="1418" y="412"/>
      <point x="1420" y="471" type="curve" smooth="yes"/>
      <point x="1420" y="474"/>
      <point x="1442" y="720"/>
      <point x="1474" y="1088" type="curve" smooth="yes"/>
      <point x="1482" y="1184"/>
      <point x="1354" y="1248"/>
      <point x="1150" y="1248" type="curve" smooth="yes"/>
      <point x="779" y="1248"/>
      <point x="537" y="1004"/>
      <point x="537" y="622" type="curve" smooth="yes"/>
      <point x="537" y="426"/>
      <point x="662" y="279"/>
      <point x="875" y="279" type="curve" smooth="yes"/>
      <point x="1088" y="279"/>
      <point x="1284" y="443"/>
      <point x="1349" y="715" type="curve"/>
      <point x="1361" y="714" type="line"/>
      <point x="1358" y="673"/>
      <point x="1337" y="523"/>
      <point x="1337" y="447" type="curve" smooth="yes"/>
      <point x="1337" y="355"/>
      <point x="1401" y="303"/>
      <point x="1489" y="303" type="curve" smooth="yes"/>
      <point x="1719" y="303"/>
      <point x="1855" y="515"/>
      <point x="1855" y="864" type="curve" smooth="yes"/>
      <point x="1855" y="1329"/>
      <point x="1554" y="1621"/>
      <point x="1058" y="1621" type="curve" smooth="yes"/>
      <point x="490" y="1621"/>
      <point x="127" y="1269"/>
      <point x="127" y="697" type="curve" smooth="yes"/>
      <point x="127" y="211"/>
      <point x="462" y="-102"/>
    </contour>
    <contour>
      <point x="891" y="371" type="curve" smooth="yes"/>
      <point x="740" y="370"/>
      <point x="646" y="467"/>
      <point x="646" y="629" type="curve" smooth="yes"/>
      <point x="646" y="963"/>
      <point x="847" y="1169"/>
      <point x="1149" y="1171" type="curve" smooth="yes"/>
      <point x="1250" y="1171"/>
      <point x="1335" y="1146"/>
      <point x="1383" y="1123" type="curve"/>
      <point x="1347" y="660"/>
      <point x="1162" y="371"/>
    </contour>
  </outline>
</glyph>
<glyph name="A" format="1">
  <advance width="1425"/>
  <unicode hex="0041"/>
  <outline>
    <contour>
      <point x="706" y="1603" type="move" name="top"/>
    </contour>
    <contour>
      <point x="1278" y="0" type="move" name="ogonek"/>
    </contour>
    <contour>
      <point x="66" y="0" type="line"/>
      <point x="202" y="0" type="line"/>
      <point x="336" y="394" type="line"/>
      <point x="1085" y="394" type="line"/>
      <point x="1219" y="0" type="line"/>
      <point x="1355" y="0" type="line"/>
      <point x="810" y="1601" type="line"/>
      <point x="605" y="1601" type="line"/>
    </contour>
    <contour>
      <point x="365" y="483" type="line"/>
      <point x="708" y="1511" type="line"/>
      <point x="1054" y="483" type="line"/>
    </contour>
  </outline>
</glyph>
<glyph name="B" format="1">
  <advance width="1404"/>
  <unicode hex="0042"/>
  <outline>
    <contour>
      <point x="690" y="1603" type="move" name="top"/>
    </contour>
    <contour>
      <point x="186" y="0" type="line"/>
      <point x="600" y="0" type="line"/>
      <point x="943" y="0"/>
      <point x="1273" y="59"/>
      <point x="1273" y="444" type="curve" smooth="yes"/>
      <point x="1273" y="709"/>
      <point x="1144" y="831"/>
      <point x="899" y="867" type="curve"/>
      <point x="1087" y="906"/>
      <point x="1194" y="998"/>
      <point x="1194" y="1221" type="curve" smooth="yes"/>
      <point x="1194" y="1590"/>
      <point x="850" y="1601"/>
      <point x="553" y="1601" type="curve" smooth="yes"/>
      <point x="186" y="1601" type="line"/>
    </contour>
    <contour>
      <point x="322" y="108" type="line"/>
      <point x="322" y="810" type="line"/>
      <point x="627" y="810" type="line" smooth="yes"/>
      <point x="882" y="810"/>
      <point x="1149" y="772"/>
      <point x="1149" y="461" type="curve" smooth="yes"/>
      <point x="1149" y="119"/>
      <point x="867" y="108"/>
      <point x="591" y="108" type="curve" smooth="yes"/>
    </contour>
    <contour>
      <point x="322" y="912" type="line"/>
      <point x="322" y="1494" type="line"/>
      <point x="560" y="1495" type="line" smooth="yes"/>
      <point x="797" y="1496"/>
      <point x="1075" y="1491"/>
      <point x="1075" y="1225" type="curve" smooth="yes"/>
      <point x="1075" y="945"/>
      <point x="855" y="912"/>
      <point x="626" y="912" type="curve" smooth="yes"/>
    </contour>
  </outline>
</glyph>
<glyph name="C" format="1">
  <advance width="1307"/>
  <unicode hex="0043"/>
  <outline>
    <contour>
      <point x="803" y="1603" type="move" name="top"/>
    </contour>
    <contour>
      <point x="777" y="0" type="move" name="bot"/>
    </contour>
    <contour>
      <point x="803" y="-18" type="curve" smooth="yes"/>
      <point x="967" y="-18"/>
      <point x="1127" y="44"/>
      <point x="1235" y="116" type="curve"/>
      <point x="1185" y="207" type="line"/>
      <point x="1090" y="150"/>
      <point x="965" y="93"/>
      <point x="804" y="93" type="curve" smooth="yes"/>
      <point x="358" y="93"/>
      <point x="274" y="460"/>
      <point x="274" y="787" type="curve" smooth="yes"/>
      <point x="274" y="1109"/>
      <point x="367" y="1510"/>
      <point x="813" y="1510" type="curve" smooth="yes"/>
      <point x="977" y="1510"/>
      <point x="1103" y="1441"/>
      <point x="1151" y="1411" type="curve"/>
      <point x="1197" y="1505" type="line"/>
      <point x="1137" y="1546"/>
      <point x="995" y="1621"/>
      <point x="813" y="1621" type="curve" smooth="yes"/>
      <point x="310" y="1621"/>
      <point x="136" y="1232"/>
      <point x="136" y="789" type="curve" smooth="yes"/>
      <point x="136" y="376"/>
      <point x="281" y="-18"/>
    </contour>
  </outline>
</glyph>
<glyph name="D" format="1">
  <advance width="1506"/>
  <unicode hex="0044"/>
  <outline>
    <contour>
      <point x="709" y="1603" type="move" name="top"/>
    </contour>
    <contour>
      <point x="272" y="863" type="move" name="mid"/>
    </contour>
    <contour>
      <point x="322" y="108" type="line"/>
      <point x="322" y="1494" type="line"/>
      <point x="753" y="1494" type="line" smooth="yes"/>
      <point x="1139" y="1494"/>
      <point x="1233" y="1134"/>
      <point x="1233" y="802" type="curve" smooth="yes"/>
      <point x="1233" y="468"/>
      <point x="1149" y="108"/>
      <point x="753" y="108" type="curve" smooth="yes"/>
    </contour>
    <contour>
      <point x="186" y="0" type="line"/>
      <point x="741" y="0" type="line" smooth="yes"/>
      <point x="1228" y="0"/>
      <point x="1371" y="378"/>
      <point x="1371" y="802" type="curve" smooth="yes"/>
      <point x="1371" y="1224"/>
      <point x="1227" y="1601"/>
      <point x="741" y="1601" type="curve" smooth="yes"/>
      <point x="186" y="1601" type="line"/>
    </contour>
  </outline>
</glyph>
<glyph name="E" format="1">
  <advance width="1228"/>
  <unicode hex="0045"/>
  <outline>
    <contour>
      <point x="691" y="1603" type="move" name="top"/>
    </contour>
    <contour>
      <point x="836" y="0" type="move" name="ogonek"/>
    </contour>
    <contour>
      <point x="683" y="0" type="move" name="bot"/>
    </contour>
    <contour>
      <point x="186" y="0" type="line"/>
      <point x="1107" y="0" type="line"/>
      <point x="1107" y="108" type="line"/>
      <point x="322" y="108" type="line"/>
      <point x="322" y="784" type="line"/>
      <point x="1000" y="784" type="line"/>
      <point x="1000" y="885" type="line"/>
      <point x="322" y="885" type="line"/>
      <point x="322" y="1494" type="line"/>
      <point x="1120" y="1494" type="line"/>
      <point x="1120" y="1601" type="line"/>
      <point x="186" y="1601" type="line"/>
    </contour>
  </outline>
</glyph>
<glyph name="F" format="1">
  <advance width="1154"/>
  <unicode hex="0046"/>
  <outline>
    <contour>
      <point x="652" y="1603" type="move" name="top"/>
    </contour>
    <contour>
      <point x="186" y="0" type="line"/>
      <point x="323" y="0" type="line"/>
      <point x="323" y="796" type="line"/>
      <point x="1013" y="796" type="line"/>
      <point x="1013" y="890" type="line"/>
      <point x="323" y="890" type="line"/>
      <point x="323" y="1499" type="line"/>
      <point x="1057" y="1499" type="line"/>
      <point x="1057" y="1601" type="line"/>
      <point x="186" y="1601" type="line"/>
    </contour>
  </outline>
</glyph>
<glyph name="G" format="1">
  <advance width="1501"/>
  <unicode hex="0047"/>
  <outline>
    <contour>
      <point x="806" y="0" type="move" name="bot"/>
    </contour>
    <contour>
      <point x="780" y="-18" type="curve" smooth="yes"/>
      <point x="999" y="-18"/>
      <point x="1172" y="59"/>
      <point x="1231" y="190" type="curve"/>
      <point x="1267" y="0" type="line"/>
      <point x="1333" y="0" type="line"/>
      <point x="1333" y="807" type="line"/>
      <point x="789" y="807" type="line"/>
      <point x="789" y="712" type="line"/>
      <point x="1205" y="712" type="line"/>
      <point x="1205" y="382" type="line" smooth="yes"/>
      <point x="1205" y="192"/>
      <point x="1027" y="93"/>
      <point x="799" y="93" type="curve" smooth="yes"/>
      <point x="352" y="93"/>
      <point x="274" y="448"/>
      <point x="274" y="796" type="curve" smooth="yes"/>
      <point x="274" y="1104"/>
      <point x="367" y="1509"/>
      <point x="805" y="1509" type="curve" smooth="yes"/>
      <point x="977" y="1509"/>
      <point x="1134" y="1448"/>
      <point x="1205" y="1399" type="curve"/>
      <point x="1253" y="1495" type="line"/>
      <point x="1169" y="1546"/>
      <point x="1009" y="1621"/>
      <point x="806" y="1621" type="curve" smooth="yes"/>
      <point x="310" y="1621"/>
      <point x="136" y="1219"/>
      <point x="136" y="797" type="curve" smooth="yes"/>
      <point x="136" y="369"/>
      <point x="289" y="-18"/>
    </contour>
  </outline>
</glyph>
<glyph name="I" format="1">
  <advance width="858"/>
  <unicode hex="0049"/>
  <outline>
    <contour>
      <point x="439" y="1603" type="move" name="top"/>
    </contour>
    <contour>
      <point x="150" y="0" type="line"/>
      <point x="705" y="0" type="line"/>
      <point x="705" y="81" type="line"/>
      <point x="495" y="81" type="line"/>
      <point x="495" y="1518" type="line"/>
      <point x="705" y="1518" type="line"/>
      <point x="705" y="1601" type="line"/>
      <point x="150" y="1601" type="line"/>
      <point x="150" y="1518" type="line"/>
      <point x="363" y="1518" type="line"/>
      <point x="363" y="81" type="line"/>
      <point x="150" y="81" type="line"/>
    </contour>
  </outline>
</glyph>
<glyph name="J" format="1">
  <advance width="729"/>
  <unicode hex="004A"/>
  <outline>
    <contour>
      <point x="467" y="1603" type="move" name="top"/>
    </contour>
    <contour>
      <point x="92" y="-205" type="line"/>
      <point x="488" y="-165"/>
      <point x="534" y="-1"/>
      <point x="534" y="324" type="curve" smooth="yes"/>
      <point x="533" y="1601" type="line"/>
      <point x="397" y="1601" type="line"/>
      <point x="397" y="324" type="line" smooth="yes"/>
      <point x="397" y="37"/>
      <point x="387" y="-52"/>
      <point x="77" y="-95" type="curve"/>
    </contour>
  </outline>
</glyph>
<glyph name="K" format="1">
  <advance width="1310"/>
  <unicode hex="004B"/>
  <outline>
    <contour>
      <point x="662" y="1603" type="move" name="top"/>
    </contour>
    <contour>
      <point x="672" y="0" type="move" name="bot"/>
    </contour>
    <contour>
      <point x="186" y="0" type="line"/>
      <point x="322" y="0" type="line"/>
      <point x="322" y="770" type="line"/>
      <point x="375" y="770" type="line"/>
      <point x="1112" y="0" type="line"/>
      <point x="1278" y="0" type="line"/>
      <point x="496" y="822" type="line"/>
      <point x="1226" y="1601" type="line"/>
      <point x="1073" y="1601" type="line"/>
      <point x="368" y="863" type="line"/>
      <point x="322" y="863" type="line"/>
      <point x="322" y="1601" type="line"/>
      <point x="186" y="1601" type="line"/>
    </contour>
  </outline>
</glyph>
<glyph name="L" format="1">
  <advance width="1155"/>
  <unicode hex="004C"/>
  <outline>
    <contour>
      <point x="279" y="1603" type="move" name="top"/>
    </contour>
    <contour>
      <point x="394" y="1170" type="move" name="caron.alt"/>
    </contour>
    <contour>
      <point x="666" y="0" type="move" name="bot"/>
    </contour>
    <contour>
      <point x="260" y="875" type="move" name="mid"/>
    </contour>
    <contour>
      <point x="186" y="0" type="line"/>
      <point x="1109" y="0" type="line"/>
      <point x="1109" y="103" type="line"/>
      <point x="322" y="103" type="line"/>
      <point x="322" y="1601" type="line"/>
      <point x="186" y="1601" type="line"/>
    </contour>
  </outline>
</glyph>
<glyph name="M" format="1">
  <advance width="1832"/>
  <unicode hex="004D"/>
  <outline>
    <contour>
      <point x="909" y="1603" type="move" name="top"/>
    </contour>
    <contour>
      <point x="186" y="0" type="line"/>
      <point x="314" y="0" type="line"/>
      <point x="314" y="1427" type="line"/>
      <point x="873" y="134" type="line"/>
      <point x="966" y="134" type="line"/>
      <point x="1519" y="1430" type="line"/>
      <point x="1519" y="0" type="line"/>
      <point x="1647" y="0" type="line"/>
      <point x="1647" y="1601" type="line"/>
      <point x="1467" y="1601" type="line"/>
      <point x="920" y="306" type="line"/>
      <point x="364" y="1601" type="line"/>
      <point x="186" y="1601" type="line"/>
    </contour>
  </outline>
</glyph>
<glyph name="N" format="1">
  <advance width="1599"/>
  <unicode hex="004E"/>
  <outline>
    <contour>
      <point x="839" y="1603" type="move" name="top"/>
    </contour>
    <contour>
      <point x="831" y="0" type="move" name="bot"/>
    </contour>
    <contour>
      <point x="186" y="0" type="line"/>
      <point x="310" y="0" type="line"/>
      <point x="310" y="1480" type="line"/>
      <point x="1222" y="0" type="line"/>
      <point x="1413" y="0" type="line"/>
      <point x="1413" y="1601" type="line"/>
      <point x="1289" y="1601" type="line"/>
      <point x="1289" y="119" type="line"/>
      <point x="373" y="1601" type="line"/>
      <point x="186" y="1601" type="line"/>
    </contour>
  </outline>
</glyph>
<glyph name="O" format="1">
  <advance width="1542"/>
  <unicode hex="004F"/>
  <outline>
    <contour>
      <point x="773" y="1603" type="move" name="top"/>
    </contour>
    <contour>
      <point x="851" y="0" type="move" name="ogonek"/>
    </contour>
    <contour>
      <point x="771" y="93" type="curve" smooth="yes"/>
      <point x="361" y="93"/>
      <point x="274" y="471"/>
      <point x="274" y="800" type="curve" smooth="yes"/>
      <point x="274" y="1129"/>
      <point x="361" y="1510"/>
      <point x="771" y="1510" type="curve" smooth="yes"/>
      <point x="1181" y="1510"/>
      <point x="1268" y="1129"/>
      <point x="1268" y="800" type="curve" smooth="yes"/>
      <point x="1268" y="471"/>
      <point x="1180" y="93"/>
    </contour>
    <contour>
      <point x="771" y="-18" type="curve" smooth="yes"/>
      <point x="1252" y="-18"/>
      <point x="1407" y="385"/>
      <point x="1407" y="800" type="curve" smooth="yes"/>
      <point x="1407" y="1219"/>
      <point x="1254" y="1621"/>
      <point x="771" y="1621" type="curve" smooth="yes"/>
      <point x="291" y="1621"/>
      <point x="136" y="1210"/>
      <point x="136" y="800" type="curve" smooth="yes"/>
      <point x="136" y="385"/>
      <point x="290" y="-18"/>
    </contour>
  </outline>
</glyph>
<glyph name="P" format="1">
  <advance width="1328"/>
  <unicode hex="0050"/>
  <outline>
    <contour>
      <point x="689" y="1603" type="move" name="top"/>
    </contour>
    <contour>
      <point x="186" y="0" type="line"/>
      <point x="322" y="0" type="line"/>
      <point x="322" y="730" type="line"/>
      <point x="328" y="730"/>
      <point x="579" y="730"/>
      <point x="586" y="730" type="curve" smooth="yes"/>
      <point x="913" y="729"/>
      <point x="1263" y="764"/>
      <point x="1263" y="1173" type="curve" smooth="yes"/>
      <point x="1263" y="1571"/>
      <point x="937" y="1601"/>
      <point x="655" y="1601" type="curve" smooth="yes"/>
      <point x="186" y="1601" type="line"/>
    </contour>
    <contour>
      <point x="322" y="839" type="line"/>
      <point x="322" y="1494" type="line"/>
      <point x="661" y="1494" type="line" smooth="yes"/>
      <point x="931" y="1494"/>
      <point x="1129" y="1466"/>
      <point x="1129" y="1164" type="curve" smooth="yes"/>
      <point x="1129" y="863"/>
      <point x="892" y="839"/>
      <point x="635" y="839" type="curve" smooth="yes"/>
    </contour>
  </outline>
</glyph>
<glyph name="Q" format="1">
  <advance width="1542"/>
  <unicode hex="0051"/>
  <outline>
    <contour>
      <point x="1091" y="-426" type="line"/>
      <point x="1175" y="-364" type="line"/>
      <point x="894" y="-8" type="line"/>
      <point x="1279" y="55"/>
      <point x="1407" y="423"/>
      <point x="1407" y="800" type="curve" smooth="yes"/>
      <point x="1407" y="1219"/>
      <point x="1254" y="1621"/>
      <point x="771" y="1621" type="curve" smooth="yes"/>
      <point x="291" y="1621"/>
      <point x="136" y="1210"/>
      <point x="136" y="800" type="curve" smooth="yes"/>
      <point x="136" y="389"/>
      <point x="287" y="-11"/>
      <point x="758" y="-18" type="curve"/>
    </contour>
    <contour>
      <point x="771" y="93" type="curve" smooth="yes"/>
      <point x="361" y="93"/>
      <point x="274" y="471"/>
      <point x="274" y="800" type="curve" smooth="yes"/>
      <point x="274" y="1129"/>
      <point x="361" y="1510"/>
      <point x="771" y="1510" type="curve" smooth="yes"/>
      <point x="1181" y="1510"/>
      <point x="1268" y="1129"/>
      <point x="1268" y="800" type="curve" smooth="yes"/>
      <point x="1268" y="471"/>
      <point x="1180" y="93"/>
    </contour>
  </outline>
</glyph>
<glyph name="R" format="1">
  <advance width="1464"/>
  <unicode hex="0052"/>
  <outline>
    <contour>
      <point x="729" y="1603" type="move" name="top"/>
    </contour>
    <contour>
      <point x="687" y="0" type="move" name="bot"/>
    </contour>
    <contour>
      <point x="186" y="0" type="line"/>
      <point x="322" y="0" type="line"/>
      <point x="322" y="752" type="line"/>
      <point x="709" y="752" type="line" smooth="yes"/>
      <point x="1052" y="753"/>
      <point x="1089" y="669"/>
      <point x="1120" y="449" type="curve" smooth="yes"/>
      <point x="1188" y="0" type="line"/>
      <point x="1312" y="0" type="line"/>
      <point x="1248" y="457" type="line" smooth="yes"/>
      <point x="1220" y="664"/>
      <point x="1178" y="768"/>
      <point x="997" y="800" type="curve"/>
      <point x="1172" y="840"/>
      <point x="1282" y="960"/>
      <point x="1282" y="1185" type="curve" smooth="yes"/>
      <point x="1282" y="1579"/>
      <point x="962" y="1601"/>
      <point x="674" y="1601" type="curve" smooth="yes"/>
      <point x="186" y="1601" type="line"/>
    </contour>
    <contour>
      <point x="322" y="853" type="line"/>
      <point x="322" y="1494" type="line"/>
      <point x="675" y="1494" type="line" smooth="yes"/>
      <point x="935" y="1494"/>
      <point x="1153" y="1473"/>
      <point x="1153" y="1181" type="curve" smooth="yes"/>
      <point x="1153" y="892"/>
      <point x="955" y="853"/>
      <point x="706" y="853" type="curve" smooth="yes"/>
    </contour>
  </outline>
</glyph>
<glyph name="S" format="1">
  <advance width="1235"/>
  <unicode hex="0053"/>
  <outline>
    <contour>
      <point x="617" y="1603" type="move" name="top"/>
    </contour>
    <contour>
      <point x="582" y="0" type="move" name="bot"/>
    </contour>
    <contour>
      <point x="601" y="-14" type="curve" smooth="yes"/>
      <point x="895" y="-14"/>
      <point x="1131" y="92"/>
      <point x="1136" y="416" type="curve" smooth="yes"/>
      <point x="1142" y="741"/>
      <point x="966" y="803"/>
      <point x="711" y="880" type="curve" smooth="yes"/>
      <point x="533" y="935" type="line" smooth="yes"/>
      <point x="326" y="996"/>
      <point x="241" y="1060"/>
      <point x="241" y="1234" type="curve" smooth="yes"/>
      <point x="241" y="1448"/>
      <point x="414" y="1514"/>
      <point x="607" y="1514" type="curve" smooth="yes"/>
      <point x="780" y="1514"/>
      <point x="925" y="1461"/>
      <point x="1006" y="1396" type="curve"/>
      <point x="1058" y="1493" type="line"/>
      <point x="940" y="1580"/>
      <point x="783" y="1625"/>
      <point x="602" y="1625" type="curve" smooth="yes"/>
      <point x="328" y="1625"/>
      <point x="111" y="1512"/>
      <point x="111" y="1223" type="curve" smooth="yes"/>
      <point x="111" y="978"/>
      <point x="254" y="885"/>
      <point x="487" y="820" type="curve" smooth="yes"/>
      <point x="679" y="762" type="line" smooth="yes"/>
      <point x="920" y="693"/>
      <point x="1017" y="640"/>
      <point x="1011" y="417" type="curve" smooth="yes"/>
      <point x="1006" y="166"/>
      <point x="834" y="97"/>
      <point x="604" y="97" type="curve" smooth="yes"/>
      <point x="409" y="97"/>
      <point x="236" y="176"/>
      <point x="159" y="228" type="curve"/>
      <point x="107" y="126" type="line"/>
      <point x="210" y="60"/>
      <point x="413" y="-14"/>
    </contour>
  </outline>
</glyph>
<glyph name="T" format="1">
  <advance width="1051"/>
  <unicode hex="0054"/>
  <outline>
    <contour>
      <point x="538" y="1487" type="move" name="top"/>
    </contour>
    <contour>
      <point x="530" y="0" type="move" name="bot"/>
    </contour>
    <contour>
      <point x="463" y="0" type="line"/>
      <point x="596" y="0" type="line"/>
      <point x="596" y="1384" type="line"/>
      <point x="1039" y="1384" type="line"/>
      <point x="1039" y="1485" type="line"/>
      <point x="19" y="1485" type="line"/>
      <point x="19" y="1384" type="line"/>
      <point x="463" y="1384" type="line"/>
    </contour>
  </outline>
</glyph>
<glyph name="U" format="1">
  <advance width="1518"/>
  <unicode hex="0055"/>
  <outline>
    <contour>
      <point x="771" y="1603" type="move" name="top"/>
    </contour>
    <contour>
      <point x="850" y="0" type="move" name="ogonek"/>
    </contour>
    <contour>
      <point x="758" y="-18" type="curve" smooth="yes"/>
      <point x="1222" y="-18"/>
      <point x="1360" y="204"/>
      <point x="1360" y="721" type="curve" smooth="yes"/>
      <point x="1360" y="1599" type="line"/>
      <point x="1223" y="1599" type="line"/>
      <point x="1223" y="717" type="line" smooth="yes"/>
      <point x="1223" y="288"/>
      <point x="1138" y="89"/>
      <point x="758" y="89" type="curve" smooth="yes"/>
      <point x="379" y="89"/>
      <point x="293" y="287"/>
      <point x="293" y="717" type="curve" smooth="yes"/>
      <point x="293" y="1599" type="line"/>
      <point x="157" y="1599" type="line"/>
      <point x="157" y="721" type="line" smooth="yes"/>
      <point x="157" y="203"/>
      <point x="296" y="-18"/>
    </contour>
  </outline>
</glyph>
<glyph name="V" format="1">
  <advance width="1389"/>
  <unicode hex="0056"/>
  <outline>
    <contour>
      <point x="599" y="0" type="line"/>
      <point x="766" y="0" type="line"/>
      <point x="1341" y="1601" type="line"/>
      <point x="1207" y="1601" type="line"/>
      <point x="685" y="136" type="line"/>
      <point x="183" y="1601" type="line"/>
      <point x="49" y="1601" type="line"/>
    </contour>
  </outline>
</glyph>
<glyph name="W" format="1">
  <advance width="2103"/>
  <unicode hex="0057"/>
  <outline>
    <contour>
      <point x="1057" y="1603" type="move" name="top"/>
    </contour>
    <contour>
      <point x="484" y="0" type="line"/>
      <point x="647" y="0" type="line"/>
      <point x="1054" y="1381" type="line"/>
      <point x="1455" y="0" type="line"/>
      <point x="1618" y="0" type="line"/>
      <point x="2018" y="1601" type="line"/>
      <point x="1888" y="1601" type="line"/>
      <point x="1529" y="128" type="line"/>
      <point x="1126" y="1525" type="line"/>
      <point x="982" y="1525" type="line"/>
      <point x="573" y="128" type="line"/>
      <point x="214" y="1601" type="line"/>
      <point x="85" y="1601" type="line"/>
    </contour>
  </outline>
</glyph>
<glyph name="X" format="1">
  <advance width="1306"/>
  <unicode hex="0058"/>
  <outline>
    <contour>
      <point x="63" y="0" type="line"/>
      <point x="210" y="0" type="line"/>
      <point x="652" y="703" type="line"/>
      <point x="1090" y="0" type="line"/>
      <point x="1231" y="0" type="line"/>
      <point x="724" y="805" type="line"/>
      <point x="1226" y="1601" type="line"/>
      <point x="1095" y="1601" type="line"/>
      <point x="653" y="910" type="line"/>
      <point x="221" y="1601" type="line"/>
      <point x="82" y="1601" type="line"/>
      <point x="578" y="808" type="line"/>
    </contour>
  </outline>
</glyph>
<glyph name="Y" format="1">
  <advance width="1255"/>
  <unicode hex="0059"/>
  <outline>
    <contour>
      <point x="641" y="1603" type="move" name="top"/>
    </contour>
    <contour>
      <point x="557" y="0" type="line"/>
      <point x="692" y="0" type="line"/>
      <point x="692" y="676" type="line"/>
      <point x="1213" y="1601" type="line"/>
      <point x="1076" y="1601" type="line"/>
      <point x="627" y="811" type="line"/>
      <point x="182" y="1601" type="line"/>
      <point x="42" y="1601" type="line"/>
      <point x="557" y="676" type="line"/>
    </contour>
  </outline>
</glyph>
<glyph name="Z" format="1">
  <advance width="1182"/>
  <unicode hex="005A"/>
  <outline>
    <contour>
      <point x="645" y="1603" type="move" name="top"/>
    </contour>
    <contour>
      <point x="132" y="0" type="line"/>
      <point x="1099" y="0" type="line"/>
      <point x="1099" y="105" type="line"/>
      <point x="280" y="105" type="line"/>
      <point x="1101" y="1504" type="line"/>
      <point x="1101" y="1601" type="line"/>
      <point x="144" y="1601" type="line"/>
      <point x="144" y="1500" type="line"/>
      <point x="954" y="1500" type="line"/>
      <point x="132" y="103" type="line"/>
    </contour>
  </outline>
</glyph>
<glyph name="bracketleft" format="1">
  <advance width="882"/>
  <unicode hex="005B"/>
  <outline>
    <contour>
      <point x="169" y="-194" type="line"/>
      <point x="806" y="-194" type="line"/>
      <point x="806" y="-89" type="line"/>
      <point x="305" y="-89" type="line"/>
      <point x="305" y="1603" type="line"/>
      <point x="806" y="1603" type="line"/>
      <point x="806" y="1708" type="line"/>
      <point x="169" y="1708" type="line"/>
    </contour>
  </outline>
</glyph>
<glyph name="backslash" format="1">
  <advance width="667"/>
  <unicode hex="005C"/>
  <outline>
    <contour>
      <point x="582" y="-180" type="line"/>
      <point x="690" y="-139" type="line"/>
      <point x="51" y="1745" type="line"/>
      <point x="-55" y="1711" type="line"/>
    </contour>
  </outline>
</glyph>
<glyph name="bracketright" format="1">
  <advance width="876"/>
  <unicode hex="005D"/>
  <outline>
    <contour>
      <point x="70" y="-194" type="line"/>
      <point x="707" y="-194" type="line"/>
      <point x="707" y="1708" type="line"/>
      <point x="70" y="1708" type="line"/>
      <point x="70" y="1603" type="line"/>
      <point x="570" y="1603" type="line"/>
      <point x="570" y="-89" type="line"/>
      <point x="70" y="-89" type="line"/>
    </contour>
  </outline>
</glyph>
<glyph name="asciicircum" format="1">
  <advance width="1112"/>
  <unicode hex="005E"/>
  <outline>
    <contour>
      <point x="52" y="600" type="line"/>
      <point x="174" y="600" type="line"/>
      <point x="556" y="1425" type="line"/>
      <point x="938" y="600" type="line"/>
      <point x="1060" y="600" type="line"/>
      <point x="602" y="1603" type="line"/>
      <point x="509" y="1603" type="line"/>
    </contour>
  </outline>
</glyph>
<glyph name="underscore" format="1">
  <advance width="1201"/>
  <unicode hex="005F"/>
  <outline>
    <contour>
      <point x="139" y="-115" type="line"/>
      <point x="1061" y="-115" type="line"/>
      <point x="1061" y="-9" type="line"/>
      <point x="139" y="-9" type="line"/>
    </contour>
  </outline>
</glyph>
<glyph name="grave" format="1">
  <advance width="584"/>
  <unicode hex="0060"/>
  <outline>
    <contour>
      <point x="432" y="1170" type="move" name="_top"/>
    </contour>
    <contour>
      <point x="475" y="1356" type="line"/>
      <point x="503" y="1395" type="line"/>
      <point x="105" y="1713" type="line"/>
      <point x="27" y="1614" type="line"/>
    </contour>
  </outline>
</glyph>
<glyph name="a" format="1">
  <advance width="1213"/>
  <unicode hex="0061"/>
  <outline>
    <contour>
      <point x="587" y="1170" type="move" name="top"/>
    </contour>
    <contour>
      <point x="995" y="0" type="move" name="ogonek"/>
    </contour>
    <contour>
      <point x="503" y="-18" type="curve" smooth="yes"/>
      <point x="678" y="-18"/>
      <point x="811" y="51"/>
      <point x="919" y="186" type="curve"/>
      <point x="942" y="0" type="line"/>
      <point x="1039" y="0" type="line"/>
      <point x="1039" y="711" type="line" smooth="yes"/>
      <point x="1039" y="1071"/>
      <point x="874" y="1188"/>
      <point x="596" y="1188" type="curve" smooth="yes"/>
      <point x="413" y="1188"/>
      <point x="252" y="1128"/>
      <point x="171" y="1085" type="curve"/>
      <point x="210" y="989" type="line"/>
      <point x="279" y="1023"/>
      <point x="429" y="1084"/>
      <point x="600" y="1084" type="curve" smooth="yes"/>
      <point x="802" y="1084"/>
      <point x="905" y="987"/>
      <point x="905" y="721" type="curve" smooth="yes"/>
      <point x="905" y="654" type="line"/>
      <point x="819" y="682"/>
      <point x="680" y="695"/>
      <point x="573" y="695" type="curve" smooth="yes"/>
      <point x="280" y="695"/>
      <point x="112" y="582"/>
      <point x="116" y="334" type="curve" smooth="yes"/>
      <point x="119" y="92"/>
      <point x="282" y="-18"/>
    </contour>
    <contour>
      <point x="527" y="84" type="curve" smooth="yes"/>
      <point x="382" y="84"/>
      <point x="249" y="148"/>
      <point x="247" y="343" type="curve" smooth="yes"/>
      <point x="245" y="550"/>
      <point x="400" y="600"/>
      <point x="597" y="600" type="curve" smooth="yes"/>
      <point x="723" y="600"/>
      <point x="819" y="590"/>
      <point x="905" y="567" type="curve"/>
      <point x="905" y="265" type="line"/>
      <point x="799" y="154"/>
      <point x="687" y="84"/>
    </contour>
  </outline>
</glyph>
<glyph name="c" format="1">
  <advance width="1110"/>
  <unicode hex="0063"/>
  <outline>
    <contour>
      <point x="633" y="1170" type="move" name="top"/>
    </contour>
    <contour>
      <point x="647" y="0" type="move" name="bot"/>
    </contour>
    <contour>
      <point x="656" y="-18" type="curve" smooth="yes"/>
      <point x="793" y="-18"/>
      <point x="919" y="32"/>
      <point x="1015" y="119" type="curve"/>
      <point x="969" y="206" type="line"/>
      <point x="892" y="139"/>
      <point x="793" y="85"/>
      <point x="663" y="85" type="curve" smooth="yes"/>
      <point x="393" y="85"/>
      <point x="260" y="325"/>
      <point x="260" y="583" type="curve" smooth="yes"/>
      <point x="260" y="830"/>
      <point x="374" y="1079"/>
      <point x="643" y="1084" type="curve" smooth="yes"/>
      <point x="768" y="1086"/>
      <point x="884" y="1042"/>
      <point x="967" y="965" type="curve"/>
      <point x="1016" y="1050" type="line"/>
      <point x="911" y="1148"/>
      <point x="771" y="1190"/>
      <point x="641" y="1188" type="curve" smooth="yes"/>
      <point x="307" y="1184"/>
      <point x="128" y="901"/>
      <point x="128" y="585" type="curve" smooth="yes"/>
      <point x="128" y="271"/>
      <point x="310" y="-18"/>
    </contour>
  </outline>
</glyph>
<glyph name="d" format="1">
  <advance width="1283"/>
  <unicode hex="0064"/>
  <outline>
    <contour>
      <point x="611" y="1170" type="move" name="top"/>
    </contour>
    <contour>
      <point x="1037" y="1170" type="move" name="caron.alt"/>
    </contour>
    <contour>
      <point x="1009" y="1380" type="move" name="mid"/>
    </contour>
    <contour>
      <point x="623" y="-18" type="curve" smooth="yes"/>
      <point x="780" y="-18"/>
      <point x="898" y="45"/>
      <point x="979" y="142" type="curve"/>
      <point x="993" y="0" type="line"/>
      <point x="1099" y="0" type="line"/>
      <point x="1099" y="1642" type="line"/>
      <point x="965" y="1614" type="line"/>
      <point x="965" y="1028" type="line"/>
      <point x="880" y="1126"/>
      <point x="754" y="1188"/>
      <point x="609" y="1188" type="curve" smooth="yes"/>
      <point x="278" y="1188"/>
      <point x="126" y="908"/>
      <point x="126" y="582" type="curve" smooth="yes"/>
      <point x="126" y="288"/>
      <point x="269" y="-18"/>
    </contour>
    <contour>
      <point x="622" y="85" type="curve" smooth="yes"/>
      <point x="331" y="92"/>
      <point x="255" y="363"/>
      <point x="255" y="583" type="curve" smooth="yes"/>
      <point x="255" y="831"/>
      <point x="344" y="1083"/>
      <point x="621" y="1083" type="curve" smooth="yes"/>
      <point x="758" y="1083"/>
      <point x="875" y="1024"/>
      <point x="965" y="914" type="curve"/>
      <point x="966" y="245" type="line"/>
      <point x="884" y="141"/>
      <point x="770" y="80"/>
    </contour>
  </outline>
</glyph>
<glyph name="e" format="1">
  <advance width="1199"/>
  <unicode hex="0065"/>
  <outline>
    <contour>
      <point x="642" y="1170" type="move" name="top"/>
    </contour>
    <contour>
      <point x="747" y="0" type="move" name="ogonek"/>
    </contour>
    <contour>
      <point x="654" y="0" type="move" name="bot"/>
    </contour>
    <contour>
      <point x="656" y="-18" type="curve" smooth="yes"/>
      <point x="780" y="-18"/>
      <point x="953" y="29"/>
      <point x="1049" y="115" type="curve"/>
      <point x="1005" y="204" type="line"/>
      <point x="937" y="148"/>
      <point x="812" y="85"/>
      <point x="672" y="85" type="curve" smooth="yes"/>
      <point x="397" y="85"/>
      <point x="251" y="274"/>
      <point x="250" y="583" type="curve"/>
      <point x="1073" y="583" type="line"/>
      <point x="1076" y="598"/>
      <point x="1085" y="637"/>
      <point x="1085" y="687" type="curve" smooth="yes"/>
      <point x="1085" y="959"/>
      <point x="945" y="1188"/>
      <point x="643" y="1188" type="curve" smooth="yes"/>
      <point x="293" y="1188"/>
      <point x="119" y="913"/>
      <point x="119" y="591" type="curve" smooth="yes"/>
      <point x="119" y="247"/>
      <point x="298" y="-18"/>
    </contour>
    <contour>
      <point x="253" y="677" type="line"/>
      <point x="270" y="896"/>
      <point x="377" y="1084"/>
      <point x="645" y="1084" type="curve" smooth="yes"/>
      <point x="869" y="1084"/>
      <point x="962" y="906"/>
      <point x="962" y="716" type="curve" smooth="yes"/>
      <point x="962" y="677" type="line"/>
    </contour>
  </outline>
</glyph>
<glyph name="f" format="1">
  <advance width="786"/>
  <unicode hex="0066"/>
  <outline>
    <contour>
      <point x="325" y="1603" type="move" name="top"/>
    </contour>
    <contour>
      <point x="274" y="0" type="line"/>
      <point x="406" y="0" type="line"/>
      <point x="406" y="1082" type="line"/>
      <point x="744" y="1082" type="line"/>
      <point x="744" y="1170" type="line"/>
      <point x="406" y="1170" type="line"/>
      <point x="406" y="1235" type="line" smooth="yes"/>
      <point x="406" y="1449"/>
      <point x="465" y="1520"/>
      <point x="573" y="1527" type="curve" smooth="yes"/>
      <point x="631" y="1531"/>
      <point x="705" y="1512"/>
      <point x="755" y="1493" type="curve"/>
      <point x="783" y="1584" type="line"/>
      <point x="728" y="1608"/>
      <point x="643" y="1631"/>
      <point x="561" y="1628" type="curve" smooth="yes"/>
      <point x="393" y="1621"/>
      <point x="274" y="1528"/>
      <point x="274" y="1238" type="curve" smooth="yes"/>
      <point x="274" y="1170" type="line"/>
      <point x="74" y="1170" type="line"/>
      <point x="74" y="1082" type="line"/>
      <point x="274" y="1082" type="line"/>
    </contour>
  </outline>
</glyph>
<glyph name="g" format="1">
  <advance width="1210"/>
  <unicode hex="0067"/>
  <outline>
    <contour>
      <point x="596" y="1170" type="move" name="top"/>
    </contour>
    <contour>
      <point x="554" y="-386" type="curve" smooth="yes"/>
      <point x="880" y="-386"/>
      <point x="1112" y="-307"/>
      <point x="1112" y="-62" type="curve" smooth="yes"/>
      <point x="1112" y="199"/>
      <point x="945" y="235"/>
      <point x="715" y="235" type="curve" smooth="yes"/>
      <point x="354" y="235" type="line"/>
      <point x="354" y="235"/>
      <point x="307" y="261"/>
      <point x="307" y="345" type="curve" smooth="yes"/>
      <point x="307" y="407"/>
      <point x="354" y="493"/>
      <point x="360" y="505" type="curve"/>
      <point x="373" y="497"/>
      <point x="450" y="453"/>
      <point x="586" y="453" type="curve" smooth="yes"/>
      <point x="832" y="453"/>
      <point x="1012" y="587"/>
      <point x="1012" y="824" type="curve"/>
      <point x="1012" y="913"/>
      <point x="973" y="1001"/>
      <point x="925" y="1039" type="curve"/>
      <point x="1163" y="1070" type="line"/>
      <point x="1154" y="1168" type="line"/>
      <point x="1054" y="1167"/>
      <point x="960" y="1150"/>
      <point x="876" y="1106" type="curve"/>
      <point x="802" y="1164"/>
      <point x="699" y="1188"/>
      <point x="605" y="1188" type="curve" smooth="yes"/>
      <point x="314" y="1188"/>
      <point x="161" y="1025"/>
      <point x="161" y="823" type="curve" smooth="yes"/>
      <point x="161" y="640"/>
      <point x="281" y="551"/>
      <point x="311" y="532" type="curve"/>
      <point x="221" y="452"/>
      <point x="187" y="384"/>
      <point x="187" y="319" type="curve" smooth="yes"/>
      <point x="187" y="226"/>
      <point x="236" y="163"/>
      <point x="319" y="151" type="curve"/>
      <point x="223" y="111"/>
      <point x="165" y="24"/>
      <point x="165" y="-101" type="curve" smooth="yes"/>
      <point x="165" y="-347"/>
      <point x="352" y="-386"/>
    </contour>
    <contour>
      <point x="555" y="-284" type="curve" smooth="yes"/>
      <point x="389" y="-284"/>
      <point x="283" y="-244"/>
      <point x="283" y="-93" type="curve" smooth="yes"/>
      <point x="283" y="29"/>
      <point x="346" y="109"/>
      <point x="412" y="136" type="curve"/>
      <point x="731" y="136" type="line" smooth="yes"/>
      <point x="881" y="136"/>
      <point x="992" y="132"/>
      <point x="992" y="-67" type="curve" smooth="yes"/>
      <point x="992" y="-241"/>
      <point x="822" y="-284"/>
    </contour>
    <contour>
      <point x="589" y="547" type="curve" smooth="yes"/>
      <point x="374" y="547"/>
      <point x="283" y="659"/>
      <point x="283" y="824" type="curve" smooth="yes"/>
      <point x="283" y="971"/>
      <point x="374" y="1093"/>
      <point x="609" y="1093" type="curve" smooth="yes"/>
      <point x="812" y="1093"/>
      <point x="896" y="975"/>
      <point x="896" y="810" type="curve" smooth="yes"/>
      <point x="896" y="685"/>
      <point x="820" y="547"/>
    </contour>
  </outline>
</glyph>
<glyph name="h" format="1">
  <advance width="1306"/>
  <unicode hex="0068"/>
  <outline>
    <contour>
      <point x="744" y="1170" type="move" name="top"/>
    </contour>
    <contour>
      <point x="184" y="0" type="line"/>
      <point x="316" y="0" type="line"/>
      <point x="316" y="887" type="line"/>
      <point x="428" y="1000"/>
      <point x="566" y="1083"/>
      <point x="727" y="1083" type="curve" smooth="yes"/>
      <point x="961" y="1083"/>
      <point x="1002" y="913"/>
      <point x="1002" y="722" type="curve" smooth="yes"/>
      <point x="1002" y="0" type="line"/>
      <point x="1134" y="0" type="line"/>
      <point x="1134" y="728" type="line" smooth="yes"/>
      <point x="1134" y="968"/>
      <point x="1062" y="1188"/>
      <point x="743" y="1188" type="curve" smooth="yes"/>
      <point x="570" y="1188"/>
      <point x="433" y="1114"/>
      <point x="316" y="1001" type="curve"/>
      <point x="316" y="1642" type="line"/>
      <point x="184" y="1613" type="line"/>
    </contour>
  </outline>
</glyph>
<glyph name="i" format="1">
  <advance width="543"/>
  <unicode hex="0069"/>
  <outline>
    <contour>
      <point x="208" y="0" type="line"/>
      <point x="340" y="0" type="line"/>
      <point x="340" y="1170" type="line"/>
      <point x="208" y="1170" type="line"/>
    </contour>
    <contour>
      <point x="278" y="1350" type="curve" smooth="yes"/>
      <point x="332" y="1350"/>
      <point x="363" y="1392"/>
      <point x="363" y="1439" type="curve" smooth="yes"/>
      <point x="363" y="1484"/>
      <point x="332" y="1527"/>
      <point x="278" y="1527" type="curve" smooth="yes"/>
      <point x="224" y="1527"/>
      <point x="191" y="1484"/>
      <point x="191" y="1439" type="curve" smooth="yes"/>
      <point x="191" y="1392"/>
      <point x="224" y="1350"/>
    </contour>
  </outline>
</glyph>
<glyph name="j" format="1">
  <advance width="534"/>
  <unicode hex="006A"/>
  <outline>
    <contour>
      <point x="29" y="-420" type="line"/>
      <point x="284" y="-349"/>
      <point x="358" y="-266"/>
      <point x="358" y="78" type="curve" smooth="yes"/>
      <point x="358" y="1170" type="line"/>
      <point x="226" y="1170" type="line"/>
      <point x="226" y="87" type="line" smooth="yes"/>
      <point x="226" y="-201"/>
      <point x="213" y="-240"/>
      <point x="-6" y="-317" type="curve"/>
    </contour>
    <contour>
      <point x="294" y="1350" type="curve" smooth="yes"/>
      <point x="348" y="1350"/>
      <point x="379" y="1392"/>
      <point x="379" y="1439" type="curve" smooth="yes"/>
      <point x="379" y="1484"/>
      <point x="348" y="1527"/>
      <point x="294" y="1527" type="curve" smooth="yes"/>
      <point x="240" y="1527"/>
      <point x="207" y="1484"/>
      <point x="207" y="1439" type="curve" smooth="yes"/>
      <point x="207" y="1392"/>
      <point x="240" y="1350"/>
    </contour>
  </outline>
</glyph>
<glyph name="k" format="1">
  <advance width="1113"/>
  <unicode hex="006B"/>
  <outline>
    <contour>
      <point x="619" y="1170" type="move" name="top"/>
    </contour>
    <contour>
      <point x="628" y="0" type="move" name="bot"/>
    </contour>
    <contour>
      <point x="184" y="0" type="line"/>
      <point x="316" y="0" type="line"/>
      <point x="316" y="519" type="line"/>
      <point x="406" y="599" type="line"/>
      <point x="949" y="0" type="line"/>
      <point x="1102" y="0" type="line"/>
      <point x="508" y="656" type="line"/>
      <point x="1041" y="1170" type="line"/>
      <point x="882" y="1170" type="line"/>
      <point x="316" y="629" type="line"/>
      <point x="316" y="1642" type="line"/>
      <point x="184" y="1613" type="line"/>
    </contour>
  </outline>
</glyph>
<glyph name="l" format="1">
  <advance width="502"/>
  <unicode hex="006C"/>
  <outline>
    <contour>
      <point x="259" y="1603" type="move" name="top"/>
    </contour>
    <contour>
      <point x="326" y="1170" type="move" name="caron.alt"/>
    </contour>
    <contour>
      <point x="126" y="835" type="move" name="mid"/>
    </contour>
    <contour>
      <point x="190" y="0" type="line"/>
      <point x="322" y="0" type="line"/>
      <point x="322" y="1642" type="line"/>
      <point x="190" y="1613" type="line"/>
    </contour>
  </outline>
</glyph>
<glyph name="m" format="1">
  <advance width="2052"/>
  <unicode hex="006D"/>
  <outline>
    <contour>
      <point x="1075" y="1170" type="move" name="top"/>
    </contour>
    <contour>
      <point x="184" y="0" type="line"/>
      <point x="316" y="0" type="line"/>
      <point x="315" y="886" type="line"/>
      <point x="442" y="1021"/>
      <point x="580" y="1083"/>
      <point x="717" y="1083" type="curve" smooth="yes"/>
      <point x="946" y="1083"/>
      <point x="965" y="922"/>
      <point x="965" y="735" type="curve" smooth="yes"/>
      <point x="965" y="0" type="line"/>
      <point x="1099" y="0" type="line"/>
      <point x="1099" y="743" type="line" smooth="yes"/>
      <point x="1099" y="783"/>
      <point x="1097" y="830"/>
      <point x="1090" y="879" type="curve"/>
      <point x="1226" y="1033"/>
      <point x="1360" y="1083"/>
      <point x="1500" y="1083" type="curve" smooth="yes"/>
      <point x="1729" y="1083"/>
      <point x="1746" y="922"/>
      <point x="1746" y="735" type="curve" smooth="yes"/>
      <point x="1746" y="0" type="line"/>
      <point x="1880" y="0" type="line"/>
      <point x="1880" y="740" type="line" smooth="yes"/>
      <point x="1880" y="969"/>
      <point x="1814" y="1188"/>
      <point x="1516" y="1188" type="curve" smooth="yes"/>
      <point x="1356" y="1188"/>
      <point x="1199" y="1134"/>
      <point x="1067" y="973" type="curve"/>
      <point x="1027" y="1092"/>
      <point x="935" y="1188"/>
      <point x="734" y="1188" type="curve" smooth="yes"/>
      <point x="572" y="1188"/>
      <point x="435" y="1132"/>
      <point x="303" y="985" type="curve"/>
      <point x="282" y="1170" type="line"/>
      <point x="184" y="1170" type="line"/>
    </contour>
  </outline>
</glyph>
<glyph name="n" format="1">
  <advance width="1307"/>
  <unicode hex="006E"/>
  <outline>
    <contour>
      <point x="707" y="1170" type="move" name="top"/>
    </contour>
    <contour>
      <point x="679" y="0" type="move" name="bot"/>
    </contour>
    <contour>
      <point x="184" y="0" type="line"/>
      <point x="316" y="0" type="line"/>
      <point x="316" y="887" type="line"/>
      <point x="427" y="999"/>
      <point x="568" y="1083"/>
      <point x="729" y="1083" type="curve" smooth="yes"/>
      <point x="964" y="1083"/>
      <point x="1002" y="913"/>
      <point x="1002" y="721" type="curve" smooth="yes"/>
      <point x="1002" y="0" type="line"/>
      <point x="1134" y="0" type="line"/>
      <point x="1134" y="726" type="line" smooth="yes"/>
      <point x="1134" y="968"/>
      <point x="1062" y="1188"/>
      <point x="744" y="1188" type="curve" smooth="yes"/>
      <point x="563" y="1188"/>
      <point x="422" y="1108"/>
      <point x="303" y="989" type="curve"/>
      <point x="282" y="1170" type="line"/>
      <point x="184" y="1170" type="line"/>
    </contour>
  </outline>
</glyph>
<glyph name="o" format="1">
  <advance width="1291"/>
  <unicode hex="006F"/>
  <outline>
    <contour>
      <point x="646" y="1170" type="move" name="top"/>
    </contour>
    <contour>
      <point x="708" y="0" type="move" name="ogonek"/>
    </contour>
    <contour>
      <point x="646" y="88" type="curve" smooth="yes"/>
      <point x="363" y="88"/>
      <point x="258" y="331"/>
      <point x="258" y="584" type="curve" smooth="yes"/>
      <point x="258" y="809"/>
      <point x="348" y="1083"/>
      <point x="646" y="1083" type="curve" smooth="yes"/>
      <point x="946" y="1083"/>
      <point x="1034" y="809"/>
      <point x="1034" y="584" type="curve" smooth="yes"/>
      <point x="1034" y="331"/>
      <point x="930" y="88"/>
    </contour>
    <contour>
      <point x="646" y="-18" type="curve" smooth="yes"/>
      <point x="1002" y="-18"/>
      <point x="1165" y="259"/>
      <point x="1165" y="582" type="curve" smooth="yes"/>
      <point x="1165" y="901"/>
      <point x="1003" y="1188"/>
      <point x="646" y="1188" type="curve" smooth="yes"/>
      <point x="288" y="1188"/>
      <point x="126" y="901"/>
      <point x="126" y="582" type="curve" smooth="yes"/>
      <point x="126" y="259"/>
      <point x="289" y="-18"/>
    </contour>
  </outline>
</glyph>
<glyph name="p" format="1">
  <advance width="1267"/>
  <unicode hex="0070"/>
  <outline>
    <contour>
      <point x="669" y="1170" type="move" name="top"/>
    </contour>
    <contour>
      <point x="172" y="-508" type="line"/>
      <point x="306" y="-485" type="line"/>
      <point x="306" y="134" type="line"/>
      <point x="385" y="40"/>
      <point x="502" y="-18"/>
      <point x="651" y="-18" type="curve" smooth="yes"/>
      <point x="1005" y="-18"/>
      <point x="1148" y="289"/>
      <point x="1148" y="582" type="curve" smooth="yes"/>
      <point x="1148" y="907"/>
      <point x="1000" y="1188"/>
      <point x="668" y="1188" type="curve" smooth="yes"/>
      <point x="514" y="1188"/>
      <point x="380" y="1125"/>
      <point x="295" y="1018" type="curve"/>
      <point x="277" y="1170" type="line"/>
      <point x="172" y="1170" type="line"/>
    </contour>
    <contour>
      <point x="644" y="84" type="curve" smooth="yes"/>
      <point x="499" y="84"/>
      <point x="385" y="143"/>
      <point x="306" y="249" type="curve"/>
      <point x="306" y="917" type="line"/>
      <point x="397" y="1029"/>
      <point x="518" y="1083"/>
      <point x="657" y="1083" type="curve" smooth="yes"/>
      <point x="935" y="1082"/>
      <point x="1019" y="829"/>
      <point x="1019" y="583" type="curve" smooth="yes"/>
      <point x="1019" y="335"/>
      <point x="931" y="84"/>
    </contour>
  </outline>
</glyph>
<glyph name="q" format="1">
  <advance width="1247"/>
  <unicode hex="0071"/>
  <outline>
    <contour>
      <point x="1095" y="-498" type="line"/>
      <point x="1095" y="1170" type="line"/>
      <point x="990" y="1170" type="line"/>
      <point x="972" y="1018" type="line"/>
      <point x="887" y="1125"/>
      <point x="753" y="1188"/>
      <point x="599" y="1188" type="curve" smooth="yes"/>
      <point x="267" y="1188"/>
      <point x="119" y="907"/>
      <point x="119" y="582" type="curve" smooth="yes"/>
      <point x="119" y="289"/>
      <point x="262" y="-18"/>
      <point x="616" y="-18" type="curve" smooth="yes"/>
      <point x="766" y="-18"/>
      <point x="882" y="40"/>
      <point x="961" y="134" type="curve"/>
      <point x="961" y="-495" type="line"/>
    </contour>
    <contour>
      <point x="623" y="84" type="curve" smooth="yes"/>
      <point x="336" y="84"/>
      <point x="248" y="335"/>
      <point x="248" y="583" type="curve" smooth="yes"/>
      <point x="248" y="829"/>
      <point x="332" y="1082"/>
      <point x="610" y="1083" type="curve" smooth="yes"/>
      <point x="749" y="1083"/>
      <point x="870" y="1030"/>
      <point x="961" y="917" type="curve"/>
      <point x="961" y="250" type="line"/>
      <point x="882" y="143"/>
      <point x="767" y="84"/>
    </contour>
  </outline>
</glyph>
<glyph name="r" format="1">
  <advance width="760"/>
  <unicode hex="0072"/>
  <outline>
    <contour>
      <point x="432" y="1170" type="move" name="top"/>
    </contour>
    <contour>
      <point x="381" y="0" type="move" name="bot"/>
    </contour>
    <contour>
      <point x="164" y="0" type="line"/>
      <point x="296" y="0" type="line"/>
      <point x="293" y="909" type="line"/>
      <point x="406" y="1016"/>
      <point x="559" y="1065"/>
      <point x="694" y="1070" type="curve"/>
      <point x="687" y="1185" type="line"/>
      <point x="568" y="1185"/>
      <point x="403" y="1124"/>
      <point x="283" y="987" type="curve"/>
      <point x="262" y="1170" type="line"/>
      <point x="164" y="1170" type="line"/>
    </contour>
  </outline>
</glyph>
<glyph name="s" format="1">
  <advance width="1020"/>
  <unicode hex="0073"/>
  <outline>
    <contour>
      <point x="531" y="1170" type="move" name="top"/>
    </contour>
    <contour>
      <point x="528" y="0" type="move" name="bot"/>
    </contour>
    <contour>
      <point x="520" y="-18" type="curve" smooth="yes"/>
      <point x="736" y="-18"/>
      <point x="911" y="74"/>
      <point x="916" y="315" type="curve" smooth="yes"/>
      <point x="922" y="532"/>
      <point x="789" y="596"/>
      <point x="637" y="644" type="curve" smooth="yes"/>
      <point x="459" y="701" type="line" smooth="yes"/>
      <point x="324" y="745"/>
      <point x="255" y="775"/>
      <point x="255" y="889" type="curve" smooth="yes"/>
      <point x="256" y="1044"/>
      <point x="392" y="1083"/>
      <point x="507" y="1083" type="curve" smooth="yes"/>
      <point x="628" y="1083"/>
      <point x="736" y="1052"/>
      <point x="818" y="992" type="curve"/>
      <point x="867" y="1078" type="line"/>
      <point x="784" y="1146"/>
      <point x="647" y="1188"/>
      <point x="495" y="1188" type="curve" smooth="yes"/>
      <point x="326" y="1188"/>
      <point x="129" y="1110"/>
      <point x="129" y="884" type="curve" smooth="yes"/>
      <point x="129" y="695"/>
      <point x="268" y="633"/>
      <point x="421" y="588" type="curve" smooth="yes"/>
      <point x="595" y="535" type="line" smooth="yes"/>
      <point x="729" y="495"/>
      <point x="795" y="454"/>
      <point x="791" y="303" type="curve" smooth="yes"/>
      <point x="785" y="129"/>
      <point x="647" y="88"/>
      <point x="519" y="88" type="curve" smooth="yes"/>
      <point x="404" y="88"/>
      <point x="279" y="134"/>
      <point x="189" y="202" type="curve"/>
      <point x="143" y="110" type="line"/>
      <point x="216" y="43"/>
      <point x="370" y="-18"/>
    </contour>
  </outline>
</glyph>
<glyph name="t" format="1">
  <advance width="803"/>
  <unicode hex="0074"/>
  <outline>
    <contour>
      <point x="303" y="1514" type="move" name="top"/>
    </contour>
    <contour>
      <point x="329" y="1534" type="move" name="caron.alt"/>
    </contour>
    <contour>
      <point x="494" y="0" type="move" name="bot"/>
    </contour>
    <contour>
      <point x="358" y="683" type="move" name="mid"/>
    </contour>
    <contour>
      <point x="531" y="-11" type="curve" smooth="yes"/>
      <point x="601" y="-12"/>
      <point x="675" y="-1"/>
      <point x="744" y="25" type="curve"/>
      <point x="726" y="119" type="line"/>
      <point x="668" y="101"/>
      <point x="613" y="91"/>
      <point x="561" y="91" type="curve" smooth="yes"/>
      <point x="441" y="91"/>
      <point x="382" y="150"/>
      <point x="382" y="252" type="curve" smooth="yes"/>
      <point x="382" y="1080" type="line"/>
      <point x="719" y="1080" type="line"/>
      <point x="719" y="1170" type="line"/>
      <point x="382" y="1170" type="line"/>
      <point x="382" y="1568" type="line"/>
      <point x="267" y="1538" type="line"/>
      <point x="252" y="1170" type="line"/>
      <point x="62" y="1170" type="line"/>
      <point x="62" y="1080" type="line"/>
      <point x="250" y="1080" type="line"/>
      <point x="250" y="252" type="line" smooth="yes"/>
      <point x="250" y="77"/>
      <point x="362" y="-9"/>
    </contour>
  </outline>
</glyph>
<glyph name="u" format="1">
  <advance width="1313"/>
  <unicode hex="0075"/>
  <outline>
    <contour>
      <point x="662" y="1170" type="move" name="top"/>
    </contour>
    <contour>
      <point x="1081" y="0" type="move" name="ogonek"/>
    </contour>
    <contour>
      <point x="574" y="-18" type="curve" smooth="yes"/>
      <point x="765" y="-18"/>
      <point x="912" y="66"/>
      <point x="1008" y="188" type="curve"/>
      <point x="1030" y="0" type="line"/>
      <point x="1129" y="0" type="line"/>
      <point x="1129" y="1170" type="line"/>
      <point x="994" y="1170" type="line"/>
      <point x="994" y="293" type="line"/>
      <point x="884" y="160"/>
      <point x="768" y="88"/>
      <point x="578" y="88" type="curve" smooth="yes"/>
      <point x="347" y="88"/>
      <point x="307" y="248"/>
      <point x="307" y="443" type="curve" smooth="yes"/>
      <point x="307" y="1170" type="line"/>
      <point x="172" y="1170" type="line"/>
      <point x="172" y="438" type="line" smooth="yes"/>
      <point x="172" y="184"/>
      <point x="259" y="-18"/>
    </contour>
  </outline>
</glyph>
<glyph name="v" format="1">
  <advance width="1043"/>
  <unicode hex="0076"/>
  <outline>
    <contour>
      <point x="461" y="0" type="line"/>
      <point x="581" y="0" type="line"/>
      <point x="985" y="1097" type="line"/>
      <point x="858" y="1097" type="line"/>
      <point x="526" y="155" type="line"/>
      <point x="189" y="1097" type="line"/>
      <point x="58" y="1097" type="line"/>
    </contour>
  </outline>
</glyph>
<glyph name="w" format="1">
  <advance width="1651"/>
  <unicode hex="0077"/>
  <outline>
    <contour>
      <point x="834" y="1170" type="move" name="top"/>
    </contour>
    <contour>
      <point x="1130" y="0" type="line"/>
      <point x="1276" y="0" type="line"/>
      <point x="1597" y="1170" type="line"/>
      <point x="1472" y="1170" type="line"/>
      <point x="1206" y="114" type="line"/>
      <point x="901" y="1170" type="line"/>
      <point x="759" y="1170" type="line"/>
      <point x="453" y="114" type="line"/>
      <point x="177" y="1170" type="line"/>
      <point x="54" y="1170" type="line"/>
      <point x="376" y="1" type="line"/>
      <point x="524" y="1" type="line"/>
      <point x="832" y="1046" type="line"/>
    </contour>
  </outline>
</glyph>
<glyph name="x" format="1">
  <advance width="1088"/>
  <unicode hex="0078"/>
  <outline>
    <contour>
      <point x="76" y="0" type="line"/>
      <point x="215" y="0" type="line"/>
      <point x="540" y="504" type="line"/>
      <point x="871" y="0" type="line"/>
      <point x="1008" y="0" type="line"/>
      <point x="607" y="586" type="line"/>
      <point x="997" y="1170" type="line"/>
      <point x="865" y="1170" type="line"/>
      <point x="538" y="678" type="line"/>
      <point x="209" y="1170" type="line"/>
      <point x="76" y="1170" type="line"/>
      <point x="470" y="588" type="line"/>
    </contour>
  </outline>
</glyph>
<glyph name="y" format="1">
  <advance width="1121"/>
  <unicode hex="0079"/>
  <outline>
    <contour>
      <point x="581" y="1170" type="move" name="top"/>
    </contour>
    <contour>
      <point x="195" y="-413" type="line"/>
      <point x="477" y="-413"/>
      <point x="530" y="-242"/>
      <point x="606" y="-39" type="curve" smooth="yes"/>
      <point x="1056" y="1170" type="line"/>
      <point x="920" y="1170" type="line"/>
      <point x="568" y="170" type="line"/>
      <point x="191" y="1170" type="line"/>
      <point x="58" y="1170" type="line"/>
      <point x="506" y="25" type="line"/>
      <point x="430" y="-209"/>
      <point x="399" y="-314"/>
      <point x="167" y="-324" type="curve"/>
    </contour>
  </outline>
</glyph>
<glyph name="z" format="1">
  <advance width="956"/>
  <unicode hex="007A"/>
  <outline>
    <contour>
      <point x="502" y="1170" type="move" name="top"/>
    </contour>
    <contour>
      <point x="105" y="0" type="line"/>
      <point x="868" y="0" type="line"/>
      <point x="868" y="107" type="line"/>
      <point x="246" y="107" type="line"/>
      <point x="871" y="1072" type="line"/>
      <point x="872" y="1170" type="line"/>
      <point x="136" y="1170" type="line"/>
      <point x="136" y="1071" type="line"/>
      <point x="739" y="1071" type="line"/>
      <point x="105" y="107" type="line"/>
    </contour>
  </outline>
</glyph>
<glyph name="braceleft" format="1">
  <advance width="827"/>
  <unicode hex="007B"/>
  <outline>
    <contour>
      <point x="706" y="-139" type="curve"/>
      <point x="706" y="-52" type="line"/>
      <point x="493" y="-46"/>
      <point x="469" y="40"/>
      <point x="466" y="298" type="curve" smooth="yes"/>
      <point x="462" y="682"/>
      <point x="400" y="729"/>
      <point x="242" y="750" type="curve"/>
      <point x="400" y="768"/>
      <point x="462" y="817"/>
      <point x="466" y="1202" type="curve" smooth="yes"/>
      <point x="469" y="1461"/>
      <point x="497" y="1546"/>
      <point x="706" y="1552" type="curve"/>
      <point x="706" y="1638" type="line"/>
      <point x="415" y="1634"/>
      <point x="335" y="1558"/>
      <point x="335" y="1191" type="curve" smooth="yes"/>
      <point x="335" y="873"/>
      <point x="310" y="808"/>
      <point x="117" y="804" type="curve"/>
      <point x="117" y="695" type="line"/>
      <point x="307" y="691"/>
      <point x="335" y="625"/>
      <point x="335" y="309" type="curve" smooth="yes"/>
      <point x="335" y="-59"/>
      <point x="415" y="-135"/>
    </contour>
  </outline>
</glyph>
<glyph name="bar" format="1">
  <advance width="428"/>
  <unicode hex="007C"/>
  <outline>
    <contour>
      <point x="146" y="-100" type="line"/>
      <point x="282" y="-100" type="line"/>
      <point x="282" y="1706" type="line"/>
      <point x="146" y="1706" type="line"/>
    </contour>
  </outline>
</glyph>
<glyph name="braceright" format="1">
  <advance width="827"/>
  <unicode hex="007D"/>
  <outline>
    <contour>
      <point x="121" y="-139" type="line"/>
      <point x="412" y="-135"/>
      <point x="493" y="-59"/>
      <point x="493" y="309" type="curve" smooth="yes"/>
      <point x="493" y="625"/>
      <point x="520" y="691"/>
      <point x="711" y="695" type="curve"/>
      <point x="711" y="804" type="line"/>
      <point x="517" y="808"/>
      <point x="493" y="873"/>
      <point x="493" y="1191" type="curve" smooth="yes"/>
      <point x="493" y="1558"/>
      <point x="412" y="1634"/>
      <point x="121" y="1638" type="curve"/>
      <point x="121" y="1552" type="line"/>
      <point x="330" y="1546"/>
      <point x="358" y="1461"/>
      <point x="361" y="1202" type="curve" smooth="yes"/>
      <point x="366" y="817"/>
      <point x="427" y="768"/>
      <point x="586" y="750" type="curve"/>
      <point x="427" y="729"/>
      <point x="366" y="682"/>
      <point x="361" y="298" type="curve" smooth="yes"/>
      <point x="358" y="40"/>
      <point x="334" y="-46"/>
      <point x="121" y="-52" type="curve"/>
    </contour>
  </outline>
</glyph>
<glyph name="asciitilde" format="1">
  <advance width="925"/>
  <unicode hex="007E"/>
  <outline>
    <contour>
      <point x="102" y="659" type="curve"/>
      <point x="156" y="659" type="line"/>
      <point x="156" y="747"/>
      <point x="190" y="776"/>
      <point x="245" y="776" type="curve" smooth="yes"/>
      <point x="352" y="776"/>
      <point x="536" y="664"/>
      <point x="691" y="664" type="curve" smooth="yes"/>
      <point x="787" y="664"/>
      <point x="838" y="711"/>
      <point x="838" y="888" type="curve"/>
      <point x="780" y="888" type="line"/>
      <point x="780" y="797"/>
      <point x="745" y="767"/>
      <point x="691" y="767" type="curve" smooth="yes"/>
      <point x="587" y="767"/>
      <point x="410" y="877"/>
      <point x="261" y="877" type="curve" smooth="yes"/>
      <point x="167" y="877"/>
      <point x="102" y="827"/>
    </contour>
  </outline>
</glyph>
<glyph name="cent" format="1">
  <advance width="1082"/>
  <unicode hex="00A2"/>
  <outline>
    <contour>
      <point x="592" y="-205" type="line"/>
      <point x="671" y="-205" type="line"/>
      <point x="671" y="1440" type="line"/>
      <point x="592" y="1440" type="line"/>
    </contour>
    <component base="c" yScale="0.918" yOffset="99"/>
  </outline>
</glyph>
<glyph name="sterling" format="1">
  <advance width="1042"/>
  <unicode hex="00A3"/>
  <outline>
    <contour>
      <point x="141" y="0" type="line"/>
      <point x="926" y="0" type="line"/>
      <point x="926" y="95" type="line"/>
      <point x="272" y="95" type="line"/>
      <point x="390" y="203"/>
      <point x="450" y="325"/>
      <point x="450" y="445" type="curve" smooth="yes"/>
      <point x="450" y="502"/>
      <point x="437" y="559"/>
      <point x="410" y="613" type="curve"/>
      <point x="841" y="613" type="line"/>
      <point x="841" y="690" type="line"/>
      <point x="380" y="690" type="line"/>
      <point x="311" y="794"/>
      <point x="277" y="897"/>
      <point x="277" y="980" type="curve" smooth="yes"/>
      <point x="277" y="1170"/>
      <point x="442" y="1221"/>
      <point x="577" y="1221" type="curve" smooth="yes"/>
      <point x="684" y="1221"/>
      <point x="795" y="1191"/>
      <point x="894" y="1134" type="curve"/>
      <point x="932" y="1223" type="line"/>
      <point x="829" y="1289"/>
      <point x="696" y="1324"/>
      <point x="565" y="1324" type="curve" smooth="yes"/>
      <point x="378" y="1324"/>
      <point x="155" y="1244"/>
      <point x="155" y="987" type="curve" smooth="yes"/>
      <point x="155" y="894"/>
      <point x="190" y="789"/>
      <point x="262" y="690" type="curve"/>
      <point x="87" y="690" type="line"/>
      <point x="87" y="613" type="line"/>
      <point x="299" y="613" type="line"/>
      <point x="325" y="558"/>
      <point x="338" y="505"/>
      <point x="338" y="453" type="curve" smooth="yes"/>
      <point x="338" y="321"/>
      <point x="261" y="195"/>
      <point x="141" y="88" type="curve"/>
    </contour>
  </outline>
</glyph>
<glyph name="currency" format="1">
  <advance width="1123"/>
  <unicode hex="00A4"/>
  <outline>
    <contour>
      <point x="163" y="492" type="line"/>
      <point x="316" y="645" type="line"/>
      <point x="381" y="600"/>
      <point x="462" y="577"/>
      <point x="553" y="577" type="curve" smooth="yes"/>
      <point x="651" y="577"/>
      <point x="736" y="604"/>
      <point x="803" y="654" type="curve"/>
      <point x="966" y="492" type="line"/>
      <point x="1045" y="572" type="line"/>
      <point x="883" y="733" type="line"/>
      <point x="934" y="800"/>
      <point x="962" y="884"/>
      <point x="962" y="980" type="curve" smooth="yes"/>
      <point x="962" y="1072"/>
      <point x="936" y="1153"/>
      <point x="888" y="1217" type="curve"/>
      <point x="1045" y="1374" type="line"/>
      <point x="966" y="1453" type="line"/>
      <point x="808" y="1297" type="line"/>
      <point x="743" y="1344"/>
      <point x="660" y="1369"/>
      <point x="566" y="1369" type="curve" smooth="yes"/>
      <point x="472" y="1369"/>
      <point x="388" y="1344"/>
      <point x="321" y="1296" type="curve"/>
      <point x="163" y="1453" type="line"/>
      <point x="84" y="1374" type="line"/>
      <point x="240" y="1218" type="line"/>
      <point x="186" y="1151"/>
      <point x="157" y="1064"/>
      <point x="157" y="966" type="curve" smooth="yes"/>
      <point x="157" y="872"/>
      <point x="185" y="789"/>
      <point x="235" y="723" type="curve"/>
      <point x="84" y="572" type="line"/>
    </contour>
    <contour>
      <point x="556" y="680" type="curve" smooth="yes"/>
      <point x="391" y="680"/>
      <point x="273" y="801"/>
      <point x="273" y="970" type="curve" smooth="yes"/>
      <point x="273" y="1142"/>
      <point x="395" y="1265"/>
      <point x="563" y="1265" type="curve" smooth="yes"/>
      <point x="728" y="1265"/>
      <point x="846" y="1145"/>
      <point x="846" y="976" type="curve" smooth="yes"/>
      <point x="846" y="805"/>
      <point x="724" y="680"/>
    </contour>
  </outline>
</glyph>
<glyph name="yen" format="1">
  <advance width="1235"/>
  <unicode hex="00A5"/>
  <outline>
    <contour>
      <point x="1204" y="1604" type="line"/>
      <point x="1066" y="1604" type="line"/>
      <point x="617" y="744" type="line"/>
      <point x="168" y="1604" type="line"/>
      <point x="30" y="1604" type="line"/>
      <point x="513" y="683" type="line"/>
      <point x="252" y="683" type="line"/>
      <point x="252" y="601" type="line"/>
      <point x="549" y="601" type="line"/>
      <point x="549" y="477" type="line"/>
      <point x="252" y="477" type="line"/>
      <point x="252" y="397" type="line"/>
      <point x="549" y="397" type="line"/>
      <point x="549" y="0" type="line"/>
      <point x="684" y="0" type="line"/>
      <point x="684" y="397" type="line"/>
      <point x="973" y="397" type="line"/>
      <point x="973" y="477" type="line"/>
      <point x="684" y="477" type="line"/>
      <point x="684" y="601" type="line"/>
      <point x="973" y="601" type="line"/>
      <point x="973" y="683" type="line"/>
      <point x="716" y="683" type="line"/>
    </contour>
  </outline>
</glyph>
<glyph name="brokenbar" format="1">
  <advance width="515"/>
  <unicode hex="00A6"/>
  <outline>
    <contour>
      <point x="192" y="-98" type="line"/>
      <point x="317" y="-98" type="line"/>
      <point x="317" y="574" type="line"/>
      <point x="192" y="574" type="line"/>
    </contour>
    <contour>
      <point x="192" y="932" type="line"/>
      <point x="317" y="932" type="line"/>
      <point x="317" y="1604" type="line"/>
      <point x="192" y="1604" type="line"/>
    </contour>
  </outline>
</glyph>
<glyph name="section" format="1">
  <advance width="941"/>
  <unicode hex="00A7"/>
  <outline>
    <contour>
      <point x="461" y="-91" type="curve" smooth="yes"/>
      <point x="657" y="-91"/>
      <point x="860" y="-3"/>
      <point x="860" y="217" type="curve" smooth="yes"/>
      <point x="860" y="405"/>
      <point x="718" y="475"/>
      <point x="570" y="513" type="curve"/>
      <point x="702" y="517"/>
      <point x="858" y="601"/>
      <point x="858" y="753" type="curve" smooth="yes"/>
      <point x="858" y="952"/>
      <point x="719" y="1005"/>
      <point x="565" y="1055" type="curve" smooth="yes"/>
      <point x="440" y="1096" type="line" smooth="yes"/>
      <point x="304" y="1141"/>
      <point x="226" y="1190"/>
      <point x="226" y="1288" type="curve" smooth="yes"/>
      <point x="226" y="1440"/>
      <point x="391" y="1451"/>
      <point x="469" y="1451" type="curve" smooth="yes"/>
      <point x="585" y="1451"/>
      <point x="676" y="1420"/>
      <point x="764" y="1365" type="curve"/>
      <point x="810" y="1465" type="line"/>
      <point x="727" y="1526"/>
      <point x="580" y="1566"/>
      <point x="464" y="1566" type="curve" smooth="yes"/>
      <point x="312" y="1566"/>
      <point x="102" y="1511"/>
      <point x="102" y="1289" type="curve" smooth="yes"/>
      <point x="102" y="1107"/>
      <point x="237" y="1040"/>
      <point x="403" y="999" type="curve"/>
      <point x="285" y="991"/>
      <point x="102" y="935"/>
      <point x="102" y="763" type="curve" smooth="yes"/>
      <point x="102" y="546"/>
      <point x="264" y="504"/>
      <point x="391" y="470" type="curve" smooth="yes"/>
      <point x="480" y="447" type="line" smooth="yes"/>
      <point x="623" y="410"/>
      <point x="724" y="354"/>
      <point x="723" y="215" type="curve" smooth="yes"/>
      <point x="723" y="54"/>
      <point x="554" y="23"/>
      <point x="449" y="23" type="curve" smooth="yes"/>
      <point x="341" y="23"/>
      <point x="227" y="68"/>
      <point x="165" y="115" type="curve"/>
      <point x="116" y="6" type="line"/>
      <point x="185" y="-43"/>
      <point x="334" y="-91"/>
    </contour>
    <contour>
      <point x="476" y="584" type="curve" smooth="yes"/>
      <point x="368" y="584"/>
      <point x="218" y="604"/>
      <point x="218" y="755" type="curve" smooth="yes"/>
      <point x="218" y="914"/>
      <point x="376" y="923"/>
      <point x="475" y="923" type="curve" smooth="yes"/>
      <point x="585" y="923"/>
      <point x="736" y="915"/>
      <point x="736" y="755" type="curve" smooth="yes"/>
      <point x="736" y="605"/>
      <point x="585" y="584"/>
    </contour>
  </outline>
</glyph>
<glyph name="dieresis" format="1">
  <advance width="763"/>
  <unicode hex="00A8"/>
  <outline>
    <contour>
      <point x="395" y="1170" type="move" name="_top"/>
    </contour>
    <contour>
      <point x="172" y="1341" type="curve" smooth="yes"/>
      <point x="223" y="1341"/>
      <point x="252" y="1376"/>
      <point x="252" y="1431" type="curve" smooth="yes"/>
      <point x="252" y="1486"/>
      <point x="223" y="1521"/>
      <point x="172" y="1521" type="curve" smooth="yes"/>
      <point x="119" y="1521"/>
      <point x="86" y="1486"/>
      <point x="86" y="1431" type="curve" smooth="yes"/>
      <point x="86" y="1376"/>
      <point x="118" y="1341"/>
    </contour>
    <contour>
      <point x="604" y="1341" type="curve" smooth="yes"/>
      <point x="655" y="1341"/>
      <point x="684" y="1376"/>
      <point x="684" y="1431" type="curve" smooth="yes"/>
      <point x="684" y="1486"/>
      <point x="655" y="1521"/>
      <point x="604" y="1521" type="curve" smooth="yes"/>
      <point x="550" y="1521"/>
      <point x="518" y="1486"/>
      <point x="518" y="1431" type="curve" smooth="yes"/>
      <point x="518" y="1376"/>
      <point x="550" y="1341"/>
    </contour>
  </outline>
</glyph>
<glyph name="copyright" format="1">
  <advance width="1930"/>
  <unicode hex="00A9"/>
  <outline>
    <contour>
      <point x="972" y="286" type="curve" smooth="yes"/>
      <point x="1114" y="286"/>
      <point x="1256" y="335"/>
      <point x="1345" y="413" type="curve"/>
      <point x="1300" y="481" type="line"/>
      <point x="1216" y="410"/>
      <point x="1098" y="367"/>
      <point x="974" y="367" type="curve" smooth="yes"/>
      <point x="716" y="367"/>
      <point x="567" y="529"/>
      <point x="567" y="808" type="curve" smooth="yes"/>
      <point x="567" y="1076"/>
      <point x="712" y="1244"/>
      <point x="962" y="1250" type="curve" smooth="yes"/>
      <point x="1084" y="1253"/>
      <point x="1210" y="1212"/>
      <point x="1294" y="1140" type="curve"/>
      <point x="1347" y="1202" type="line"/>
      <point x="1258" y="1283"/>
      <point x="1109" y="1334"/>
      <point x="961" y="1331" type="curve" smooth="yes"/>
      <point x="651" y="1324"/>
      <point x="455" y="1121"/>
      <point x="455" y="808" type="curve" smooth="yes"/>
      <point x="455" y="489"/>
      <point x="651" y="286"/>
    </contour>
    <contour>
      <point x="965" y="71" type="curve" smooth="yes"/>
      <point x="510" y="71"/>
      <point x="225" y="349"/>
      <point x="225" y="796" type="curve" smooth="yes"/>
      <point x="225" y="1243"/>
      <point x="510" y="1521"/>
      <point x="965" y="1521" type="curve" smooth="yes"/>
      <point x="1420" y="1521"/>
      <point x="1705" y="1243"/>
      <point x="1705" y="796" type="curve" smooth="yes"/>
      <point x="1705" y="349"/>
      <point x="1420" y="71"/>
    </contour>
    <contour>
      <point x="965" y="-18" type="curve" smooth="yes"/>
      <point x="1486" y="-18"/>
      <point x="1814" y="298"/>
      <point x="1814" y="796" type="curve" smooth="yes"/>
      <point x="1814" y="1294"/>
      <point x="1486" y="1610"/>
      <point x="965" y="1610" type="curve" smooth="yes"/>
      <point x="444" y="1610"/>
      <point x="116" y="1294"/>
      <point x="116" y="796" type="curve" smooth="yes"/>
      <point x="116" y="298"/>
      <point x="444" y="-18"/>
    </contour>
  </outline>
</glyph>
<glyph name="guillemotleft" format="1">
  <advance width="1096"/>
  <unicode hex="00AB"/>
  <outline>
    <contour>
      <point x="610" y="212" type="line"/>
      <point x="610" y="339" type="line"/>
      <point x="229" y="633" type="line"/>
      <point x="610" y="926" type="line"/>
      <point x="610" y="1046" type="line"/>
      <point x="125" y="681" type="line"/>
      <point x="125" y="582" type="line"/>
    </contour>
    <contour>
      <point x="1010" y="212" type="line"/>
      <point x="1010" y="339" type="line"/>
      <point x="629" y="633" type="line"/>
      <point x="1010" y="926" type="line"/>
      <point x="1010" y="1046" type="line"/>
      <point x="525" y="681" type="line"/>
      <point x="525" y="582" type="line"/>
    </contour>
  </outline>
</glyph>
<glyph name="logicalnot" format="1">
  <advance width="1474"/>
  <unicode hex="00AC"/>
  <outline>
    <contour>
      <point x="1118" y="476" type="line"/>
      <point x="1246" y="476" type="line"/>
      <point x="1246" y="1092" type="line"/>
      <point x="194" y="1092" type="line"/>
      <point x="194" y="982" type="line"/>
      <point x="1118" y="982" type="line"/>
    </contour>
  </outline>
</glyph>
<glyph name="uni00AD" format="1">
  <advance width="525"/>
  <unicode hex="00AD"/>
  <outline>
    <contour>
      <point x="87" y="487" type="line"/>
      <point x="450" y="487" type="line"/>
      <point x="450" y="575" type="line"/>
      <point x="87" y="575" type="line"/>
    </contour>
  </outline>
</glyph>
<glyph name="registered" format="1">
  <advance width="1935"/>
  <unicode hex="00AE"/>
  <outline>
    <contour>
      <point x="650" y="327" type="line"/>
      <point x="747" y="327" type="line"/>
      <point x="747" y="774" type="line"/>
      <point x="987" y="774" type="line" smooth="yes"/>
      <point x="1180" y="770"/>
      <point x="1206" y="722"/>
      <point x="1222" y="595" type="curve" smooth="yes"/>
      <point x="1260" y="327" type="line"/>
      <point x="1350" y="327" type="line"/>
      <point x="1313" y="602" type="line" smooth="yes"/>
      <point x="1300" y="712"/>
      <point x="1268" y="796"/>
      <point x="1166" y="814" type="curve"/>
      <point x="1265" y="839"/>
      <point x="1337" y="912"/>
      <point x="1337" y="1040" type="curve" smooth="yes"/>
      <point x="1337" y="1282"/>
      <point x="1133" y="1297"/>
      <point x="960" y="1297" type="curve" smooth="yes"/>
      <point x="650" y="1297" type="line"/>
    </contour>
    <contour>
      <point x="747" y="850" type="line"/>
      <point x="747" y="1217" type="line"/>
      <point x="961" y="1217" type="line" smooth="yes"/>
      <point x="1122" y="1217"/>
      <point x="1244" y="1205"/>
      <point x="1244" y="1038" type="curve" smooth="yes"/>
      <point x="1244" y="872"/>
      <point x="1144" y="850"/>
      <point x="988" y="850" type="curve" smooth="yes"/>
    </contour>
    <contour>
      <point x="968" y="71" type="curve" smooth="yes"/>
      <point x="513" y="71"/>
      <point x="228" y="349"/>
      <point x="228" y="796" type="curve" smooth="yes"/>
      <point x="228" y="1243"/>
      <point x="513" y="1521"/>
      <point x="968" y="1521" type="curve" smooth="yes"/>
      <point x="1422" y="1521"/>
      <point x="1707" y="1243"/>
      <point x="1707" y="796" type="curve" smooth="yes"/>
      <point x="1707" y="349"/>
      <point x="1422" y="71"/>
    </contour>
    <contour>
      <point x="968" y="-18" type="curve" smooth="yes"/>
      <point x="1488" y="-18"/>
      <point x="1816" y="298"/>
      <point x="1816" y="796" type="curve" smooth="yes"/>
      <point x="1816" y="1294"/>
      <point x="1488" y="1610"/>
      <point x="968" y="1610" type="curve" smooth="yes"/>
      <point x="447" y="1610"/>
      <point x="119" y="1294"/>
      <point x="119" y="796" type="curve" smooth="yes"/>
      <point x="119" y="298"/>
      <point x="447" y="-18"/>
    </contour>
  </outline>
</glyph>
<glyph name="macron" format="1">
  <advance width="961"/>
  <unicode hex="00AF"/>
  <outline>
    <contour>
      <point x="481" y="1170" type="move" name="_top"/>
    </contour>
    <contour>
      <point x="476" y="1406" type="move" name="_mid"/>
    </contour>
    <contour>
      <point x="173" y="1375" type="line"/>
      <point x="771" y="1375" type="line"/>
      <point x="771" y="1465" type="line"/>
      <point x="173" y="1465" type="line"/>
    </contour>
  </outline>
</glyph>
<glyph name="degree" format="1">
  <advance width="597"/>
  <unicode hex="00B0"/>
  <outline>
    <contour>
      <point x="304" y="720" type="curve" smooth="yes"/>
      <point x="229" y="720"/>
      <point x="170" y="787"/>
      <point x="170" y="861" type="curve" smooth="yes"/>
      <point x="170" y="936"/>
      <point x="226" y="1001"/>
      <point x="304" y="1001" type="curve" smooth="yes"/>
      <point x="384" y="1001"/>
      <point x="433" y="936"/>
      <point x="433" y="861" type="curve" smooth="yes"/>
      <point x="433" y="784"/>
      <point x="384" y="720"/>
    </contour>
    <contour>
      <point x="310" y="653" type="curve" smooth="yes"/>
      <point x="431" y="653"/>
      <point x="501" y="746"/>
      <point x="501" y="862" type="curve" smooth="yes"/>
      <point x="501" y="977"/>
      <point x="425" y="1068"/>
      <point x="306" y="1068" type="curve" smooth="yes"/>
      <point x="183" y="1068"/>
      <point x="101" y="981"/>
      <point x="101" y="859" type="curve" smooth="yes"/>
      <point x="101" y="735"/>
      <point x="189" y="653"/>
    </contour>
  </outline>
</glyph>
<glyph name="plusminus" format="1">
  <advance width="838"/>
  <unicode hex="00B1"/>
  <outline>
    <contour>
      <point x="370" y="96" type="line"/>
      <point x="463" y="96" type="line"/>
      <point x="463" y="437" type="line"/>
      <point x="789" y="437" type="line"/>
      <point x="789" y="533" type="line"/>
      <point x="463" y="533" type="line"/>
      <point x="463" y="875" type="line"/>
      <point x="370" y="875" type="line"/>
      <point x="370" y="533" type="line"/>
      <point x="45" y="533" type="line"/>
      <point x="45" y="437" type="line"/>
      <point x="370" y="437" type="line"/>
    </contour>
    <contour>
      <point x="82" y="-72" type="line"/>
      <point x="753" y="-72" type="line"/>
      <point x="753" y="38" type="line"/>
      <point x="82" y="38" type="line"/>
    </contour>
  </outline>
</glyph>
<glyph name="uni00B2" format="1">
  <advance width="1184"/>
  <unicode hex="00B2"/>
  <outline>
    <contour>
      <point x="219" y="624" type="line"/>
      <point x="959" y="624" type="line"/>
      <point x="959" y="717" type="line"/>
      <point x="367" y="717" type="line"/>
      <point x="669" y="988" type="line" smooth="yes"/>
      <point x="807" y="1110"/>
      <point x="951" y="1253"/>
      <point x="951" y="1440" type="curve" smooth="yes"/>
      <point x="951" y="1669"/>
      <point x="787" y="1770"/>
      <point x="571" y="1770" type="curve" smooth="yes"/>
      <point x="430" y="1770"/>
      <point x="321" y="1723"/>
      <point x="238" y="1672" type="curve"/>
      <point x="275" y="1583" type="line"/>
      <point x="356" y="1629"/>
      <point x="459" y="1673"/>
      <point x="573" y="1673" type="curve" smooth="yes"/>
      <point x="709" y="1673"/>
      <point x="834" y="1621"/>
      <point x="834" y="1440" type="curve" smooth="yes"/>
      <point x="834" y="1274"/>
      <point x="721" y="1178"/>
      <point x="598" y="1064" type="curve" smooth="yes"/>
      <point x="219" y="712" type="line"/>
    </contour>
  </outline>
</glyph>
<glyph name="uni00B3" format="1">
  <advance width="1232"/>
  <unicode hex="00B3"/>
  <outline>
    <contour>
      <point x="597" y="534" type="curve" smooth="yes"/>
      <point x="794" y="534"/>
      <point x="984" y="630"/>
      <point x="984" y="856" type="curve" smooth="yes"/>
      <point x="984" y="1041"/>
      <point x="874" y="1149"/>
      <point x="700" y="1185" type="curve"/>
      <point x="830" y="1192"/>
      <point x="945" y="1288"/>
      <point x="945" y="1461" type="curve" smooth="yes"/>
      <point x="945" y="1675"/>
      <point x="773" y="1757"/>
      <point x="592" y="1757" type="curve" smooth="yes"/>
      <point x="487" y="1757"/>
      <point x="370" y="1724"/>
      <point x="278" y="1671" type="curve"/>
      <point x="312" y="1585" type="line"/>
      <point x="393" y="1632"/>
      <point x="494" y="1662"/>
      <point x="589" y="1662" type="curve" smooth="yes"/>
      <point x="721" y="1662"/>
      <point x="832" y="1612"/>
      <point x="832" y="1453" type="curve" smooth="yes"/>
      <point x="832" y="1270"/>
      <point x="688" y="1235"/>
      <point x="554" y="1236" type="curve"/>
      <point x="554" y="1139" type="line"/>
      <point x="749" y="1111"/>
      <point x="871" y="1049"/>
      <point x="867" y="855" type="curve" smooth="yes"/>
      <point x="863" y="690"/>
      <point x="741" y="628"/>
      <point x="592" y="628" type="curve" smooth="yes"/>
      <point x="495" y="628"/>
      <point x="385" y="656"/>
      <point x="300" y="698" type="curve"/>
      <point x="266" y="606" type="line"/>
      <point x="371" y="558"/>
      <point x="487" y="534"/>
    </contour>
  </outline>
</glyph>
<glyph name="acute" format="1">
  <advance width="590"/>
  <unicode hex="00B4"/>
  <outline>
    <contour>
      <point x="127" y="1170" type="move" name="_top"/>
    </contour>
    <contour>
      <point x="83" y="1356" type="line"/>
      <point x="531" y="1614" type="line"/>
      <point x="454" y="1713" type="line"/>
      <point x="55" y="1395" type="line"/>
    </contour>
  </outline>
</glyph>
<glyph name="paragraph" format="1">
  <advance width="1195"/>
  <unicode hex="00B6"/>
  <outline>
    <contour>
      <point x="563" y="-112" type="line"/>
      <point x="690" y="-112" type="line"/>
      <point x="690" y="1495" type="line"/>
      <point x="877" y="1495" type="line"/>
      <point x="877" y="-112" type="line"/>
      <point x="1004" y="-112" type="line"/>
      <point x="1004" y="1603" type="line"/>
      <point x="609" y="1603" type="line" smooth="yes"/>
      <point x="388" y="1603"/>
      <point x="121" y="1573"/>
      <point x="121" y="1293" type="curve" smooth="yes"/>
      <point x="121" y="1036"/>
      <point x="354" y="962"/>
      <point x="563" y="962" type="curve"/>
    </contour>
  </outline>
</glyph>
<glyph name="periodcentered" format="1">
  <advance width="637"/>
  <unicode hex="00B7"/>
  <outline>
    <contour>
      <point x="72" y="589" type="move" name="_mid"/>
    </contour>
    <contour>
      <point x="511" y="502" type="curve" smooth="yes"/>
      <point x="559" y="502"/>
      <point x="591" y="540"/>
      <point x="591" y="591" type="curve" smooth="yes"/>
      <point x="591" y="643"/>
      <point x="559" y="681"/>
      <point x="511" y="681" type="curve" smooth="yes"/>
      <point x="460" y="681"/>
      <point x="425" y="643"/>
      <point x="425" y="591" type="curve" smooth="yes"/>
      <point x="425" y="540"/>
      <point x="460" y="502"/>
    </contour>
  </outline>
</glyph>
<glyph name="cedilla" format="1">
  <advance width="543"/>
  <unicode hex="00B8"/>
  <outline>
    <contour>
      <point x="210" y="0" type="move" name="_bot"/>
    </contour>
    <contour>
      <point x="223" y="-414" type="curve" smooth="yes"/>
      <point x="347" y="-414"/>
      <point x="427" y="-344"/>
      <point x="427" y="-240" type="curve" smooth="yes"/>
      <point x="427" y="-159"/>
      <point x="365" y="-77"/>
      <point x="233" y="-71" type="curve"/>
      <point x="248" y="9" type="line"/>
      <point x="171" y="9" type="line"/>
      <point x="156" y="-119" type="line"/>
      <point x="284" y="-123"/>
      <point x="324" y="-175"/>
      <point x="324" y="-230" type="curve" smooth="yes"/>
      <point x="324" y="-303"/>
      <point x="277" y="-336"/>
      <point x="206" y="-336" type="curve" smooth="yes"/>
      <point x="172" y="-336"/>
      <point x="133" y="-327"/>
      <point x="93" y="-310" type="curve"/>
      <point x="76" y="-379" type="line"/>
      <point x="123" y="-403"/>
      <point x="174" y="-414"/>
    </contour>
  </outline>
</glyph>
<glyph name="uni00B9" format="1">
  <advance width="1048"/>
  <unicode hex="00B9"/>
  <outline>
    <contour>
      <point x="547" y="607" type="line"/>
      <point x="670" y="607" type="line"/>
      <point x="670" y="1736" type="line"/>
      <point x="550" y="1746" type="line"/>
      <point x="304" y="1633" type="line"/>
      <point x="338" y="1549" type="line"/>
      <point x="547" y="1648" type="line"/>
    </contour>
  </outline>
</glyph>
<glyph name="guillemotright" format="1">
  <advance width="1096"/>
  <unicode hex="00BB"/>
  <outline>
    <contour>
      <point x="141" y="212" type="line"/>
      <point x="626" y="582" type="line"/>
      <point x="626" y="681" type="line"/>
      <point x="141" y="1046" type="line"/>
      <point x="141" y="926" type="line"/>
      <point x="521" y="633" type="line"/>
      <point x="141" y="339" type="line"/>
    </contour>
    <contour>
      <point x="541" y="212" type="line"/>
      <point x="1026" y="582" type="line"/>
      <point x="1026" y="681" type="line"/>
      <point x="541" y="1046" type="line"/>
      <point x="541" y="926" type="line"/>
      <point x="921" y="633" type="line"/>
      <point x="541" y="339" type="line"/>
    </contour>
  </outline>
</glyph>
<glyph name="onequarter" format="1">
  <advance width="1925"/>
  <unicode hex="00BC"/>
  <outline>
    <contour>
      <point x="1651" y="-12" type="line"/>
      <point x="1651" y="271" type="line"/>
      <point x="1806" y="271" type="line"/>
      <point x="1806" y="351" type="line"/>
      <point x="1651" y="351" type="line"/>
      <point x="1651" y="1111" type="line"/>
      <point x="1545" y="1135" type="line"/>
      <point x="995" y="365" type="line"/>
      <point x="1014" y="271" type="line"/>
      <point x="1538" y="271" type="line"/>
      <point x="1538" y="0" type="line"/>
    </contour>
    <contour>
      <point x="362" y="662" type="line"/>
      <point x="482" y="662" type="line"/>
      <point x="482" y="1601" type="line"/>
      <point x="374" y="1623" type="line"/>
      <point x="141" y="1517" type="line"/>
      <point x="178" y="1435" type="line"/>
      <point x="362" y="1519" type="line"/>
    </contour>
    <contour>
      <point x="429" y="-23" type="line"/>
      <point x="1468" y="1623" type="line"/>
      <point x="1381" y="1675" type="line"/>
      <point x="344" y="29" type="line"/>
    </contour>
    <contour>
      <point x="1105" y="351" type="line"/>
      <point x="1538" y="973" type="line"/>
      <point x="1538" y="351" type="line"/>
    </contour>
  </outline>
</glyph>
<glyph name="onehalf" format="1">
  <advance width="2139"/>
  <unicode hex="00BD"/>
  <outline>
    <contour>
      <point x="1212" y="0" type="line"/>
      <point x="1850" y="0" type="line"/>
      <point x="1850" y="96" type="line"/>
      <point x="1369" y="96" type="line"/>
      <point x="1388" y="112"/>
      <point x="1574" y="275"/>
      <point x="1600" y="296" type="curve" smooth="yes"/>
      <point x="1719" y="398"/>
      <point x="1851" y="524"/>
      <point x="1851" y="687" type="curve" smooth="yes"/>
      <point x="1851" y="883"/>
      <point x="1709" y="968"/>
      <point x="1519" y="968" type="curve" smooth="yes"/>
      <point x="1392" y="968"/>
      <point x="1295" y="926"/>
      <point x="1221" y="886" type="curve"/>
      <point x="1239" y="783" type="line"/>
      <point x="1314" y="827"/>
      <point x="1410" y="869"/>
      <point x="1513" y="869" type="curve" smooth="yes"/>
      <point x="1624" y="869"/>
      <point x="1723" y="829"/>
      <point x="1723" y="685" type="curve" smooth="yes"/>
      <point x="1723" y="554"/>
      <point x="1643" y="477"/>
      <point x="1526" y="372" type="curve" smooth="yes"/>
      <point x="1496" y="347"/>
      <point x="1259" y="133"/>
      <point x="1212" y="92" type="curve"/>
    </contour>
    <contour>
      <point x="372" y="662" type="line"/>
      <point x="492" y="662" type="line"/>
      <point x="492" y="1601" type="line"/>
      <point x="384" y="1623" type="line"/>
      <point x="150" y="1517" type="line"/>
      <point x="187" y="1440" type="line"/>
      <point x="372" y="1523" type="line"/>
    </contour>
    <contour>
      <point x="450" y="-23" type="line"/>
      <point x="1489" y="1623" type="line"/>
      <point x="1402" y="1675" type="line"/>
      <point x="365" y="29" type="line"/>
    </contour>
  </outline>
</glyph>
<glyph name="threequarters" format="1">
  <advance width="2173"/>
  <unicode hex="00BE"/>
  <outline>
    <contour>
      <point x="445" y="619" type="curve" smooth="yes"/>
      <point x="610" y="619"/>
      <point x="766" y="698"/>
      <point x="769" y="884" type="curve" smooth="yes"/>
      <point x="772" y="1035"/>
      <point x="692" y="1131"/>
      <point x="540" y="1163" type="curve"/>
      <point x="653" y="1180"/>
      <point x="737" y="1258"/>
      <point x="737" y="1395" type="curve" smooth="yes"/>
      <point x="737" y="1573"/>
      <point x="598" y="1646"/>
      <point x="430" y="1646" type="curve" smooth="yes"/>
      <point x="319" y="1646"/>
      <point x="230" y="1606"/>
      <point x="166" y="1571" type="curve"/>
      <point x="198" y="1486" type="line"/>
      <point x="262" y="1524"/>
      <point x="338" y="1558"/>
      <point x="428" y="1558" type="curve" smooth="yes"/>
      <point x="534" y="1558"/>
      <point x="628" y="1526"/>
      <point x="628" y="1388" type="curve" smooth="yes"/>
      <point x="628" y="1235"/>
      <point x="509" y="1208"/>
      <point x="397" y="1210" type="curve"/>
      <point x="397" y="1125" type="line"/>
      <point x="559" y="1105"/>
      <point x="663" y="1051"/>
      <point x="659" y="890" type="curve" smooth="yes"/>
      <point x="656" y="758"/>
      <point x="564" y="705"/>
      <point x="442" y="705" type="curve" smooth="yes"/>
      <point x="360" y="705"/>
      <point x="267" y="725"/>
      <point x="189" y="765" type="curve"/>
      <point x="157" y="681" type="line"/>
      <point x="244" y="639"/>
      <point x="350" y="619"/>
    </contour>
    <contour>
      <point x="1841" y="-12" type="line"/>
      <point x="1841" y="271" type="line"/>
      <point x="1996" y="271" type="line"/>
      <point x="1996" y="351" type="line"/>
      <point x="1841" y="351" type="line"/>
      <point x="1841" y="1131" type="line"/>
      <point x="1742" y="1155" type="line"/>
      <point x="1182" y="365" type="line"/>
      <point x="1200" y="271" type="line"/>
      <point x="1732" y="271" type="line"/>
      <point x="1732" y="0" type="line"/>
    </contour>
    <contour>
      <point x="615" y="-23" type="line"/>
      <point x="1654" y="1623" type="line"/>
      <point x="1567" y="1675" type="line"/>
      <point x="530" y="29" type="line"/>
    </contour>
    <contour>
      <point x="1291" y="351" type="line"/>
      <point x="1732" y="987" type="line"/>
      <point x="1732" y="351" type="line"/>
    </contour>
  </outline>
</glyph>
<glyph name="AE" format="1">
  <advance width="1822"/>
  <unicode hex="00C6"/>
  <outline>
    <contour>
      <point x="1162" y="1603" type="move" name="top"/>
    </contour>
    <contour>
      <point x="-21" y="0" type="line"/>
      <point x="123" y="0" type="line"/>
      <point x="340" y="378" type="line"/>
      <point x="952" y="378" type="line"/>
      <point x="952" y="0" type="line"/>
      <point x="1756" y="0" type="line"/>
      <point x="1756" y="108" type="line"/>
      <point x="1077" y="108" type="line"/>
      <point x="1077" y="795" type="line"/>
      <point x="1665" y="795" type="line"/>
      <point x="1665" y="896" type="line"/>
      <point x="1076" y="896" type="line"/>
      <point x="1076" y="1496" type="line"/>
      <point x="1711" y="1496" type="line"/>
      <point x="1711" y="1604" type="line"/>
      <point x="885" y="1604" type="line"/>
    </contour>
    <contour>
      <point x="392" y="470" type="line"/>
      <point x="949" y="1478" type="line"/>
      <point x="949" y="470" type="line"/>
    </contour>
  </outline>
</glyph>
<glyph name="multiply" format="1">
  <advance width="829"/>
  <unicode hex="00D7"/>
  <outline>
    <contour>
      <point x="74" y="138" type="line"/>
      <point x="399" y="469" type="line"/>
      <point x="725" y="138" type="line"/>
      <point x="801" y="209" type="line"/>
      <point x="471" y="544" type="line"/>
      <point x="801" y="879" type="line"/>
      <point x="725" y="950" type="line"/>
      <point x="399" y="619" type="line"/>
      <point x="74" y="950" type="line"/>
      <point x="-3" y="879" type="line"/>
      <point x="327" y="544" type="line"/>
      <point x="-3" y="209" type="line"/>
    </contour>
  </outline>
</glyph>
<glyph name="Thorn" format="1">
  <advance width="1350"/>
  <unicode hex="00DE"/>
  <outline>
    <contour>
      <point x="172" y="0" type="line"/>
      <point x="308" y="0" type="line"/>
      <point x="308" y="419" type="line"/>
      <point x="572" y="419" type="line" smooth="yes"/>
      <point x="899" y="418"/>
      <point x="1249" y="454"/>
      <point x="1249" y="863" type="curve" smooth="yes"/>
      <point x="1249" y="1263"/>
      <point x="923" y="1293"/>
      <point x="641" y="1293" type="curve" smooth="yes"/>
      <point x="308" y="1293" type="line"/>
      <point x="308" y="1603" type="line"/>
      <point x="172" y="1603" type="line"/>
    </contour>
    <contour>
      <point x="308" y="528" type="line"/>
      <point x="308" y="1185" type="line"/>
      <point x="647" y="1185" type="line" smooth="yes"/>
      <point x="917" y="1185"/>
      <point x="1115" y="1157"/>
      <point x="1115" y="854" type="curve" smooth="yes"/>
      <point x="1115" y="552"/>
      <point x="878" y="528"/>
      <point x="621" y="528" type="curve" smooth="yes"/>
    </contour>
  </outline>
</glyph>
<glyph name="germandbls" format="1">
  <advance width="1285"/>
  <unicode hex="00DF"/>
  <outline>
    <contour>
      <point x="485" y="-93" type="line"/>
      <point x="826" y="-93"/>
      <point x="1196" y="-47"/>
      <point x="1196" y="417" type="curve" smooth="yes"/>
      <point x="1196" y="705"/>
      <point x="994" y="869"/>
      <point x="750" y="869" type="curve"/>
      <point x="906" y="889"/>
      <point x="1022" y="1010"/>
      <point x="1022" y="1212" type="curve" smooth="yes"/>
      <point x="1022" y="1544"/>
      <point x="805" y="1615"/>
      <point x="581" y="1615" type="curve" smooth="yes"/>
      <point x="300" y="1615"/>
      <point x="152" y="1491"/>
      <point x="152" y="1112" type="curve" smooth="yes"/>
      <point x="154" y="-2" type="line"/>
      <point x="288" y="6" type="line"/>
      <point x="287" y="1101" type="line" smooth="yes"/>
      <point x="287" y="1391"/>
      <point x="355" y="1506"/>
      <point x="586" y="1506" type="curve" smooth="yes"/>
      <point x="804" y="1506"/>
      <point x="896" y="1408"/>
      <point x="896" y="1229" type="curve" smooth="yes"/>
      <point x="896" y="966"/>
      <point x="734" y="910"/>
      <point x="542" y="913" type="curve" smooth="yes"/>
      <point x="537" y="913"/>
      <point x="440" y="913"/>
      <point x="434" y="913" type="curve"/>
      <point x="434" y="819" type="line"/>
      <point x="621" y="819"/>
      <point x="1072" y="815"/>
      <point x="1072" y="431" type="curve" smooth="yes"/>
      <point x="1072" y="30"/>
      <point x="797" y="11"/>
      <point x="485" y="11" type="curve"/>
    </contour>
  </outline>
</glyph>
<glyph name="ae" format="1">
  <advance width="1784"/>
  <unicode hex="00E6"/>
  <outline>
    <contour>
      <point x="911" y="1170" type="move" name="top"/>
    </contour>
    <contour>
      <point x="427" y="-20" type="curve" smooth="yes"/>
      <point x="632" y="-20"/>
      <point x="811" y="93"/>
      <point x="872" y="248" type="curve"/>
      <point x="929" y="83"/>
      <point x="1105" y="-20"/>
      <point x="1316" y="-20" type="curve" smooth="yes"/>
      <point x="1450" y="-20"/>
      <point x="1614" y="41"/>
      <point x="1697" y="112" type="curve"/>
      <point x="1651" y="209" type="line"/>
      <point x="1562" y="134"/>
      <point x="1443" y="88"/>
      <point x="1320" y="88" type="curve" smooth="yes"/>
      <point x="1004" y="88"/>
      <point x="937" y="307"/>
      <point x="937" y="588" type="curve"/>
      <point x="1731" y="588" type="line"/>
      <point x="1733" y="602"/>
      <point x="1737" y="638"/>
      <point x="1737" y="679" type="curve" smooth="yes"/>
      <point x="1737" y="953"/>
      <point x="1617" y="1190"/>
      <point x="1308" y="1190" type="curve" smooth="yes"/>
      <point x="1116" y="1190"/>
      <point x="959" y="1113"/>
      <point x="886" y="945" type="curve"/>
      <point x="837" y="1156"/>
      <point x="677" y="1190"/>
      <point x="499" y="1190" type="curve" smooth="yes"/>
      <point x="391" y="1190"/>
      <point x="210" y="1147"/>
      <point x="90" y="1071" type="curve"/>
      <point x="136" y="977" type="line"/>
      <point x="230" y="1034"/>
      <point x="391" y="1085"/>
      <point x="503" y="1085" type="curve" smooth="yes"/>
      <point x="770" y="1085"/>
      <point x="798" y="954"/>
      <point x="798" y="719" type="curve" smooth="yes"/>
      <point x="798" y="655" type="line"/>
      <point x="704" y="682"/>
      <point x="581" y="699"/>
      <point x="481" y="699" type="curve" smooth="yes"/>
      <point x="242" y="699"/>
      <point x="29" y="606"/>
      <point x="29" y="344" type="curve" smooth="yes"/>
      <point x="29" y="106"/>
      <point x="168" y="-20"/>
    </contour>
    <contour>
      <point x="446" y="85" type="curve" smooth="yes"/>
      <point x="285" y="85"/>
      <point x="163" y="148"/>
      <point x="163" y="344" type="curve" smooth="yes"/>
      <point x="163" y="575"/>
      <point x="352" y="604"/>
      <point x="522" y="604" type="curve" smooth="yes"/>
      <point x="616" y="604"/>
      <point x="708" y="594"/>
      <point x="798" y="579" type="curve"/>
      <point x="798" y="332" type="line"/>
      <point x="753" y="168"/>
      <point x="617" y="85"/>
    </contour>
    <contour>
      <point x="937" y="684" type="line"/>
      <point x="937" y="929"/>
      <point x="1059" y="1089"/>
      <point x="1308" y="1089" type="curve" smooth="yes"/>
      <point x="1535" y="1089"/>
      <point x="1617" y="922"/>
      <point x="1617" y="684" type="curve"/>
    </contour>
  </outline>
</glyph>
<glyph name="eth" format="1">
  <advance width="1140"/>
  <unicode hex="00F0"/>
  <outline>
    <contour>
      <point x="536" y="-19" type="curve" smooth="yes"/>
      <point x="885" y="-19"/>
      <point x="1039" y="272"/>
      <point x="1039" y="659" type="curve" smooth="yes"/>
      <point x="1039" y="973"/>
      <point x="965" y="1189"/>
      <point x="793" y="1427" type="curve"/>
      <point x="1069" y="1507" type="line"/>
      <point x="1027" y="1577" type="line"/>
      <point x="741" y="1495" type="line"/>
      <point x="637" y="1616"/>
      <point x="550" y="1680"/>
      <point x="443" y="1740" type="curve"/>
      <point x="380" y="1662" type="line"/>
      <point x="474" y="1608"/>
      <point x="559" y="1539"/>
      <point x="627" y="1461" type="curve"/>
      <point x="403" y="1397" type="line"/>
      <point x="445" y="1327" type="line"/>
      <point x="680" y="1394" type="line"/>
      <point x="774" y="1291"/>
      <point x="872" y="1117"/>
      <point x="900" y="968" type="curve"/>
      <point x="816" y="1102"/>
      <point x="700" y="1191"/>
      <point x="523" y="1191" type="curve" smooth="yes"/>
      <point x="213" y="1191"/>
      <point x="50" y="922"/>
      <point x="50" y="583" type="curve" smooth="yes"/>
      <point x="50" y="238"/>
      <point x="217" y="-19"/>
    </contour>
    <contour>
      <point x="535" y="82" type="curve" smooth="yes"/>
      <point x="286" y="82"/>
      <point x="178" y="308"/>
      <point x="178" y="584" type="curve" smooth="yes"/>
      <point x="178" y="875"/>
      <point x="288" y="1090"/>
      <point x="541" y="1090" type="curve" smooth="yes"/>
      <point x="774" y="1090"/>
      <point x="909" y="907"/>
      <point x="909" y="650" type="curve" smooth="yes"/>
      <point x="909" y="332"/>
      <point x="803" y="82"/>
    </contour>
  </outline>
</glyph>
<glyph name="divide" format="1">
  <advance width="851"/>
  <unicode hex="00F7"/>
  <outline>
    <contour>
      <point x="417" y="304" type="curve" smooth="yes"/>
      <point x="464" y="304"/>
      <point x="499" y="345"/>
      <point x="499" y="394" type="curve" smooth="yes"/>
      <point x="499" y="443"/>
      <point x="464" y="484"/>
      <point x="417" y="484" type="curve" smooth="yes"/>
      <point x="369" y="484"/>
      <point x="330" y="443"/>
      <point x="330" y="394" type="curve" smooth="yes"/>
      <point x="330" y="345"/>
      <point x="369" y="304"/>
    </contour>
    <contour>
      <point x="84" y="640" type="line"/>
      <point x="771" y="640" type="line"/>
      <point x="771" y="729" type="line"/>
      <point x="84" y="729" type="line"/>
    </contour>
    <contour>
      <point x="421" y="889" type="curve" smooth="yes"/>
      <point x="468" y="889"/>
      <point x="503" y="930"/>
      <point x="503" y="979" type="curve" smooth="yes"/>
      <point x="503" y="1027"/>
      <point x="468" y="1068"/>
      <point x="421" y="1068" type="curve" smooth="yes"/>
      <point x="372" y="1068"/>
      <point x="334" y="1027"/>
      <point x="334" y="979" type="curve" smooth="yes"/>
      <point x="334" y="930"/>
      <point x="372" y="889"/>
    </contour>
  </outline>
</glyph>
<glyph name="oslash" format="1">
  <advance width="1167"/>
  <unicode hex="00F8"/>
  <outline>
    <contour>
      <point x="347" y="-205" type="line"/>
      <point x="417" y="2" type="line"/>
      <point x="469" y="-13"/>
      <point x="521" y="-18"/>
      <point x="572" y="-18" type="curve" smooth="yes"/>
      <point x="931" y="-18"/>
      <point x="1091" y="263"/>
      <point x="1091" y="582" type="curve" smooth="yes"/>
      <point x="1091" y="790"/>
      <point x="1023" y="1021"/>
      <point x="807" y="1136" type="curve"/>
      <point x="877" y="1337" type="line"/>
      <point x="804" y="1366" type="line"/>
      <point x="734" y="1166" type="line"/>
      <point x="681" y="1182"/>
      <point x="626" y="1188"/>
      <point x="572" y="1188" type="curve" smooth="yes"/>
      <point x="213" y="1188"/>
      <point x="55" y="896"/>
      <point x="55" y="582" type="curve" smooth="yes"/>
      <point x="55" y="377"/>
      <point x="120" y="142"/>
      <point x="337" y="32" type="curve"/>
      <point x="265" y="-176" type="line"/>
    </contour>
    <contour>
      <point x="373" y="132" type="line"/>
      <point x="218" y="227"/>
      <point x="183" y="418"/>
      <point x="183" y="581" type="curve" smooth="yes"/>
      <point x="183" y="802"/>
      <point x="262" y="1080"/>
      <point x="572" y="1080" type="curve" smooth="yes"/>
      <point x="613" y="1080"/>
      <point x="656" y="1076"/>
      <point x="697" y="1062" type="curve"/>
    </contour>
    <contour>
      <point x="572" y="88" type="curve" smooth="yes"/>
      <point x="533" y="88"/>
      <point x="491" y="91"/>
      <point x="452" y="102" type="curve"/>
      <point x="772" y="1034" type="line"/>
      <point x="929" y="933"/>
      <point x="961" y="732"/>
      <point x="961" y="581" type="curve" smooth="yes"/>
      <point x="961" y="359"/>
      <point x="883" y="88"/>
    </contour>
  </outline>
</glyph>
<glyph name="thorn" format="1">
  <advance width="1248"/>
  <unicode hex="00FE"/>
  <outline>
    <contour>
      <point x="148" y="-512" type="line"/>
      <point x="280" y="-490" type="line"/>
      <point x="280" y="140" type="line"/>
      <point x="365" y="29"/>
      <point x="497" y="-19"/>
      <point x="642" y="-19" type="curve" smooth="yes"/>
      <point x="993" y="-19"/>
      <point x="1128" y="293"/>
      <point x="1128" y="586" type="curve" smooth="yes"/>
      <point x="1128" y="889"/>
      <point x="991" y="1190"/>
      <point x="649" y="1190" type="curve" smooth="yes"/>
      <point x="503" y="1190"/>
      <point x="366" y="1122"/>
      <point x="278" y="1008" type="curve"/>
      <point x="278" y="1598" type="line"/>
      <point x="148" y="1598" type="line"/>
    </contour>
    <contour>
      <point x="641" y="86" type="curve" smooth="yes"/>
      <point x="505" y="86"/>
      <point x="369" y="142"/>
      <point x="283" y="248" type="curve"/>
      <point x="289" y="903" type="line"/>
      <point x="381" y="1022"/>
      <point x="509" y="1085"/>
      <point x="650" y="1085" type="curve" smooth="yes"/>
      <point x="945" y="1085"/>
      <point x="996" y="772"/>
      <point x="996" y="565" type="curve" smooth="yes"/>
      <point x="996" y="353"/>
      <point x="919" y="86"/>
    </contour>
  </outline>
</glyph>
<glyph name="Hbar" format="1">
  <advance width="1531"/>
  <unicode hex="0126"/>
  <outline>
    <contour>
      <point x="33" y="1289" type="line"/>
      <point x="1491" y="1289" type="line"/>
      <point x="1491" y="1368" type="line"/>
      <point x="33" y="1368" type="line"/>
    </contour>
    <component base="H"/>
  </outline>
</glyph>
<glyph name="hbar" format="1">
  <advance width="1256"/>
  <unicode hex="0127"/>
  <outline>
    <contour>
      <point x="155" y="0" type="line"/>
      <point x="288" y="0" type="line"/>
      <point x="288" y="895" type="line"/>
      <point x="402" y="1010"/>
      <point x="561" y="1085"/>
      <point x="703" y="1085" type="curve" smooth="yes"/>
      <point x="939" y="1085"/>
      <point x="980" y="918"/>
      <point x="980" y="722" type="curve" smooth="yes"/>
      <point x="980" y="0" type="line"/>
      <point x="1113" y="0" type="line"/>
      <point x="1113" y="728" type="line" smooth="yes"/>
      <point x="1113" y="983"/>
      <point x="1034" y="1190"/>
      <point x="719" y="1190" type="curve" smooth="yes"/>
      <point x="547" y="1190"/>
      <point x="412" y="1115"/>
      <point x="288" y="997" type="curve"/>
      <point x="288" y="1376" type="line"/>
      <point x="664" y="1376" type="line"/>
      <point x="664" y="1464" type="line"/>
      <point x="288" y="1464" type="line"/>
      <point x="288" y="1609" type="line"/>
      <point x="155" y="1580" type="line"/>
      <point x="155" y="1464" type="line"/>
      <point x="18" y="1464" type="line"/>
      <point x="18" y="1376" type="line"/>
      <point x="155" y="1376" type="line"/>
    </contour>
  </outline>
</glyph>
<glyph name="dotlessi" format="1">
  <advance width="419"/>
  <unicode hex="0131"/>
  <outline>
    <contour>
      <point x="218" y="1170" type="move" name="top"/>
    </contour>
    <contour>
      <point x="222" y="0" type="move" name="ogonek"/>
    </contour>
    <contour>
      <point x="146" y="0" type="line"/>
      <point x="274" y="0" type="line"/>
      <point x="274" y="1172" type="line"/>
      <point x="146" y="1172" type="line"/>
    </contour>
  </outline>
</glyph>
<glyph name="kgreenlandic" format="1">
  <advance width="1181"/>
  <unicode hex="0138"/>
  <outline>
    <contour>
      <point x="133" y="0" type="line"/>
      <point x="270" y="0" type="line"/>
      <point x="270" y="479" type="line"/>
      <point x="394" y="578" type="line"/>
      <point x="921" y="0" type="line"/>
      <point x="1083" y="0" type="line"/>
      <point x="473" y="649" type="line"/>
      <point x="1039" y="1170" type="line"/>
      <point x="872" y="1170" type="line"/>
      <point x="270" y="605" type="line"/>
      <point x="270" y="1170" type="line"/>
      <point x="133" y="1170" type="line"/>
    </contour>
  </outline>
</glyph>
<glyph name="Lslash" format="1">
  <advance width="1165"/>
  <unicode hex="0141"/>
  <outline>
    <contour>
      <point x="-27" y="501" type="line"/>
      <point x="614" y="934" type="line"/>
      <point x="614" y="1056" type="line"/>
      <point x="-27" y="623" type="line"/>
    </contour>
    <component base="L"/>
  </outline>
</glyph>
<glyph name="lslash" format="1">
  <advance width="501"/>
  <unicode hex="0142"/>
  <outline>
    <contour>
      <point x="-3" y="596" type="line"/>
      <point x="496" y="912" type="line"/>
      <point x="496" y="1012" type="line"/>
      <point x="-3" y="692" type="line"/>
    </contour>
    <component base="l"/>
  </outline>
</glyph>
<glyph name="Eng" format="1">
  <advance width="1581"/>
  <unicode hex="014A"/>
  <outline>
    <contour>
      <point x="995" y="-480" type="line"/>
      <point x="1309" y="-427"/>
      <point x="1407" y="-308"/>
      <point x="1407" y="78" type="curve" smooth="yes"/>
      <point x="1407" y="271" type="line"/>
      <point x="1283" y="271" type="line"/>
      <point x="1283" y="87" type="line" smooth="yes"/>
      <point x="1283" y="-243"/>
      <point x="1245" y="-318"/>
      <point x="960" y="-377" type="curve"/>
    </contour>
    <component base="N"/>
  </outline>
</glyph>
<glyph name="eng" format="1">
  <advance width="1245"/>
  <unicode hex="014B"/>
  <outline>
    <contour>
      <point x="732" y="-426" type="line"/>
      <point x="1016" y="-373"/>
      <point x="1102" y="-278"/>
      <point x="1102" y="66" type="curve" smooth="yes"/>
      <point x="1102" y="235" type="line"/>
      <point x="970" y="235" type="line"/>
      <point x="970" y="75" type="line" smooth="yes"/>
      <point x="970" y="-213"/>
      <point x="946" y="-264"/>
      <point x="697" y="-323" type="curve"/>
    </contour>
    <component base="n"/>
  </outline>
</glyph>
<glyph name="OE" format="1">
  <advance width="2210"/>
  <unicode hex="0152"/>
  <outline>
    <contour>
      <point x="751" y="-27" type="curve" smooth="yes"/>
      <point x="1007" y="-27"/>
      <point x="1160" y="90"/>
      <point x="1248" y="277" type="curve"/>
      <point x="1248" y="0" type="line"/>
      <point x="2184" y="0" type="line"/>
      <point x="2184" y="108" type="line"/>
      <point x="1384" y="108" type="line"/>
      <point x="1384" y="796" type="line"/>
      <point x="2072" y="796" type="line"/>
      <point x="2072" y="892" type="line"/>
      <point x="1384" y="892" type="line"/>
      <point x="1384" y="1497" type="line"/>
      <point x="2187" y="1497" type="line"/>
      <point x="2187" y="1604" type="line"/>
      <point x="1248" y="1604" type="line"/>
      <point x="1248" y="1322" type="line"/>
      <point x="1165" y="1515"/>
      <point x="1005" y="1627"/>
      <point x="746" y="1627" type="curve" smooth="yes"/>
      <point x="262" y="1627"/>
      <point x="116" y="1210"/>
      <point x="116" y="800" type="curve" smooth="yes"/>
      <point x="116" y="382"/>
      <point x="262" y="-27"/>
    </contour>
    <contour>
      <point x="756" y="84" type="curve" smooth="yes"/>
      <point x="341" y="84"/>
      <point x="257" y="468"/>
      <point x="257" y="800" type="curve" smooth="yes"/>
      <point x="257" y="1129"/>
      <point x="338" y="1516"/>
      <point x="752" y="1516" type="curve" smooth="yes"/>
      <point x="1164" y="1516"/>
      <point x="1248" y="1147"/>
      <point x="1248" y="800" type="curve" smooth="yes"/>
      <point x="1248" y="453"/>
      <point x="1164" y="84"/>
    </contour>
  </outline>
</glyph>
<glyph name="oe" format="1">
  <advance width="2046"/>
  <unicode hex="0153"/>
  <outline>
    <contour>
      <point x="622" y="-19" type="curve" smooth="yes"/>
      <point x="852" y="-19"/>
      <point x="1007" y="98"/>
      <point x="1077" y="284" type="curve"/>
      <point x="1150" y="94"/>
      <point x="1311" y="-19"/>
      <point x="1546" y="-19" type="curve" smooth="yes"/>
      <point x="1663" y="-19"/>
      <point x="1830" y="31"/>
      <point x="1928" y="112" type="curve"/>
      <point x="1882" y="209" type="line"/>
      <point x="1796" y="134"/>
      <point x="1677" y="84"/>
      <point x="1553" y="84" type="curve" smooth="yes"/>
      <point x="1254" y="84"/>
      <point x="1145" y="311"/>
      <point x="1144" y="583" type="curve"/>
      <point x="1958" y="583" type="line"/>
      <point x="1961" y="598"/>
      <point x="1970" y="637"/>
      <point x="1970" y="687" type="curve" smooth="yes"/>
      <point x="1970" y="956"/>
      <point x="1834" y="1190"/>
      <point x="1532" y="1190" type="curve" smooth="yes"/>
      <point x="1306" y="1190"/>
      <point x="1148" y="1073"/>
      <point x="1076" y="885" type="curve"/>
      <point x="1005" y="1071"/>
      <point x="851" y="1190"/>
      <point x="622" y="1190" type="curve" smooth="yes"/>
      <point x="264" y="1190"/>
      <point x="102" y="901"/>
      <point x="102" y="582" type="curve" smooth="yes"/>
      <point x="102" y="259"/>
      <point x="265" y="-19"/>
    </contour>
    <contour>
      <point x="622" y="84" type="curve" smooth="yes"/>
      <point x="332" y="84"/>
      <point x="233" y="330"/>
      <point x="233" y="582" type="curve" smooth="yes"/>
      <point x="233" y="807"/>
      <point x="316" y="1086"/>
      <point x="622" y="1086" type="curve" smooth="yes"/>
      <point x="930" y="1086"/>
      <point x="1011" y="807"/>
      <point x="1011" y="582" type="curve" smooth="yes"/>
      <point x="1011" y="329"/>
      <point x="916" y="84"/>
    </contour>
    <contour>
      <point x="1149" y="675" type="line"/>
      <point x="1166" y="894"/>
      <point x="1267" y="1089"/>
      <point x="1535" y="1089" type="curve" smooth="yes"/>
      <point x="1764" y="1089"/>
      <point x="1847" y="911"/>
      <point x="1847" y="675" type="curve"/>
    </contour>
  </outline>
</glyph>
<glyph name="florin" format="1">
  <advance width="1045"/>
  <unicode hex="0192"/>
  <outline>
    <contour>
      <point x="291" y="0" type="line"/>
      <point x="419" y="0" type="line"/>
      <point x="543" y="954" type="line"/>
      <point x="878" y="954" type="line"/>
      <point x="885" y="1035" type="line"/>
      <point x="552" y="1035" type="line"/>
      <point x="605" y="1436"/>
      <point x="657" y="1529"/>
      <point x="777" y="1529" type="curve" smooth="yes"/>
      <point x="824" y="1529"/>
      <point x="882" y="1514"/>
      <point x="953" y="1489" type="curve"/>
      <point x="984" y="1575" type="line"/>
      <point x="896" y="1610"/>
      <point x="817" y="1632"/>
      <point x="749" y="1632" type="curve" smooth="yes"/>
      <point x="589" y="1632"/>
      <point x="483" y="1517"/>
      <point x="422" y="1035" type="curve"/>
      <point x="235" y="1035" type="line"/>
      <point x="228" y="954" type="line"/>
      <point x="413" y="954" type="line"/>
    </contour>
  </outline>
</glyph>
<glyph name="uni0237" format="1">
  <advance width="693"/>
  <unicode hex="0237"/>
  <outline>
    <contour>
      <point x="464" y="1170" type="move" name="top"/>
    </contour>
    <contour>
      <point x="234" y="-381" type="line"/>
      <point x="471" y="-322"/>
      <point x="528" y="-62"/>
      <point x="528" y="138" type="curve" smooth="yes"/>
      <point x="528" y="1172" type="line"/>
      <point x="389" y="1172" type="line"/>
      <point x="389" y="161" type="line" smooth="yes"/>
      <point x="389" y="-32"/>
      <point x="396" y="-182"/>
      <point x="208" y="-305" type="curve"/>
    </contour>
  </outline>
</glyph>
<glyph name="circumflex" format="1">
  <advance width="787"/>
  <unicode hex="02C6"/>
  <outline>
    <contour>
      <point x="393" y="1170" type="move" name="_top"/>
    </contour>
    <contour>
      <point x="87" y="1366" type="line"/>
      <point x="195" y="1366" type="line"/>
      <point x="388" y="1624" type="line"/>
      <point x="582" y="1366" type="line"/>
      <point x="690" y="1366" type="line"/>
      <point x="431" y="1726" type="line"/>
      <point x="346" y="1726" type="line"/>
    </contour>
  </outline>
</glyph>
<glyph name="caron" format="1">
  <advance width="787"/>
  <unicode hex="02C7"/>
  <outline>
    <contour>
      <point x="393" y="1170" type="move" name="_top"/>
    </contour>
    <contour>
      <point x="346" y="1354" type="line"/>
      <point x="431" y="1354" type="line"/>
      <point x="690" y="1714" type="line"/>
      <point x="582" y="1714" type="line"/>
      <point x="388" y="1456" type="line"/>
      <point x="195" y="1714" type="line"/>
      <point x="87" y="1714" type="line"/>
    </contour>
  </outline>
</glyph>
<glyph name="breve" format="1">
  <advance width="662"/>
  <unicode hex="02D8"/>
  <outline>
    <contour>
      <point x="334" y="1170" type="move" name="_top"/>
    </contour>
    <contour>
      <point x="331" y="1325" type="curve" smooth="yes"/>
      <point x="478" y="1325"/>
      <point x="571" y="1411"/>
      <point x="571" y="1549" type="curve"/>
      <point x="476" y="1549" type="line"/>
      <point x="476" y="1467"/>
      <point x="420" y="1415"/>
      <point x="330" y="1415" type="curve" smooth="yes"/>
      <point x="236" y="1415"/>
      <point x="178" y="1467"/>
      <point x="179" y="1549" type="curve"/>
      <point x="84" y="1549" type="line"/>
      <point x="84" y="1411"/>
      <point x="179" y="1325"/>
    </contour>
  </outline>
</glyph>
<glyph name="dotaccent" format="1">
  <advance width="500"/>
  <unicode hex="02D9"/>
  <outline>
    <contour>
      <point x="258" y="1170" type="move" name="_top"/>
    </contour>
    <contour>
      <point x="249" y="1361" type="curve" smooth="yes"/>
      <point x="296" y="1361"/>
      <point x="325" y="1394"/>
      <point x="325" y="1447" type="curve" smooth="yes"/>
      <point x="325" y="1500"/>
      <point x="296" y="1532"/>
      <point x="249" y="1532" type="curve" smooth="yes"/>
      <point x="199" y="1532"/>
      <point x="167" y="1500"/>
      <point x="167" y="1447" type="curve" smooth="yes"/>
      <point x="167" y="1394"/>
      <point x="199" y="1361"/>
    </contour>
  </outline>
</glyph>
<glyph name="ring" format="1">
  <advance width="572"/>
  <unicode hex="02DA"/>
  <outline>
    <contour>
      <point x="300" y="1170" type="move" name="_top"/>
    </contour>
    <contour>
      <point x="286" y="1586" type="move" name="top"/>
    </contour>
    <contour>
      <point x="299" y="1375" type="curve" smooth="yes"/>
      <point x="218" y="1375"/>
      <point x="167" y="1428"/>
      <point x="167" y="1511" type="curve" smooth="yes"/>
      <point x="167" y="1594"/>
      <point x="218" y="1646"/>
      <point x="299" y="1646" type="curve" smooth="yes"/>
      <point x="378" y="1646"/>
      <point x="429" y="1594"/>
      <point x="429" y="1511" type="curve" smooth="yes"/>
      <point x="429" y="1428"/>
      <point x="378" y="1375"/>
    </contour>
    <contour>
      <point x="299" y="1309" type="curve" smooth="yes"/>
      <point x="424" y="1309"/>
      <point x="502" y="1386"/>
      <point x="502" y="1511" type="curve" smooth="yes"/>
      <point x="502" y="1635"/>
      <point x="424" y="1713"/>
      <point x="299" y="1713" type="curve" smooth="yes"/>
      <point x="173" y="1713"/>
      <point x="93" y="1635"/>
      <point x="93" y="1511" type="curve" smooth="yes"/>
      <point x="93" y="1386"/>
      <point x="173" y="1309"/>
    </contour>
  </outline>
</glyph>
<glyph name="ogonek" format="1">
  <advance width="632"/>
  <unicode hex="02DB"/>
  <outline>
    <contour>
      <point x="406" y="0" type="move" name="_ogonek"/>
    </contour>
    <contour>
      <point x="420" y="-468" type="curve" smooth="yes"/>
      <point x="448" y="-468"/>
      <point x="482" y="-465"/>
      <point x="512" y="-460" type="curve"/>
      <point x="512" y="-369" type="line"/>
      <point x="484" y="-373"/>
      <point x="457" y="-375"/>
      <point x="432" y="-375" type="curve" smooth="yes"/>
      <point x="346" y="-375"/>
      <point x="292" y="-341"/>
      <point x="292" y="-258" type="curve" smooth="yes"/>
      <point x="292" y="-174"/>
      <point x="350" y="-89"/>
      <point x="440" y="0" type="curve"/>
      <point x="362" y="0" type="line"/>
      <point x="255" y="-89"/>
      <point x="189" y="-195"/>
      <point x="189" y="-285" type="curve" smooth="yes"/>
      <point x="189" y="-407"/>
      <point x="284" y="-468"/>
    </contour>
  </outline>
</glyph>
<glyph name="tilde" format="1">
  <advance width="920"/>
  <unicode hex="02DC"/>
  <outline>
    <contour>
      <point x="464" y="1170" type="move" name="_top"/>
    </contour>
    <contour>
      <point x="137" y="1378" type="curve"/>
      <point x="197" y="1378" type="line"/>
      <point x="197" y="1552"/>
      <point x="400" y="1427"/>
      <point x="582" y="1389" type="curve" smooth="yes"/>
      <point x="704" y="1365"/>
      <point x="765" y="1417"/>
      <point x="765" y="1576" type="curve"/>
      <point x="706" y="1576" type="line"/>
      <point x="706" y="1408"/>
      <point x="500" y="1530"/>
      <point x="324" y="1568" type="curve" smooth="yes"/>
      <point x="201" y="1592"/>
      <point x="137" y="1542"/>
    </contour>
  </outline>
</glyph>
<glyph name="hungarumlaut" format="1">
  <advance width="824"/>
  <unicode hex="02DD"/>
  <outline>
    <contour>
      <point x="204" y="1170" type="move" name="_top"/>
    </contour>
    <contour>
      <point x="54" y="1334" type="line"/>
      <point x="433" y="1681" type="line"/>
      <point x="335" y="1762" type="line"/>
      <point x="17" y="1367" type="line"/>
    </contour>
    <contour>
      <point x="390" y="1332" type="line"/>
      <point x="791" y="1649" type="line"/>
      <point x="702" y="1739" type="line"/>
      <point x="356" y="1368" type="line"/>
    </contour>
  </outline>
</glyph>
<glyph name="uni0307" format="1">
  <advance width="500"/>
  <unicode hex="0307"/>
  <outline>
    <contour>
      <point x="249" y="1170" type="move" name="_top"/>
    </contour>
    <contour>
      <point x="249" y="1421" type="curve" smooth="yes"/>
      <point x="298" y="1421"/>
      <point x="329" y="1456"/>
      <point x="329" y="1511" type="curve" smooth="yes"/>
      <point x="329" y="1566"/>
      <point x="298" y="1601"/>
      <point x="249" y="1601" type="curve" smooth="yes"/>
      <point x="196" y="1601"/>
      <point x="163" y="1566"/>
      <point x="163" y="1511" type="curve" smooth="yes"/>
      <point x="163" y="1456"/>
      <point x="196" y="1421"/>
    </contour>
  </outline>
</glyph>
<glyph name="uni030F" format="1">
  <advance width="864"/>
  <unicode hex="030F"/>
  <outline>
    <contour>
      <point x="629" y="1170" type="move" name="_top"/>
    </contour>
    <contour>
      <point x="443" y="1332" type="line"/>
      <point x="477" y="1368" type="line"/>
      <point x="131" y="1739" type="line"/>
      <point x="41" y="1649" type="line"/>
    </contour>
    <contour>
      <point x="779" y="1334" type="line"/>
      <point x="815" y="1367" type="line"/>
      <point x="497" y="1762" type="line"/>
      <point x="400" y="1681" type="line"/>
    </contour>
  </outline>
</glyph>
<glyph name="uni0311" format="1">
  <advance width="653"/>
  <unicode hex="0311"/>
  <outline>
    <contour>
      <point x="334" y="1170" type="move" name="_top"/>
    </contour>
    <contour>
      <point x="84" y="1332" type="curve"/>
      <point x="179" y="1332" type="line"/>
      <point x="178" y="1420"/>
      <point x="230" y="1466"/>
      <point x="330" y="1466" type="curve" smooth="yes"/>
      <point x="426" y="1466"/>
      <point x="476" y="1420"/>
      <point x="476" y="1332" type="curve"/>
      <point x="571" y="1332" type="line"/>
      <point x="571" y="1482"/>
      <point x="487" y="1557"/>
      <point x="331" y="1557" type="curve" smooth="yes"/>
      <point x="169" y="1557"/>
      <point x="84" y="1482"/>
    </contour>
  </outline>
</glyph>
<glyph name="uni0326" format="1">
  <advance width="536"/>
  <unicode hex="0326"/>
  <outline>
    <contour>
      <point x="293" y="0" type="move" name="_bot"/>
    </contour>
    <contour>
      <point x="196" y="-618" type="line"/>
      <point x="306" y="-585"/>
      <point x="358" y="-500"/>
      <point x="358" y="-362" type="curve" smooth="yes"/>
      <point x="358" y="-148" type="line"/>
      <point x="228" y="-148" type="line"/>
      <point x="228" y="-382" type="line"/>
      <point x="290" y="-382" type="line"/>
      <point x="291" y="-484"/>
      <point x="253" y="-550"/>
      <point x="175" y="-576" type="curve"/>
    </contour>
  </outline>
</glyph>
<glyph name="uni0394" format="1">
  <advance width="1298"/>
  <unicode hex="0394"/>
  <outline>
    <contour>
      <point x="41" y="0" type="line"/>
      <point x="1254" y="0" type="line"/>
      <point x="732" y="1501" type="line"/>
      <point x="552" y="1501" type="line"/>
    </contour>
    <contour>
      <point x="223" y="117" type="line"/>
      <point x="646" y="1412" type="line"/>
      <point x="1071" y="117" type="line"/>
    </contour>
  </outline>
</glyph>
<glyph name="Sigma" format="1">
  <advance width="1343"/>
  <unicode hex="03A3"/>
  <outline>
    <contour>
      <point x="132" y="0" type="line"/>
      <point x="1223" y="0" type="line"/>
      <point x="1223" y="107" type="line"/>
      <point x="269" y="107" type="line"/>
      <point x="1020" y="775" type="line"/>
      <point x="1020" y="841" type="line"/>
      <point x="266" y="1496" type="line"/>
      <point x="1207" y="1496" type="line"/>
      <point x="1207" y="1603" type="line"/>
      <point x="132" y="1603" type="line"/>
      <point x="132" y="1466" type="line"/>
      <point x="881" y="805" type="line"/>
      <point x="132" y="125" type="line"/>
    </contour>
  </outline>
</glyph>
<glyph name="uni03BC" format="1">
  <advance width="1219"/>
  <unicode hex="03BC"/>
  <outline>
    <contour>
      <point x="279" y="-278" type="line"/>
      <point x="278" y="100" type="line"/>
      <point x="338" y="29"/>
      <point x="426" y="-19"/>
      <point x="553" y="-19" type="curve" smooth="yes"/>
      <point x="726" y="-19"/>
      <point x="877" y="56"/>
      <point x="984" y="190" type="curve"/>
      <point x="1004" y="6" type="line"/>
      <point x="1105" y="6" type="line"/>
      <point x="1105" y="1171" type="line"/>
      <point x="963" y="1171" type="line"/>
      <point x="963" y="284" type="line"/>
      <point x="861" y="151"/>
      <point x="716" y="86"/>
      <point x="558" y="86" type="curve" smooth="yes"/>
      <point x="333" y="86"/>
      <point x="281" y="237"/>
      <point x="278" y="423" type="curve" smooth="yes"/>
      <point x="278" y="1171" type="line"/>
      <point x="149" y="1171" type="line"/>
      <point x="149" y="-289" type="line"/>
    </contour>
  </outline>
</glyph>
<glyph name="pi" format="1">
  <advance width="1756"/>
  <unicode hex="03C0"/>
  <outline>
    <contour>
      <point x="1284" y="-9" type="curve" smooth="yes"/>
      <point x="1340" y="-9"/>
      <point x="1403" y="5"/>
      <point x="1451" y="30" type="curve"/>
      <point x="1451" y="111" type="line"/>
      <point x="1413" y="98"/>
      <point x="1362" y="84"/>
      <point x="1325" y="84" type="curve" smooth="yes"/>
      <point x="1196" y="84"/>
      <point x="1163" y="183"/>
      <point x="1163" y="419" type="curve" smooth="yes"/>
      <point x="1163" y="594"/>
      <point x="1184" y="773"/>
      <point x="1221" y="1058" type="curve"/>
      <point x="1492" y="1058" type="line"/>
      <point x="1492" y="1170" type="line"/>
      <point x="550" y="1170" type="line" smooth="yes"/>
      <point x="309" y="1170"/>
      <point x="236" y="1096"/>
      <point x="232" y="892" type="curve"/>
      <point x="301" y="892" type="line"/>
      <point x="318" y="994"/>
      <point x="369" y="1058"/>
      <point x="463" y="1058" type="curve" smooth="yes"/>
      <point x="642" y="1058" type="line"/>
      <point x="514" y="389" type="line" smooth="yes"/>
      <point x="465" y="134"/>
      <point x="379" y="82"/>
      <point x="210" y="76" type="curve"/>
      <point x="210" y="2" type="line"/>
      <point x="534" y="5"/>
      <point x="592" y="124"/>
      <point x="624" y="359" type="curve" smooth="yes"/>
      <point x="720" y="1058" type="line"/>
      <point x="1129" y="1058" type="line"/>
      <point x="1094" y="767"/>
      <point x="1052" y="512"/>
      <point x="1052" y="332" type="curve" smooth="yes"/>
      <point x="1052" y="110"/>
      <point x="1111" y="-9"/>
    </contour>
  </outline>
</glyph>
<glyph name="emdash" format="1">
  <advance width="905"/>
  <unicode hex="2014"/>
  <outline>
    <contour>
      <point x="110" y="549" type="line"/>
      <point x="799" y="549" type="line"/>
      <point x="799" y="655" type="line"/>
      <point x="110" y="655" type="line"/>
    </contour>
  </outline>
</glyph>
<glyph name="quoteleft" format="1">
  <advance width="553"/>
  <unicode hex="2018"/>
  <outline>
    <contour>
      <point x="187" y="1134" type="line"/>
      <point x="367" y="1134" type="line"/>
      <point x="367" y="1364" type="line"/>
      <point x="275" y="1364" type="line"/>
      <point x="275" y="1488"/>
      <point x="298" y="1535"/>
      <point x="382" y="1566" type="curve"/>
      <point x="352" y="1623" type="line"/>
      <point x="213" y="1584"/>
      <point x="187" y="1473"/>
      <point x="187" y="1347" type="curve" smooth="yes"/>
    </contour>
  </outline>
</glyph>
<glyph name="quoteright" format="1">
  <advance width="576"/>
  <unicode hex="2019"/>
  <outline>
    <contour>
      <point x="218" y="1114" type="line"/>
      <point x="356" y="1154"/>
      <point x="382" y="1264"/>
      <point x="382" y="1391" type="curve" smooth="yes"/>
      <point x="382" y="1604" type="line"/>
      <point x="203" y="1604" type="line"/>
      <point x="203" y="1374" type="line"/>
      <point x="295" y="1374" type="line"/>
      <point x="295" y="1249"/>
      <point x="272" y="1203"/>
      <point x="188" y="1171" type="curve"/>
    </contour>
  </outline>
</glyph>
<glyph name="quotesinglbase" format="1">
  <advance width="553"/>
  <unicode hex="201A"/>
  <outline>
    <contour>
      <point x="213" y="-242" type="line"/>
      <point x="352" y="-202"/>
      <point x="378" y="-91"/>
      <point x="378" y="35" type="curve" smooth="yes"/>
      <point x="378" y="248" type="line"/>
      <point x="198" y="248" type="line"/>
      <point x="198" y="18" type="line"/>
      <point x="290" y="18" type="line"/>
      <point x="291" y="-106"/>
      <point x="267" y="-153"/>
      <point x="184" y="-184" type="curve"/>
    </contour>
  </outline>
</glyph>
<glyph name="quotedblleft" format="1">
  <advance width="838"/>
  <unicode hex="201C"/>
  <outline>
    <contour>
      <point x="171" y="1146" type="line"/>
      <point x="351" y="1146" type="line"/>
      <point x="351" y="1376" type="line"/>
      <point x="259" y="1376" type="line"/>
      <point x="259" y="1501"/>
      <point x="281" y="1547"/>
      <point x="366" y="1578" type="curve"/>
      <point x="336" y="1635" type="line"/>
      <point x="197" y="1596"/>
      <point x="171" y="1485"/>
      <point x="171" y="1359" type="curve" smooth="yes"/>
    </contour>
    <contour>
      <point x="476" y="1146" type="line"/>
      <point x="655" y="1146" type="line"/>
      <point x="655" y="1376" type="line"/>
      <point x="563" y="1376" type="line"/>
      <point x="563" y="1501"/>
      <point x="586" y="1547"/>
      <point x="670" y="1578" type="curve"/>
      <point x="640" y="1635" type="line"/>
      <point x="502" y="1596"/>
      <point x="476" y="1485"/>
      <point x="476" y="1359" type="curve" smooth="yes"/>
    </contour>
  </outline>
</glyph>
<glyph name="quotedblright" format="1">
  <advance width="873"/>
  <unicode hex="201D"/>
  <outline>
    <contour>
      <point x="213" y="1114" type="line"/>
      <point x="352" y="1154"/>
      <point x="378" y="1264"/>
      <point x="378" y="1391" type="curve" smooth="yes"/>
      <point x="378" y="1604" type="line"/>
      <point x="198" y="1604" type="line"/>
      <point x="198" y="1374" type="line"/>
      <point x="290" y="1374" type="line"/>
      <point x="291" y="1249"/>
      <point x="268" y="1203"/>
      <point x="184" y="1171" type="curve"/>
    </contour>
    <contour>
      <point x="517" y="1114" type="line"/>
      <point x="656" y="1154"/>
      <point x="682" y="1264"/>
      <point x="682" y="1391" type="curve" smooth="yes"/>
      <point x="682" y="1604" type="line"/>
      <point x="503" y="1604" type="line"/>
      <point x="503" y="1374" type="line"/>
      <point x="595" y="1374" type="line"/>
      <point x="595" y="1249"/>
      <point x="572" y="1203"/>
      <point x="488" y="1171" type="curve"/>
    </contour>
  </outline>
</glyph>
<glyph name="quotedblbase" format="1">
  <advance width="848"/>
  <unicode hex="201E"/>
  <outline>
    <contour>
      <point x="186" y="-249" type="line"/>
      <point x="325" y="-210"/>
      <point x="351" y="-99"/>
      <point x="351" y="27" type="curve" smooth="yes"/>
      <point x="351" y="240" type="line"/>
      <point x="171" y="240" type="line"/>
      <point x="171" y="10" type="line"/>
      <point x="263" y="10" type="line"/>
      <point x="264" y="-114"/>
      <point x="241" y="-160"/>
      <point x="157" y="-192" type="curve"/>
    </contour>
    <contour>
      <point x="490" y="-249" type="line"/>
      <point x="629" y="-210"/>
      <point x="655" y="-99"/>
      <point x="655" y="27" type="curve" smooth="yes"/>
      <point x="655" y="240" type="line"/>
      <point x="476" y="240" type="line"/>
      <point x="476" y="10" type="line"/>
      <point x="568" y="10" type="line"/>
      <point x="568" y="-114"/>
      <point x="545" y="-160"/>
      <point x="461" y="-192" type="curve"/>
    </contour>
  </outline>
</glyph>
<glyph name="dagger" format="1">
  <advance width="1119"/>
  <unicode hex="2020"/>
  <outline>
    <contour>
      <point x="474" y="-200" type="line"/>
      <point x="596" y="-200" type="line"/>
      <point x="596" y="1034" type="line"/>
      <point x="900" y="1034" type="line"/>
      <point x="900" y="1135" type="line"/>
      <point x="598" y="1135" type="line"/>
      <point x="598" y="1603" type="line"/>
      <point x="474" y="1603" type="line"/>
      <point x="474" y="1135" type="line"/>
      <point x="171" y="1135" type="line"/>
      <point x="171" y="1034" type="line"/>
      <point x="474" y="1034" type="line"/>
    </contour>
  </outline>
</glyph>
<glyph name="daggerdbl" format="1">
  <advance width="1071"/>
  <unicode hex="2021"/>
  <outline>
    <contour>
      <point x="474" y="-200" type="line"/>
      <point x="596" y="-200" type="line"/>
      <point x="596" y="283" type="line"/>
      <point x="899" y="283" type="line"/>
      <point x="899" y="381" type="line"/>
      <point x="596" y="381" type="line"/>
      <point x="596" y="1034" type="line"/>
      <point x="900" y="1034" type="line"/>
      <point x="900" y="1135" type="line"/>
      <point x="598" y="1135" type="line"/>
      <point x="598" y="1603" type="line"/>
      <point x="474" y="1603" type="line"/>
      <point x="474" y="1135" type="line"/>
      <point x="171" y="1135" type="line"/>
      <point x="171" y="1034" type="line"/>
      <point x="474" y="1034" type="line"/>
      <point x="474" y="381" type="line"/>
      <point x="171" y="381" type="line"/>
      <point x="171" y="283" type="line"/>
      <point x="474" y="283" type="line"/>
    </contour>
  </outline>
</glyph>
<glyph name="bullet" format="1">
  <advance width="850"/>
  <unicode hex="2022"/>
  <outline>
    <contour>
      <point x="421" y="371" type="curve" smooth="yes"/>
      <point x="602" y="371"/>
      <point x="758" y="498"/>
      <point x="758" y="696" type="curve" smooth="yes"/>
      <point x="758" y="881"/>
      <point x="606" y="1023"/>
      <point x="423" y="1023" type="curve" smooth="yes"/>
      <point x="239" y="1023"/>
      <point x="88" y="887"/>
      <point x="88" y="696" type="curve" smooth="yes"/>
      <point x="88" y="511"/>
      <point x="236" y="371"/>
    </contour>
  </outline>
</glyph>
<glyph name="perthousand" format="1">
  <advance width="2640"/>
  <unicode hex="2030"/>
  <outline>
    <contour>
      <point x="2213" y="77" type="curve" smooth="yes"/>
      <point x="2090" y="77"/>
      <point x="2012" y="195"/>
      <point x="2012" y="385" type="curve" smooth="yes"/>
      <point x="2012" y="585"/>
      <point x="2090" y="710"/>
      <point x="2213" y="710" type="curve" smooth="yes"/>
      <point x="2336" y="710"/>
      <point x="2414" y="585"/>
      <point x="2414" y="385" type="curve" smooth="yes"/>
      <point x="2414" y="195"/>
      <point x="2336" y="77"/>
    </contour>
    <contour>
      <point x="2213" y="-18" type="curve" smooth="yes"/>
      <point x="2405" y="-18"/>
      <point x="2526" y="138"/>
      <point x="2526" y="386" type="curve" smooth="yes"/>
      <point x="2526" y="640"/>
      <point x="2405" y="799"/>
      <point x="2213" y="799" type="curve" smooth="yes"/>
      <point x="2021" y="799"/>
      <point x="1900" y="640"/>
      <point x="1900" y="386" type="curve" smooth="yes"/>
      <point x="1900" y="138"/>
      <point x="2021" y="-18"/>
    </contour>
    <component base="percent"/>
  </outline>
</glyph>
<glyph name="guilsinglleft" format="1">
  <advance width="767"/>
  <unicode hex="2039"/>
  <outline>
    <contour>
      <point x="670" y="212" type="line"/>
      <point x="670" y="339" type="line"/>
      <point x="241" y="633" type="line"/>
      <point x="670" y="926" type="line"/>
      <point x="670" y="1046" type="line"/>
      <point x="137" y="681" type="line"/>
      <point x="137" y="582" type="line"/>
    </contour>
  </outline>
</glyph>
<glyph name="guilsinglright" format="1">
  <advance width="767"/>
  <unicode hex="203A"/>
  <outline>
    <contour>
      <point x="141" y="212" type="line"/>
      <point x="674" y="582" type="line"/>
      <point x="674" y="681" type="line"/>
      <point x="141" y="1046" type="line"/>
      <point x="141" y="926" type="line"/>
      <point x="569" y="633" type="line"/>
      <point x="141" y="339" type="line"/>
    </contour>
  </outline>
</glyph>
<glyph name="fraction" format="1">
  <advance width="868"/>
  <unicode hex="2044"/>
  <outline>
    <contour>
      <point x="94" y="-18" type="line"/>
      <point x="868" y="1621" type="line"/>
      <point x="772" y="1621" type="line"/>
      <point x="0" y="-18" type="line"/>
    </contour>
  </outline>
</glyph>
<glyph name="uni2074" format="1">
  <advance width="1170"/>
  <unicode hex="2074"/>
  <outline>
    <contour>
      <point x="726" y="546" type="line"/>
      <point x="831" y="555" type="line"/>
      <point x="831" y="820" type="line"/>
      <point x="991" y="820" type="line"/>
      <point x="991" y="906" type="line"/>
      <point x="831" y="906" type="line"/>
      <point x="831" y="1711" type="line"/>
      <point x="730" y="1735" type="line"/>
      <point x="158" y="900" type="line"/>
      <point x="177" y="820" type="line"/>
      <point x="726" y="820" type="line"/>
    </contour>
    <contour>
      <point x="278" y="905" type="line"/>
      <point x="726" y="1566" type="line"/>
      <point x="726" y="905" type="line"/>
    </contour>
  </outline>
</glyph>
<glyph name="Euro" format="1">
  <advance width="1317"/>
  <unicode hex="20AC"/>
  <outline>
    <contour>
      <point x="-81" y="611" type="line"/>
      <point x="799" y="611" type="line"/>
      <point x="799" y="697" type="line"/>
      <point x="227" y="697" type="line"/>
      <point x="227" y="937" type="line"/>
      <point x="799" y="937" type="line"/>
      <point x="799" y="1023" type="line"/>
      <point x="-81" y="1023" type="line"/>
      <point x="-81" y="937" type="line"/>
      <point x="168" y="937" type="line"/>
      <point x="168" y="697" type="line"/>
      <point x="-81" y="697" type="line"/>
    </contour>
    <component base="C"/>
  </outline>
</glyph>
<glyph name="afii61289" format="1">
  <advance width="882"/>
  <unicode hex="2113"/>
  <outline>
    <contour>
      <point x="595" y="-14" type="curve"/>
      <point x="659" y="-14"/>
      <point x="729" y="-3"/>
      <point x="797" y="19" type="curve"/>
      <point x="777" y="109" type="line"/>
      <point x="719" y="91"/>
      <point x="660" y="80"/>
      <point x="606" y="80" type="curve"/>
      <point x="503" y="80"/>
      <point x="424" y="120"/>
      <point x="424" y="235" type="curve"/>
      <point x="424" y="1049" type="line"/>
      <point x="605" y="1222" type="line"/>
      <point x="677" y="1290"/>
      <point x="716" y="1337"/>
      <point x="716" y="1405" type="curve"/>
      <point x="716" y="1514"/>
      <point x="623" y="1583"/>
      <point x="518" y="1583" type="curve"/>
      <point x="424" y="1583"/>
      <point x="307" y="1523"/>
      <point x="307" y="1350" type="curve"/>
      <point x="306" y="1071" type="line"/>
      <point x="67" y="841" type="line"/>
      <point x="67" y="718" type="line"/>
      <point x="305" y="948" type="line"/>
      <point x="305" y="234" type="line"/>
      <point x="305" y="59"/>
      <point x="435" y="-14"/>
    </contour>
    <contour>
      <point x="424" y="1172" type="line"/>
      <point x="424" y="1354" type="line"/>
      <point x="424" y="1441"/>
      <point x="471" y="1476"/>
      <point x="517" y="1476" type="curve"/>
      <point x="561" y="1476"/>
      <point x="601" y="1447"/>
      <point x="601" y="1393" type="curve"/>
      <point x="601" y="1357"/>
      <point x="578" y="1322"/>
      <point x="539" y="1285" type="curve"/>
    </contour>
  </outline>
</glyph>
<glyph name="trademark" format="1">
  <advance width="1480"/>
  <unicode hex="2122"/>
  <outline>
    <contour>
      <point x="652" y="818" type="line"/>
      <point x="754" y="818" type="line"/>
      <point x="754" y="1403" type="line"/>
      <point x="952" y="848" type="line"/>
      <point x="1080" y="848" type="line"/>
      <point x="1280" y="1403" type="line"/>
      <point x="1280" y="818" type="line"/>
      <point x="1381" y="818" type="line"/>
      <point x="1381" y="1538" type="line"/>
      <point x="1226" y="1538" type="line"/>
      <point x="1018" y="942" type="line"/>
      <point x="807" y="1538" type="line"/>
      <point x="652" y="1538" type="line"/>
    </contour>
    <contour>
      <point x="238" y="818" type="line"/>
      <point x="343" y="818" type="line"/>
      <point x="343" y="1459" type="line"/>
      <point x="534" y="1459" type="line"/>
      <point x="534" y="1538" type="line"/>
      <point x="48" y="1538" type="line"/>
      <point x="48" y="1459" type="line"/>
      <point x="238" y="1459" type="line"/>
    </contour>
  </outline>
</glyph>
<glyph name="Omega" format="1">
  <advance width="1874"/>
  <unicode hex="2126"/>
  <outline>
    <contour>
      <point x="235" y="0" type="line"/>
      <point x="799" y="0" type="line"/>
      <point x="798" y="86" type="line"/>
      <point x="504" y="264"/>
      <point x="344" y="569"/>
      <point x="344" y="872" type="curve" smooth="yes"/>
      <point x="344" y="1240"/>
      <point x="581" y="1534"/>
      <point x="991" y="1534" type="curve" smooth="yes"/>
      <point x="1414" y="1534"/>
      <point x="1633" y="1223"/>
      <point x="1633" y="870" type="curve" smooth="yes"/>
      <point x="1633" y="566"/>
      <point x="1468" y="265"/>
      <point x="1177" y="86" type="curve"/>
      <point x="1176" y="0" type="line"/>
      <point x="1738" y="0" type="line"/>
      <point x="1748" y="91" type="line"/>
      <point x="1310" y="91" type="line"/>
      <point x="1583" y="261"/>
      <point x="1758" y="561"/>
      <point x="1758" y="879" type="curve" smooth="yes"/>
      <point x="1758" y="1288"/>
      <point x="1487" y="1638"/>
      <point x="993" y="1638" type="curve" smooth="yes"/>
      <point x="507" y="1638"/>
      <point x="218" y="1300"/>
      <point x="218" y="881" type="curve" smooth="yes"/>
      <point x="218" y="565"/>
      <point x="380" y="263"/>
      <point x="663" y="91" type="curve"/>
      <point x="223" y="91" type="line"/>
    </contour>
  </outline>
</glyph>
<glyph name="estimated" format="1">
  <advance width="1176"/>
  <unicode hex="212E"/>
  <outline>
    <contour>
      <point x="646" y="98" type="curve" smooth="yes"/>
      <point x="767" y="98"/>
      <point x="935" y="143"/>
      <point x="1030" y="226" type="curve"/>
      <point x="992" y="301" type="line"/>
      <point x="919" y="242"/>
      <point x="796" y="185"/>
      <point x="661" y="185" type="curve" smooth="yes"/>
      <point x="535" y="185"/>
      <point x="433" y="227"/>
      <point x="361" y="306" type="curve"/>
      <point x="361" y="707" type="line"/>
      <point x="1058" y="707" type="line"/>
      <point x="1060" y="719"/>
      <point x="1068" y="756"/>
      <point x="1068" y="803" type="curve" smooth="yes"/>
      <point x="1068" y="1079"/>
      <point x="931" y="1304"/>
      <point x="632" y="1304" type="curve" smooth="yes"/>
      <point x="287" y="1304"/>
      <point x="115" y="1033"/>
      <point x="115" y="707" type="curve" smooth="yes"/>
      <point x="115" y="367"/>
      <point x="291" y="98"/>
    </contour>
    <contour>
      <point x="361" y="785" type="line"/>
      <point x="361" y="1112" type="line"/>
      <point x="423" y="1177"/>
      <point x="512" y="1216"/>
      <point x="635" y="1216" type="curve" smooth="yes"/>
      <point x="746" y="1216"/>
      <point x="826" y="1172"/>
      <point x="879" y="1103" type="curve"/>
      <point x="879" y="785" type="line"/>
    </contour>
  </outline>
</glyph>
<glyph name="emptyset" format="1">
  <advance width="1756"/>
  <unicode hex="2205"/>
  <outline>
    <contour>
      <point x="359" y="-82" type="line"/>
      <point x="524" y="102" type="line"/>
      <point x="625" y="27"/>
      <point x="751" y="-18"/>
      <point x="887" y="-18" type="curve" smooth="yes"/>
      <point x="1224" y="-18"/>
      <point x="1497" y="255"/>
      <point x="1497" y="592" type="curve" smooth="yes"/>
      <point x="1497" y="753"/>
      <point x="1435" y="898"/>
      <point x="1334" y="1007" type="curve"/>
      <point x="1493" y="1185" type="line"/>
      <point x="1428" y="1245" type="line"/>
      <point x="1269" y="1067" type="line"/>
      <point x="1164" y="1152"/>
      <point x="1031" y="1202"/>
      <point x="887" y="1202" type="curve" smooth="yes"/>
      <point x="550" y="1202"/>
      <point x="277" y="929"/>
      <point x="277" y="592" type="curve" smooth="yes"/>
      <point x="277" y="424"/>
      <point x="345" y="271"/>
      <point x="456" y="160" type="curve"/>
      <point x="293" y="-22" type="line"/>
    </contour>
    <contour>
      <point x="530" y="243" type="line"/>
      <point x="445" y="333"/>
      <point x="395" y="458"/>
      <point x="395" y="592" type="curve" smooth="yes"/>
      <point x="395" y="863"/>
      <point x="596" y="1093"/>
      <point x="887" y="1093" type="curve" smooth="yes"/>
      <point x="1009" y="1093"/>
      <point x="1114" y="1053"/>
      <point x="1196" y="987" type="curve"/>
    </contour>
    <contour>
      <point x="887" y="91" type="curve" smooth="yes"/>
      <point x="775" y="91"/>
      <point x="676" y="125"/>
      <point x="596" y="184" type="curve"/>
      <point x="1259" y="924" type="line"/>
      <point x="1335" y="835"/>
      <point x="1379" y="718"/>
      <point x="1379" y="592" type="curve" smooth="yes"/>
      <point x="1379" y="321"/>
      <point x="1178" y="91"/>
    </contour>
  </outline>
</glyph>
<glyph name="Delta" format="1">
  <advance width="1380"/>
  <unicode hex="2206"/>
  <outline>
    <contour>
      <point x="44" y="0" type="line"/>
      <point x="1332" y="0" type="line"/>
      <point x="772" y="1604" type="line"/>
      <point x="593" y="1604" type="line"/>
    </contour>
    <contour>
      <point x="229" y="118" type="line"/>
      <point x="686" y="1513" type="line"/>
      <point x="1148" y="118" type="line"/>
    </contour>
  </outline>
</glyph>
<glyph name="product" format="1">
  <advance width="1549"/>
  <unicode hex="220F"/>
  <outline>
    <contour>
      <point x="236" y="-128" type="line"/>
      <point x="370" y="-128" type="line"/>
      <point x="370" y="1500" type="line"/>
      <point x="1179" y="1500" type="line"/>
      <point x="1179" y="-128" type="line"/>
      <point x="1314" y="-128" type="line"/>
      <point x="1314" y="1500" type="line"/>
      <point x="1525" y="1500" type="line"/>
      <point x="1525" y="1603" type="line"/>
      <point x="24" y="1603" type="line"/>
      <point x="24" y="1500" type="line"/>
      <point x="236" y="1500" type="line"/>
    </contour>
  </outline>
</glyph>
<glyph name="minus" format="1">
  <advance width="837"/>
  <unicode hex="2212"/>
  <outline>
    <contour>
      <point x="93" y="545" type="line"/>
      <point x="727" y="545" type="line"/>
      <point x="727" y="639" type="line"/>
      <point x="93" y="639" type="line"/>
    </contour>
  </outline>
</glyph>
<glyph name="infinity" format="1">
  <advance width="1704"/>
  <unicode hex="221E"/>
  <outline>
    <contour>
      <point x="398" y="453" type="curve" smooth="yes"/>
      <point x="569" y="453"/>
      <point x="715" y="569"/>
      <point x="853" y="690" type="curve"/>
      <point x="992" y="569"/>
      <point x="1138" y="453"/>
      <point x="1308" y="453" type="curve" smooth="yes"/>
      <point x="1458" y="453"/>
      <point x="1588" y="539"/>
      <point x="1586" y="749" type="curve"/>
      <point x="1588" y="959"/>
      <point x="1458" y="1045"/>
      <point x="1308" y="1045" type="curve" smooth="yes"/>
      <point x="1138" y="1045"/>
      <point x="992" y="929"/>
      <point x="853" y="808" type="curve"/>
      <point x="715" y="929"/>
      <point x="569" y="1045"/>
      <point x="398" y="1045" type="curve" smooth="yes"/>
      <point x="248" y="1045"/>
      <point x="118" y="959"/>
      <point x="120" y="749" type="curve"/>
      <point x="118" y="539"/>
      <point x="248" y="453"/>
    </contour>
    <contour>
      <point x="409" y="542" type="curve" smooth="yes"/>
      <point x="299" y="542"/>
      <point x="216" y="589"/>
      <point x="217" y="749" type="curve"/>
      <point x="216" y="909"/>
      <point x="299" y="956"/>
      <point x="409" y="956" type="curve" smooth="yes"/>
      <point x="540" y="956"/>
      <point x="661" y="858"/>
      <point x="786" y="749" type="curve"/>
      <point x="661" y="640"/>
      <point x="540" y="542"/>
    </contour>
    <contour>
      <point x="1297" y="542" type="curve" smooth="yes"/>
      <point x="1167" y="542"/>
      <point x="1045" y="640"/>
      <point x="921" y="749" type="curve"/>
      <point x="1045" y="858"/>
      <point x="1167" y="956"/>
      <point x="1297" y="956" type="curve" smooth="yes"/>
      <point x="1407" y="956"/>
      <point x="1491" y="909"/>
      <point x="1489" y="749" type="curve"/>
      <point x="1491" y="589"/>
      <point x="1407" y="542"/>
    </contour>
  </outline>
</glyph>
<glyph name="integral" format="1">
  <advance width="1252"/>
  <unicode hex="222B"/>
  <outline>
    <contour>
      <point x="346" y="-265" type="curve" smooth="yes"/>
      <point x="515" y="-265"/>
      <point x="587" y="-117"/>
      <point x="627" y="200" type="curve" smooth="yes"/>
      <point x="752" y="1190" type="line" smooth="yes"/>
      <point x="785" y="1437"/>
      <point x="838" y="1529"/>
      <point x="957" y="1529" type="curve" smooth="yes"/>
      <point x="1004" y="1529"/>
      <point x="1062" y="1514"/>
      <point x="1134" y="1489" type="curve"/>
      <point x="1165" y="1575" type="line"/>
      <point x="1076" y="1610"/>
      <point x="997" y="1632"/>
      <point x="929" y="1632" type="curve" smooth="yes"/>
      <point x="769" y="1632"/>
      <point x="665" y="1517"/>
      <point x="625" y="1195" type="curve" smooth="yes"/>
      <point x="502" y="214" type="line" smooth="yes"/>
      <point x="468" y="-56"/>
      <point x="428" y="-157"/>
      <point x="313" y="-157" type="curve" smooth="yes"/>
      <point x="267" y="-157"/>
      <point x="210" y="-141"/>
      <point x="137" y="-113" type="curve"/>
      <point x="99" y="-196" type="line"/>
      <point x="198" y="-242"/>
      <point x="279" y="-265"/>
    </contour>
  </outline>
</glyph>
<glyph name="notequal" format="1">
  <advance width="827"/>
  <unicode hex="2260"/>
  <outline>
    <contour>
      <point x="247" y="-96" type="line"/>
      <point x="393" y="355" type="line"/>
      <point x="731" y="355" type="line"/>
      <point x="731" y="447" type="line"/>
      <point x="423" y="447" type="line"/>
      <point x="487" y="646" type="line"/>
      <point x="731" y="646" type="line"/>
      <point x="731" y="738" type="line"/>
      <point x="516" y="738" type="line"/>
      <point x="651" y="1158" type="line"/>
      <point x="584" y="1185" type="line"/>
      <point x="440" y="738" type="line"/>
      <point x="105" y="738" type="line"/>
      <point x="105" y="646" type="line"/>
      <point x="411" y="646" type="line"/>
      <point x="347" y="447" type="line"/>
      <point x="105" y="447" type="line"/>
      <point x="105" y="355" type="line"/>
      <point x="317" y="355" type="line"/>
      <point x="180" y="-69" type="line"/>
    </contour>
  </outline>
</glyph>
<glyph name="lessequal" format="1">
  <advance width="1426"/>
  <unicode hex="2264"/>
  <outline>
    <contour>
      <point x="1114" y="394" type="line"/>
      <point x="1171" y="481" type="line"/>
      <point x="433" y="863" type="line"/>
      <point x="1171" y="1245" type="line"/>
      <point x="1114" y="1332" type="line"/>
      <point x="223" y="863" type="line"/>
    </contour>
    <contour>
      <point x="253" y="0" type="line"/>
      <point x="1154" y="0" type="line"/>
      <point x="1154" y="97" type="line"/>
      <point x="253" y="97" type="line"/>
    </contour>
  </outline>
</glyph>
<glyph name="greaterequal" format="1">
  <advance width="1426"/>
  <unicode hex="2265"/>
  <outline>
    <contour>
      <point x="312" y="394" type="line"/>
      <point x="1203" y="863" type="line"/>
      <point x="312" y="1332" type="line"/>
      <point x="254" y="1245" type="line"/>
      <point x="993" y="863" type="line"/>
      <point x="254" y="481" type="line"/>
    </contour>
    <contour>
      <point x="272" y="0" type="line"/>
      <point x="1173" y="0" type="line"/>
      <point x="1173" y="97" type="line"/>
      <point x="272" y="97" type="line"/>
    </contour>
  </outline>
</glyph>
<glyph name="lozenge" format="1">
  <advance width="1623"/>
  <unicode hex="25CA"/>
  <outline>
    <contour>
      <point x="812" y="84" type="line"/>
      <point x="341" y="583" type="line"/>
      <point x="813" y="1084" type="line"/>
      <point x="1285" y="585" type="line"/>
    </contour>
    <contour>
      <point x="812" y="-55" type="line"/>
      <point x="1424" y="585" type="line"/>
      <point x="813" y="1223" type="line"/>
      <point x="201" y="583" type="line"/>
    </contour>
  </outline>
</glyph>
<glyph name="uniFB01" format="1">
  <advance width="1190"/>
  <unicode hex="FB01"/>
  <outline>
    <contour>
      <point x="223" y="0" type="line"/>
      <point x="358" y="0" type="line"/>
      <point x="358" y="1082" type="line"/>
      <point x="890" y="1082" type="line"/>
      <point x="890" y="0" type="line"/>
      <point x="1021" y="0" type="line"/>
      <point x="1021" y="1170" type="line"/>
      <point x="358" y="1170" type="line"/>
      <point x="358" y="1235" type="line" smooth="yes"/>
      <point x="358" y="1449"/>
      <point x="416" y="1520"/>
      <point x="524" y="1527" type="curve" smooth="yes"/>
      <point x="582" y="1531"/>
      <point x="656" y="1512"/>
      <point x="706" y="1493" type="curve"/>
      <point x="735" y="1584" type="line"/>
      <point x="679" y="1608"/>
      <point x="594" y="1631"/>
      <point x="512" y="1628" type="curve" smooth="yes"/>
      <point x="344" y="1621"/>
      <point x="223" y="1528"/>
      <point x="223" y="1238" type="curve" smooth="yes"/>
      <point x="223" y="1170" type="line"/>
      <point x="24" y="1170" type="line"/>
      <point x="24" y="1082" type="line"/>
      <point x="223" y="1082" type="line"/>
    </contour>
    <contour>
      <point x="958" y="1350" type="curve" smooth="yes"/>
      <point x="1012" y="1350"/>
      <point x="1043" y="1392"/>
      <point x="1043" y="1439" type="curve" smooth="yes"/>
      <point x="1043" y="1484"/>
      <point x="1012" y="1527"/>
      <point x="958" y="1527" type="curve" smooth="yes"/>
      <point x="905" y="1527"/>
      <point x="871" y="1484"/>
      <point x="871" y="1439" type="curve" smooth="yes"/>
      <point x="871" y="1392"/>
      <point x="904" y="1350"/>
    </contour>
  </outline>
</glyph>
<glyph name="uniFB02" format="1">
  <advance width="1262"/>
  <unicode hex="FB02"/>
  <outline>
    <contour>
      <point x="243" y="0" type="line"/>
      <point x="378" y="0" type="line"/>
      <point x="378" y="1082" type="line"/>
      <point x="747" y="1082" type="line"/>
      <point x="747" y="1170" type="line"/>
      <point x="378" y="1170" type="line"/>
      <point x="378" y="1235" type="line" smooth="yes"/>
      <point x="378" y="1449"/>
      <point x="483" y="1534"/>
      <point x="667" y="1534" type="curve" smooth="yes"/>
      <point x="746" y="1534"/>
      <point x="836" y="1519"/>
      <point x="934" y="1493" type="curve"/>
      <point x="934" y="0" type="line"/>
      <point x="1066" y="0" type="line"/>
      <point x="1066" y="1566" type="line"/>
      <point x="914" y="1612"/>
      <point x="775" y="1637"/>
      <point x="656" y="1637" type="curve" smooth="yes"/>
      <point x="397" y="1637"/>
      <point x="243" y="1517"/>
      <point x="243" y="1238" type="curve" smooth="yes"/>
      <point x="243" y="1170" type="line"/>
      <point x="44" y="1170" type="line"/>
      <point x="44" y="1082" type="line"/>
      <point x="243" y="1082" type="line"/>
    </contour>
  </outline>
</glyph>
<glyph name="caron.alt" format="1">
  <advance width="600"/>
  <outline>
    <contour>
      <point x="30" y="1170" type="move" name="_caron.alt"/>
    </contour>
    <component base="comma" xOffset="24" yOffset="1496"/>
  </outline>
</glyph>
<glyph name="fj" format="1">
  <advance width="1249"/>
  <outline>
    <contour>
      <point x="749" y="-384" type="line"/>
      <point x="1003" y="-313"/>
      <point x="1062" y="-174"/>
      <point x="1062" y="122" type="curve" smooth="yes"/>
      <point x="1062" y="1171" type="line"/>
      <point x="372" y="1171" type="line"/>
      <point x="372" y="1418"/>
      <point x="388" y="1528"/>
      <point x="531" y="1535" type="curve" smooth="yes"/>
      <point x="590" y="1539"/>
      <point x="660" y="1518"/>
      <point x="719" y="1487" type="curve"/>
      <point x="753" y="1576" type="line"/>
      <point x="684" y="1612"/>
      <point x="595" y="1639"/>
      <point x="513" y="1634" type="curve" smooth="yes"/>
      <point x="310" y="1625"/>
      <point x="237" y="1502"/>
      <point x="237" y="1171" type="curve"/>
      <point x="40" y="1171" type="line"/>
      <point x="40" y="1089" type="line"/>
      <point x="237" y="1089" type="line"/>
      <point x="237" y="0" type="line"/>
      <point x="372" y="0" type="line"/>
      <point x="372" y="1089" type="line"/>
      <point x="928" y="1089" type="line"/>
      <point x="928" y="131" type="line" smooth="yes"/>
      <point x="928" y="-129"/>
      <point x="918" y="-203"/>
      <point x="715" y="-290" type="curve"/>
    </contour>
    <contour>
      <point x="996" y="1350" type="curve" smooth="yes"/>
      <point x="1050" y="1350"/>
      <point x="1081" y="1392"/>
      <point x="1081" y="1439" type="curve" smooth="yes"/>
      <point x="1081" y="1484"/>
      <point x="1050" y="1527"/>
      <point x="996" y="1527" type="curve" smooth="yes"/>
      <point x="942" y="1527"/>
      <point x="909" y="1484"/>
      <point x="909" y="1439" type="curve" smooth="yes"/>
      <point x="909" y="1392"/>
      <point x="942" y="1350"/>
    </contour>
  </outline>
</glyph>
